<?xml version="1.0" encoding="utf-8"?>
<!-- Generator: Adobe Illustrator 21.0.0, SVG Export Plug-In . SVG Version: 6.00 Build 0)  -->
<svg version="1.1" id="Layer_1" xmlns="http://www.w3.org/2000/svg" xmlns:xlink="http://www.w3.org/1999/xlink" x="0px" y="0px"
	 viewBox="0 0 1080 1920" enable-background="new 0 0 1080 1920" xml:space="preserve">
<g>
	<g>
		<path fill="#182C45" d="M508.479,110.687c3.367-3.781,8.675-7.946,15.489-9.796c7.766-2.106,14.846-0.475,21.236,4.262
			c3.825,2.837,7.011,6.265,8.938,10.716c2.649,6.131,2.129,12.276-0.004,18.396c-0.619,1.769-1.476,3.454-2.152,5.208
			c-0.143,0.371-0.132,0.956,0.073,1.283c2.799,4.475,2.214,9.121-1.686,13.011c-3.181,3.172-8.218,3.49-12.376,0.786
			c-2.05-1.331-4.101-2.664-6.169-3.969c-4.333-2.737-5.567-8.04-2.917-12.443c1.2-1.998,2.368-4.018,3.432-6.086
			c0.453-0.886,0.668-1.917,0.873-2.903c0.43-2.084-0.482-3.583-2.214-4.651c-1.599-0.984-3.159-0.621-4.542,0.389
			c-3.192,2.322-5.257,5.459-6.206,9.281c-0.342,1.379-0.474,2.818-0.651,4.231c-1.049,8.345-9.843,12.804-17.023,8.534
			c-3.785-2.252-5.515-5.78-5.371-10.156C497.516,127.525,500.831,119.45,508.479,110.687 M512.366,116.6
			c-1.26,1.777-2.613,3.5-3.762,5.349c-2.886,4.635-4.351,9.724-4.465,15.187c-0.05,2.479,1.521,4.264,3.858,4.464
			c2.334,0.198,4.206-1.275,4.645-3.677c0.087-0.479,0.115-0.972,0.167-1.459c0.658-6.596,3.457-12.09,8.505-16.404
			c5.744-4.911,13.405-3.829,17.361,2.459c2.067,3.292,2.072,6.868,0.738,10.32c-1.114,2.886-2.69,5.609-4.206,8.323
			c-1.061,1.891-1.031,2.652,0.765,3.83c1.984,1.299,3.987,2.567,5.997,3.82c1.595,0.995,2.709,0.872,3.825-0.348
			c1.311-1.433,1.381-2.584,0.23-4.124c-0.268-0.362-0.575-0.694-0.854-1.049c-1.532-1.944-1.518-2.896-0.395-5.144
			c1.143-2.28,2.271-4.593,3.096-6.998c2.403-6.989,1.082-13.114-4.324-18.375c-6.011-5.844-13.651-7.44-20.951-4.069
			C518.596,110.554,515.338,113.368,512.366,116.6"/>
		<path fill="#182C45" d="M572.187,154.341c5.564,4.845,6.082,12.859,1.191,18.459c-4.878,5.587-12.927,6.156-18.469,1.31
			c-5.496-4.808-6.001-12.814-1.159-18.391C558.638,150.081,566.609,149.488,572.187,154.341 M568.168,168.184
			c2.372-2.744,2.155-6.309-0.521-8.634c-2.676-2.321-6.24-2.038-8.628,0.686c-2.429,2.772-2.203,6.312,0.554,8.693
			C562.269,171.255,565.772,170.953,568.168,168.184"/>
	</g>
	<g>
		<path fill="#182C45" d="M944.379,1575.78c2.275,4.522,4.193,10.991,3.404,18.008c-0.902,7.996-5.026,13.978-11.783,18.175
			c-4.047,2.511-8.407,4.211-13.254,4.364c-6.676,0.205-12.197-2.541-17.102-6.779c-1.417-1.227-2.668-2.644-4.049-3.919
			c-0.293-0.27-0.841-0.475-1.219-0.405c-5.191,0.954-9.295-1.301-11.475-6.359c-1.778-4.126-0.218-8.925,3.827-11.795
			c1.993-1.416,3.987-2.831,5.962-4.274c4.14-3.021,9.525-2.215,12.642,1.87c1.416,1.851,2.863,3.681,4.394,5.432
			c0.656,0.747,1.536,1.327,2.377,1.88c1.779,1.167,3.509,0.872,5.139-0.345c1.503-1.124,1.741-2.709,1.311-4.366
			c-0.983-3.823-3.14-6.897-6.344-9.188c-1.156-0.826-2.445-1.478-3.694-2.164c-7.373-4.048-8.28-13.866-1.665-18.969
			c3.488-2.69,7.405-2.999,11.421-1.254C932.761,1559.387,939.049,1565.442,944.379,1575.78 M937.45,1577.217
			c-1.189-1.826-2.292-3.718-3.587-5.467c-3.247-4.39-7.438-7.626-12.475-9.744c-2.287-0.959-4.525-0.156-5.571,1.943
			c-1.044,2.097-0.364,4.38,1.708,5.672c0.414,0.258,0.861,0.465,1.295,0.692c5.89,3.041,9.968,7.667,12.119,13.948
			c2.45,7.149-1.377,13.873-8.68,15.236c-3.822,0.71-7.149-0.603-9.867-3.115c-2.273-2.099-4.224-4.567-6.189-6.975
			c-1.368-1.682-2.086-1.935-3.843-0.699c-1.938,1.367-3.855,2.761-5.76,4.169c-1.512,1.117-1.808,2.197-1.085,3.684
			c0.85,1.746,1.894,2.235,3.75,1.732c0.435-0.116,0.857-0.279,1.29-0.407c2.372-0.708,3.251-0.345,4.928,1.528
			c1.699,1.902,3.434,3.803,5.366,5.456c5.612,4.808,11.794,5.835,18.676,2.746c7.647-3.437,11.945-9.952,11.498-17.98
			C940.776,1585.235,939.36,1581.17,937.45,1577.217"/>
		<path fill="#182C45" d="M880.332,1618.935c-6.554,3.389-14.195,0.919-17.6-5.691c-3.398-6.592-0.964-14.285,5.584-17.653
			c6.494-3.339,14.123-0.861,17.525,5.695C889.282,1607.907,886.898,1615.536,880.332,1618.935 M868.942,1610.1
			c1.678,3.216,5.072,4.327,8.219,2.695c3.143-1.633,4.192-5.051,2.539-8.274c-1.683-3.28-5.057-4.373-8.286-2.686
			C868.259,1603.485,867.25,1606.853,868.942,1610.1"/>
	</g>
	<g>
		<path fill="#182C45" d="M104.047,1272.447c-0.139-0.163-0.264-0.333-0.416-0.479c-4.268-4.063-3.231-10.897,2.102-13.452
			c8.597-4.124,17.213-8.223,25.852-12.261c3.794-1.777,7.093-4.119,9.552-7.539c0.773-1.073,1.428-2.225,2.091-3.366
			c2.156-3.712,4.285-7.43,6.42-11.153c1.541-2.684,0.933-5.351-1.621-7.101c-1.25-0.856-1.637-2.264-0.946-3.436
			c0.719-1.221,2.197-1.567,3.556-0.787c4.744,2.717,9.482,5.448,14.222,8.175c0.338,0.194,0.677,0.388,1.083,0.623
			c1.121-3.805,3.513-6.042,7.49-6.067c3.093-0.023,5.386,1.519,6.722,4.323c1.391,2.933,0.796,5.706-1.86,8.852
			c1.361,0.784,2.707,1.559,4.051,2.332c0.897,0.516,1.807,1.02,2.693,1.554c1.258,0.763,1.677,2.223,1.002,3.421
			c-0.651,1.156-2.069,1.557-3.352,0.948c-2.941-1.4-5.473-0.611-7.094,2.211c-2.264,3.934-4.483,7.896-6.803,11.795
			c-2.611,4.39-3.624,9.094-3.182,14.17c0.825,9.466,1.433,18.953,2.435,28.401c0.704,6.617-5.234,11.297-10.978,9.218
			c-0.064-0.023-0.142-0.001-0.213,0.001C139.253,1292.703,121.647,1282.576,104.047,1272.447 M132.841,1283.27v-0.003
			c8.336,4.796,16.674,9.587,25.006,14.391c1.238,0.718,2.486,0.954,3.739,0.151c1.24-0.797,1.595-1.993,1.469-3.435
			c-0.512-5.802-0.989-11.607-1.452-17.412c-0.051-0.643-0.236-0.964-0.886-1.224c-5.952-2.375-11.135-5.847-14.964-11.068
			c-4.227-5.762-9.941-9.207-16.714-11.072c-0.467-0.13-1.088-0.086-1.522,0.118c-6.501,3.05-12.986,6.134-19.463,9.24
			c-0.528,0.254-1.059,0.642-1.403,1.104c-1.283,1.739-0.714,3.726,1.368,4.924C116.29,1273.752,124.566,1278.51,132.841,1283.27
			 M173.947,1232.059c-5.816-3.345-11.5-6.617-17.313-9.96c-0.234,0.4-0.442,0.765-0.651,1.126
			c-3.032,5.266-6.067,10.527-9.09,15.796c-2.666,4.639-6.362,8.209-11.089,10.711c-0.241,0.128-0.473,0.276-0.721,0.422
			c0.097,0.113,0.129,0.187,0.185,0.214c0.608,0.3,1.226,0.586,1.832,0.887c4.636,2.298,8.83,5.215,11.871,9.442
			c2.964,4.118,6.776,7.092,11.214,9.386c0.228,0.117,0.485,0.18,0.849,0.313c-0.16-1.931-0.315-3.707-0.45-5.485
			c-0.384-5.177,0.48-10.136,2.994-14.691c3.12-5.664,6.403-11.237,9.618-16.849
			C173.438,1232.944,173.683,1232.519,173.947,1232.059 M171.222,1221.834c-0.698,1.225-0.272,2.749,0.958,3.416
			c1.165,0.632,2.707,0.189,3.354-0.961c0.693-1.224,0.253-2.721-0.99-3.408C173.326,1220.215,171.911,1220.618,171.222,1221.834"/>
		<path fill="#182C45" d="M192.846,1196.821c0.2,0.24,0.389,0.493,0.6,0.723c2.491,2.721,2.707,6.904,0.491,9.644
			c-2.461,3.045-6.576,3.848-9.808,1.911c-3.17-1.898-4.479-5.901-3.063-9.353c1.381-3.356,5.117-5.222,8.728-4.361
			c0.269,0.063,0.546,0.102,0.821,0.151C191.358,1195.966,192.104,1196.393,192.846,1196.821 M186.606,1204.724
			c1.169,0.773,2.723,0.438,3.475-0.745c0.719-1.135,0.399-2.653-0.725-3.415c-1.105-0.751-2.75-0.398-3.494,0.755
			C185.142,1202.429,185.483,1203.98,186.606,1204.724"/>
		<path fill="#182C45" d="M174.331,1206.318c-2.085,3.619-6.603,4.831-10.22,2.742c-3.568-2.06-4.798-6.567-2.768-10.138
			c2.09-3.669,6.657-4.896,10.301-2.765C175.193,1198.229,176.382,1202.743,174.331,1206.318 M169.057,1200.442
			c-1.237-0.696-2.704-0.264-3.388,1.001c-0.648,1.198-0.222,2.645,0.976,3.321c1.18,0.67,2.664,0.264,3.348-0.907
			C170.707,1202.629,170.297,1201.139,169.057,1200.442"/>
		<path fill="#182C45" d="M146.572,1279.611c-0.683,1.202-2.237,1.629-3.421,0.943c-1.169-0.675-1.588-2.282-0.902-3.449
			c0.675-1.141,2.188-1.544,3.357-0.896C146.829,1276.889,147.261,1278.401,146.572,1279.611"/>
		<path fill="#182C45" d="M152.773,1288.936c-1.227-0.69-1.644-2.198-0.949-3.406c0.693-1.193,2.261-1.611,3.434-0.914
			c1.131,0.674,1.551,2.195,0.923,3.361C155.531,1289.186,153.991,1289.618,152.773,1288.936"/>
		<path fill="#182C45" d="M143.842,1269.37c-0.653,1.197-2.229,1.646-3.418,0.971c-1.189-0.674-1.621-2.247-0.94-3.431
			c0.668-1.16,2.151-1.575,3.338-0.929C144.061,1266.655,144.509,1268.146,143.842,1269.37"/>
		<path fill="#182C45" d="M125.533,1276.152c-1.217-0.703-1.603-2.19-0.89-3.414c0.684-1.179,2.132-1.573,3.322-0.91
			c1.238,0.693,1.662,2.17,0.973,3.389C128.253,1276.436,126.741,1276.851,125.533,1276.152"/>
		<path fill="#182C45" d="M132.993,1263.151c-0.674,1.215-2.213,1.648-3.405,0.958c-1.179-0.684-1.602-2.271-0.915-3.439
			c0.68-1.158,2.158-1.559,3.341-0.907C133.257,1260.444,133.681,1261.917,132.993,1263.151"/>
	</g>
	<g>
		<path fill="#182C45" d="M159.623,575.334c-2.516,2.283-4.965,4.463-7.338,6.721c-0.263,0.25-0.239,0.988-0.112,1.435
			c2.492,8.831,5.019,17.654,7.539,26.48c0.102,0.362,0.23,0.724,0.296,1.094c0.211,1.173-0.106,2.195-1.059,2.924
			c-0.984,0.76-2.117,0.919-3.198,0.275c-8.023-4.791-15.842-9.854-22.798-16.17c-5.225-4.748-6.382-10.379-4.18-16.848
			c0.889-2.614,2.065-5.132,3.134-7.746c-1.84-1.881-3.883-3.818-5.757-5.91c-7.755-8.64-13.14-18.703-17.359-29.437
			c-3.416-8.683-5.918-17.63-7.579-26.813c-0.081-0.457-0.161-0.913-0.208-1.372c-0.218-2.242,1.582-3.889,3.755-3.275
			c17.931,5.067,34.596,12.648,48.887,24.873c3.941,3.372,7.45,7.175,10.539,11.354c0.221,0.299,0.46,0.585,0.635,0.806
			c2.324-0.764,4.526-1.615,6.795-2.205c3.893-1.011,7.89-1.438,11.598,0.466c1.85,0.951,3.637,2.368,4.931,3.99
			c2.509,3.15,4.872,6.464,6.888,9.946c2.788,4.803,5.218,9.813,7.757,14.758c0.846,1.656,0.704,2.849-0.292,3.845
			c-1.119,1.114-2.364,1.006-3.732,0.465c-8.616-3.411-17.248-6.773-25.855-10.199c-0.871-0.345-1.427-0.267-2.105,0.372
			c-2.202,2.075-4.462,4.086-6.797,6.207c0.325,0.38,0.607,0.726,0.908,1.058c5.226,5.768,10.456,11.535,15.681,17.304
			c1.153,1.275,1.415,2.535,0.806,3.675c-1.008,1.886-3.362,2.185-4.879,0.548c-2.658-2.868-5.268-5.785-7.895-8.684
			C165.659,581.996,162.694,578.724,159.623,575.334 M107.708,513.808c0.071,0.436,0.121,0.838,0.206,1.231
			c2.029,9.241,4.891,18.207,8.777,26.842c6.434,14.304,15.612,26.285,29.154,34.601c2.233,1.369,2.212,1.404,4.121-0.316
			c0.405-0.367,0.808-0.737,1.212-1.103c1.482-1.35,2.966-2.698,4.488-4.084c-2.16-2.389-4.241-4.644-6.268-6.944
			c-1.178-1.334-1.067-3.077,0.159-4.182c1.209-1.091,2.983-0.99,4.192,0.259c0.586,0.604,1.131,1.243,1.697,1.869
			c1.517,1.673,3.03,3.342,4.585,5.06c2.572-2.332,5.029-4.556,7.449-6.753c-0.012-0.163,0-0.255-0.029-0.328
			c-0.166-0.387-0.339-0.772-0.517-1.151c-5.256-11.12-12.924-20.216-22.869-27.438c-7.985-5.794-16.644-10.342-25.79-13.965
			C114.878,516.061,111.354,515.04,107.708,513.808 M152.098,605.197c-0.019-0.368-0.002-0.497-0.035-0.612
			c-1.944-6.838-3.884-13.678-5.868-20.503c-0.123-0.418-0.547-0.821-0.93-1.077c-2.03-1.346-4.101-2.634-6.141-3.966
			c-0.789-0.516-1.541-1.092-2.603-1.849c-0.922,2.45-1.885,4.64-2.563,6.916c-0.996,3.341-0.391,6.368,2.148,8.953
			C140.796,597.839,146.373,601.417,152.098,605.197 M194.146,566.842c0.088-0.093,0.173-0.183,0.259-0.275
			c-1.925-3.4-3.748-6.864-5.806-10.181c-1.501-2.42-3.265-4.688-5.008-6.949c-1.102-1.429-2.594-2.398-4.419-2.715
			c-3.9-0.676-7.411,0.603-10.863,2.024c1.643,3.221,3.189,6.301,4.797,9.345c0.206,0.386,0.697,0.704,1.126,0.877
			c3.661,1.492,7.338,2.954,11.015,4.407C188.209,564.545,191.18,565.687,194.146,566.842"/>
		<path fill="#182C45" d="M184.973,612.382c-0.894,2.547-3.547,2.993-5.218,1.17c-3.013-3.282-5.991-6.597-8.981-9.898
			c-3.078-3.397-6.162-6.781-9.222-10.19c-1.064-1.186-1.181-2.503-0.427-3.709c0.626-0.999,1.89-1.58,3.063-1.232
			c0.612,0.183,1.256,0.553,1.683,1.02c6.096,6.669,12.156,13.372,18.23,20.063C184.928,610.519,185.25,611.541,184.973,612.382"/>
		<path fill="#182C45" d="M196.822,599.994c-0.223-0.179-0.766-0.514-1.179-0.966c-6.027-6.621-12.042-13.252-18.047-19.891
			c-1.328-1.466-1.337-3.209-0.079-4.372c1.297-1.194,3.087-1.031,4.441,0.46c6.022,6.626,12.032,13.258,18.042,19.899
			c1.124,1.243,1.268,2.576,0.476,3.8C199.76,600.028,198.422,600.503,196.822,599.994"/>
		<path fill="#182C45" d="M128.603,544.344c-2.897-0.983-4.171-4.045-3.063-7.364c0.961-2.883,4.107-4.194,7.369-3.076
			c2.874,0.984,4.184,4.132,3.073,7.383C134.997,544.171,131.888,545.458,128.603,544.344"/>
	</g>
	<g>
		<path fill="#182C45" d="M892.112,1334.53c-10.598,3.721-23.104-7.236-18.922-18.426c-3.155-1.251-5.969-3.051-8.37-5.481
			c-2.488-2.513-4.469-5.37-5.691-8.682c-1.43-3.882-0.79-7.665,0.919-11.318c0.34-0.728,0.766-1.417,1.221-2.248
			c-0.662-0.371-1.312-0.727-1.952-1.098c-4.837-2.822-9.435-5.975-12.458-10.824c-5.552-8.901-5.829-18.038-0.401-27.067
			c1.616-2.687,4.003-4.905,5.975-7.387c0.375-0.471,0.785-1.274,0.634-1.75c-3.183-10.061,3.064-25.107,18.762-26.255
			c4.925-0.362,9.661,0.514,14.283,2.16c0.426,0.153,0.856,0.304,1.286,0.45c0.038,0.013,0.093-0.02,0.111-0.025
			c0.506-1.322,0.982-2.644,1.515-3.94c4.393-10.738,11.972-17.517,23.806-18.634c7.788-0.737,14.208,2.39,19.48,7.977
			c0.922,0.979,1.782,1.31,3.12,1.269c9.523-0.28,16.101,6.571,16.794,15.742c0.085,1.092-0.139,2.208-0.232,3.479
			c5.003,2.127,8.818,5.697,10.889,10.945c2.057,5.214,1.594,10.497,0.158,15.752c12.383,4.486,18.161,18.528,15.221,31.72
			c-1.095,4.927-3.187,9.347-6.386,13.264c-0.373,0.459-0.639,1.297-0.499,1.845c2.21,8.654-1.692,17.776-9.575,22.3
			c-7.43,4.261-15.313,4.245-23.381,2.546c-0.445-0.093-0.879-0.232-1.321-0.345c-0.045-0.013-0.099,0.002,0.065-0.005
			c-1.656,2.709-3.003,5.507-4.884,7.883c-6.999,8.828-16.081,13.551-27.51,12.763c-2.699-0.186-5.476-1.116-7.931-2.299
			C895.096,1338.006,893.847,1336.171,892.112,1334.53 M927.959,1204.907c-0.378-0.393-0.606-0.655-0.859-0.893
			c-7.518-7.01-16.106-6.391-23.939-1.441c-6.441,4.071-9.563,10.348-10.957,17.625c-0.537,2.813-2.029,3.502-4.544,2.215
			c-5.147-2.639-10.595-4.056-16.396-3.232c-5.932,0.844-10.306,3.928-12.592,9.625c-2.296,5.72-1.496,11.069,2.374,15.782
			c1.876,2.288,4.238,4.167,6.363,6.25c3.497,3.427,6.574,7.138,7.952,11.973c1.216,4.27-0.4,8.873-3.837,10.928
			c-4.124,2.47-8.641,2.097-11.867-0.975c-1.619-1.541-1.903-3.178-0.76-4.369c1.206-1.257,2.649-1.053,4.298,0.602
			c0.106,0.109,0.221,0.209,0.328,0.312c1.462,1.345,3.064,1.04,4.666,0.362c1.581-0.672,2.507-1.782,2.437-3.621
			c-0.09-2.423-0.849-4.676-2.407-6.415c-4.079-4.555-8.356-8.936-12.742-13.586c-1.423,1.725-2.938,3.349-4.21,5.146
			c-5.076,7.15-4.998,15.804,0.189,22.904c3.401,4.66,8.102,7.676,13.224,10.096c0.395,0.189,1.023-0.06,1.531-0.164
			c1.861-0.383,3.701-0.967,5.579-1.135c1.682-0.149,2.749,1.045,2.737,2.563c-0.012,1.515-1.103,2.613-2.789,2.535
			c-5.637-0.257-9.724,5.401-8.226,10.6c1.855,6.45,5.934,10.928,12.469,12.921c0.527,0.159,1.194,0.073,1.744-0.088
			c3.766-1.106,7.461,0.005,9.93,3.028c0.171,0.202,0.441,0.327,0.936,0.683c0.086-0.977,0.186-1.697,0.209-2.42
			c0.337-10.452,7.282-18.694,17.512-20.812c1.135-0.235,2.113-0.144,2.888,0.775c1.352,1.604,0.539,3.674-1.685,4.225
			c-7.909,1.956-13.622,7.465-13.584,16.431c0.007,1.931-0.69,3.668-2.044,5.086c-2.399,2.516-5.441,2.472-7.735-0.103
			c-0.335-0.378-0.627-0.791-0.951-1.184c-1.384-1.672-3.172-1.715-4.656-0.09c-1.317,1.438-1.506,3.178-1.082,4.968
			c1.413,5.958,7.46,9.303,13.292,7.465c1.047-0.33,1.687-0.824,2.16-1.853c0.728-1.584,2.875-2.01,3.908-0.723
			c0.561,0.702,0.869,1.981,0.664,2.855c-0.67,2.883-0.423,3.699,2.256,4.85c1.015,0.438,2.07,0.838,3.15,1.082
			c7.729,1.747,14.521-0.401,20.497-5.29c4.175-3.414,7.455-7.568,8.769-12.947c0.77-3.153,1.798-3.623,4.816-2.56
			c7.87,2.775,15.639,2.835,23.081-1.471c6.198-3.587,9.777-14.52,3.362-21.22c-1.883-1.967-3.888-3.817-5.902-5.652
			c-3.877-3.538-4.613-9.96-1.576-14.258c0.891-1.261,2.366-1.617,3.58-0.868c1.143,0.71,1.5,2.147,0.866,3.467
			c-0.413,0.864-0.919,1.699-1.208,2.601c-0.469,1.473-0.395,2.973,0.76,4.114c2.813,2.789,5.705,5.502,8.608,8.288
			c0.128-0.138,0.304-0.309,0.453-0.503c6.212-8.099,6.534-20.467,0.752-28.894c-4.272-6.226-11.713-8.624-18.7-6.023
			c-7.262,2.701-11.275,9.102-10.467,16.734c0.574,5.423,3.094,9.989,6.431,14.145c2.254,2.812,2.168,3.776-0.839,5.736
			c-0.295,0.194-0.574,0.413-0.869,0.609c-3.016,2-4.129,4.686-3.059,8.229c0.242,0.806,0.33,1.695,0.304,2.54
			c-0.05,1.473-1.153,2.485-2.536,2.492c-1.32,0.01-2.334-0.909-2.568-2.301c-0.081-0.493-0.133-1.005-0.315-1.463
			c-1.712-4.364-0.707-8.115,2.533-11.365c0.77-0.775,1.582-1.508,2.204-2.095c-1.564-2.961-3.21-5.697-4.499-8.59
			c-2.178-4.9-2.669-10.033-1.32-15.261c2.349-9.114,10.532-15.352,20.404-15.53c1.125-0.022,1.594-0.352,1.873-1.412
			c0.919-3.49,1.136-6.96,0.163-10.474c-1.407-5.074-6.29-9.419-10.928-9.678c-7.335-0.41-13.198,4.303-14.357,11.544
			c-0.25,1.541-1.115,2.391-2.642,2.391c-5.27-0.002-8.88,2.694-11.313,7.101c-2.626,4.756-1.325,9.694,3.17,12.727
			c4.074,2.745,4.693,4.857,3.163,9.54c-0.584,1.793-0.831,3.724-0.998,5.615c-0.164,1.833-0.936,2.959-2.492,3.034
			c-1.571,0.073-2.865-1.108-2.669-2.943c0.275-2.634,0.813-5.255,1.445-7.833c0.323-1.324,0.39-2.092-0.979-2.954
			c-6.695-4.225-8.91-11.555-5.607-18.743c2.53-5.502,6.783-9.066,12.79-10.419c0.523-0.119,1.229-0.574,1.375-1.03
			c2.586-7.997,8.438-11.874,16.394-13.105c1.936-0.299,2.555-0.913,2.458-2.838c-0.29-5.617-5.672-10.816-11.275-10.638
			c-6.69,0.211-11.826,4.371-13.289,10.587c-0.345,1.468-0.408,2.999-0.62,4.499c-0.488,3.417-1.976,6.28-5.295,7.564
			c-2.218,0.861-4.645,1.266-7.018,1.607c-1.568,0.226-2.677-0.935-2.744-2.375c-0.071-1.536,0.919-2.566,2.618-2.722
			c0.907-0.085,1.823-0.096,2.715-0.247c3.049-0.514,4.443-1.982,4.665-5.059C917.603,1214.472,920.861,1208.576,927.959,1204.907"
			/>
		<path fill="#182C45" d="M894.316,1240.766c-1.657,1.048-2.943,2.283-4.461,2.717c-1.727,0.494-3.678,0.499-5.492,0.317
			c-3.442-0.345-4.364,0.066-5.683,3.273c-0.647,1.574-1.942,2.243-3.359,1.737c-1.425-0.508-2.002-1.84-1.513-3.474
			c1.437-4.794,4.804-7.131,9.779-6.763c0.854,0.063,1.7,0.229,2.551,0.327c1.763,0.202,3.651-0.819,4.34-2.419
			c0.119-0.277,0.03-0.783-0.164-1.018c-0.479-0.579-1.055-1.082-1.622-1.584c-1.435-1.261-1.709-2.774-0.69-3.953
			c1.03-1.191,2.561-1.196,4.046,0.033c2.976,2.46,5.245,5.54,6.806,8.996c3.352,7.405,6.554,14.881,9.578,22.427
			c3.681,9.195,6.916,18.567,11.854,27.22c3.273,5.733,7.299,10.892,11.456,15.981c0.596,0.727,0.972,1.936,0.848,2.84
			c-0.091,0.668-1.098,1.571-1.815,1.694c-0.79,0.138-2.01-0.236-2.53-0.831c-4.558-5.215-8.767-10.696-12.231-16.726
			c-5.209-9.076-8.802-18.849-12.465-28.597c-0.23-0.615-0.476-1.226-0.728-1.831c-0.075-0.176-0.209-0.327-0.393-0.607
			c-2.611,2.352-5.633,3.037-9.018,2.631c-1.959-0.234-3.132,0.934-4.048,2.595c-0.445,0.804-1.252,1.674-2.077,1.923
			c-0.675,0.204-1.913-0.245-2.357-0.823c-0.486-0.627-0.665-1.84-0.418-2.621c1.304-4.146,4.804-6.496,9.475-6.222
			c2.412,0.141,4.412-0.279,5.894-2.249c0.259-0.343,0.486-0.972,0.345-1.309C898.284,1249.847,896.274,1245.273,894.316,1240.766"
			/>
		<path fill="#182C45" d="M909.699,1305.766c3.364-1.529,6.737-1.072,9.308,1.309c1.259,1.165,1.427,2.779,0.41,3.887
			c-1.017,1.108-2.46,1.126-3.787,0.051c-1.997-1.613-3.975-1.485-5.056,0.315c-0.607,1.007-0.667,1.967,0.043,2.966
			c0.73,1.03,1.448,2.074,2.074,3.165c1.787,3.117,1.617,6.28,0.053,9.421c-0.742,1.488-2.188,1.999-3.535,1.332
			c-1.266-0.625-1.874-2.123-1.12-3.479c1.352-2.432,0.645-4.356-0.937-6.367c-3.314-4.207-2.978-8.464,0.77-11.458
			C908.466,1306.471,909.101,1306.145,909.699,1305.766"/>
		<path fill="#182C45" d="M886.934,1289.883c1.214,2.311,2.171,4.741,1.768,7.384c-0.139,0.917-0.803,2.024-1.566,2.52
			c-1.508,0.98-3.729-0.315-3.535-2.092c0.274-2.508-0.715-4.522-1.795-6.59c-1.694-3.248-1.163-7.309,1.269-10.034
			c3.351-3.752,10.746-2.905,13.161,1.51c0.677,1.234,0.347,2.742-0.768,3.505c-1.151,0.79-2.664,0.474-3.613-0.747
			c-1.447-1.874-2.395-2.198-4.063-1.393c-2.118,1.02-2.591,2.447-1.516,4.57C886.508,1288.967,886.717,1289.427,886.934,1289.883"
			/>
	</g>
	<g>
		<path fill="#182C45" d="M480.243,1738.547c-2.076-3.576-4.089-7.055-6.105-10.532c-1.271-2.191-0.884-3.469,1.383-4.711
			c17.943-9.82,36.357-9.969,55.138-2.705c0.494,0.193,0.994,0.375,1.429,0.538c0.781-3.649,1.375-7.221,2.318-10.703
			c3.893-14.33,11.648-26.061,23.792-34.758c1.451-1.042,2.967-1.992,4.5-2.913c1.714-1.031,3.128-0.651,4.142,1.076
			c1.936,3.296,3.867,6.596,5.742,9.925c0.452,0.808,0.913,0.98,1.781,0.728c2.713-0.79,5.435-1.54,8.172-2.233
			c1.883-0.475,3.282,0.156,4.265,1.844c13.193,22.762,26.38,45.527,39.564,68.299c1.318,2.276,0.687,3.722-1.933,4.292
			c-5.062,1.097-9.98,2.618-14.641,4.878c-13.687,6.645-24.67,16.287-32.439,29.457c-0.522,0.889-0.839,1.982-1.56,2.649
			c-1.069,0.992-2.341,1.537-4.016,1.464c-9.257-0.41-18.135,1.548-26.74,4.821c-10.796,4.107-20.218,10.249-27.883,18.984
			c-1.407,1.61-2.993,1.361-4.067-0.501c-12.74-22.103-25.483-44.205-38.231-66.307c-0.198-0.34-0.39-0.714-0.686-0.959
			c-1.743-1.441-2.115-3.065-0.71-4.822c1.946-2.429,4.101-4.695,6.164-7.03C479.818,1739.106,479.99,1738.866,480.243,1738.547
			 M479.808,1727.502c12.016,20.726,23.97,41.353,35.985,62.077c7.948-3.978,16.28-6.331,25.112-6.78
			c8.802-0.449,17.322,1.045,26.023,4.125c-0.537-0.93-0.831-1.434-1.124-1.938c-10.651-18.376-21.323-36.738-31.928-55.147
			c-0.948-1.647-2.1-2.672-3.875-3.356c-12.517-4.83-25.272-6.684-38.491-3.418C487.462,1724.067,483.566,1725.47,479.808,1727.502
			 M563.719,1678.599c-2.471,1.971-4.856,3.671-7.005,5.623c-11.635,10.567-17.412,23.989-18.966,39.415
			c-0.066,0.668,0.176,1.469,0.522,2.069c10.83,18.741,21.693,37.468,32.549,56.197c0.238,0.409,0.474,0.817,0.762,1.311
			c1.091-3.733,1.984-7.338,3.2-10.828c4.526-12.992,12.288-23.582,23.742-31.334c1.081-0.731,0.66-1.288,0.221-2.047
			c-10.24-17.65-20.476-35.309-30.71-52.961C566.67,1683.686,565.306,1681.331,563.719,1678.599 M620.317,1752.058
			c-0.506-0.87-0.904-1.556-1.296-2.239c-4.78-8.247-9.563-16.491-14.348-24.734c-6.896-11.899-13.787-23.797-20.707-35.682
			c-0.264-0.453-0.846-1.134-1.17-1.08c-2.177,0.36-4.323,0.888-6.729,1.418c0.434,0.748,0.698,1.208,0.967,1.667
			c9.211,15.891,18.424,31.784,27.639,47.673c1.503,2.596,1.322,3.357-1.257,4.902c-10.301,6.164-17.733,14.85-22.427,25.843
			c-1.488,3.488-2.564,7.153-3.829,10.739c0.146,0.085,0.291,0.171,0.437,0.256C588.771,1766.79,602.731,1756.899,620.317,1752.058
			 M558.971,1790.277c-0.529-0.183-0.71-0.266-0.898-0.308c-14.253-3.209-27.897-1.756-40.781,5.395
			c-2.361,1.312-3.53,1.011-4.872-1.303c-9.46-16.324-18.924-32.649-28.383-48.975c-0.287-0.497-0.575-0.99-0.965-1.663
			c-1.254,1.437-2.307,2.743-3.471,3.944c-0.801,0.825-0.762,1.49-0.202,2.463c11.861,20.389,23.684,40.799,35.512,61.203
			c0.265,0.456,0.528,0.912,0.873,1.507C527.658,1800.208,542.158,1793.418,558.971,1790.277"/>
		<path fill="#182C45" d="M527.706,1738.112c-0.764,0.057-1.557,0.281-2.287,0.146c-7.762-1.442-15.484-1.46-23.157,0.548
			c-1.364,0.356-2.586-0.013-3.27-1.135c-0.386-0.633-0.325-1.686-0.138-2.469c0.118-0.494,0.774-1.05,1.307-1.226
			c8.865-2.936,17.844-2.837,26.869-0.848c1.089,0.238,1.93,0.821,2.027,2.065C529.152,1736.366,528.919,1737.38,527.706,1738.112"
			/>
		<path fill="#182C45" d="M547.807,1772.773c-0.805,0.041-1.641,0.246-2.41,0.095c-7.748-1.509-15.44-1.522-23.096,0.594
			c-2.182,0.599-3.741-0.478-3.812-2.446c-0.046-1.315,0.514-2.088,1.823-2.496c8.277-2.596,16.65-2.736,25.106-1.115
			c0.537,0.104,1.064,0.272,1.606,0.313c1.242,0.097,1.893,0.809,2.058,1.962C549.254,1770.868,549.156,1771.991,547.807,1772.773"
			/>
		<path fill="#182C45" d="M541.084,1761.212c-0.805,0.046-1.645,0.265-2.41,0.115c-7.764-1.54-15.458-1.471-23.151,0.544
			c-0.939,0.244-2.358-0.127-3.098-0.756c-0.505-0.428-0.391-1.831-0.21-2.726c0.11-0.532,0.813-1.164,1.379-1.348
			c8.972-2.94,18.052-2.745,27.174-0.793c1.091,0.233,1.521,1.027,1.637,2.046C542.54,1759.459,542.363,1760.489,541.084,1761.212"
			/>
		<path fill="#182C45" d="M534.358,1749.663c-0.802,0.046-1.643,0.26-2.406,0.108c-7.707-1.538-15.362-1.494-22.972,0.566
			c-1.358,0.369-2.595,0.034-3.266-1.097c-0.398-0.67-0.29-1.756-0.123-2.601c0.089-0.447,0.724-0.962,1.215-1.126
			c9.015-2.971,18.143-2.797,27.284-0.75c0.645,0.146,1.327,1.136,1.557,1.874C536.003,1747.791,535.689,1748.911,534.358,1749.663"
			/>
		<path fill="#182C45" d="M563.126,1700.33c0.595,1.326,0.605,2.38-0.61,3.569c-5.637,5.524-9.114,12.411-11.937,19.661
			c-0.568,1.457-1.49,2.109-2.981,2.205c-1.645,0.111-2.674-0.852-2.534-2.481c0.032-0.34,0.112-0.685,0.219-1.011
			c2.759-8.593,7.043-16.243,13.764-22.402C560.515,1698.524,562.305,1698.712,563.126,1700.33"/>
		<path fill="#182C45" d="M564.772,1758.293c0.01-0.265-0.093-0.877,0.074-1.402c2.803-8.727,7.053-16.584,13.889-22.88
			c1.392-1.28,2.483-1.507,3.491-0.566c1.203,1.128,1.3,3.251,0.164,4.374c-5.507,5.434-9.377,11.878-11.869,19.178
			c-0.114,0.326-0.281,0.652-0.304,0.99c-0.08,1.046-0.241,2.017-1.488,2.262C567.487,1760.496,565.496,1759.612,564.772,1758.293"
			/>
		<path fill="#182C45" d="M555.884,1737.334c-1.243-0.29-2.601-0.277-3.48-0.919c-0.622-0.455-0.947-1.858-0.79-2.729
			c0.279-1.587,0.965-3.115,1.565-4.634c2.748-6.965,6.71-13.114,12.263-18.189c1.137-1.045,2.656-1.179,3.581-0.269
			c1.057,1.036,1.058,3.1-0.019,4.148c-5.534,5.4-9.352,11.867-11.863,19.137c-0.191,0.557-0.226,1.166-0.415,1.726
			C556.561,1736.091,556.28,1736.535,555.884,1737.334"/>
		<path fill="#182C45" d="M576.057,1722.646c0.805,1.452,0.606,2.679-0.589,3.866c-5.529,5.481-9.324,12.025-11.79,19.374
			c-0.065,0.185-0.128,0.375-0.169,0.571c-0.469,2.292-1.072,2.628-3.552,1.97c-1.611-0.427-2.214-1.726-1.652-3.481
			c2.759-8.649,7.068-16.346,13.825-22.546C573.481,1721.156,575.293,1721.256,576.057,1722.646"/>
	</g>
	<g>
		<path fill="#182C45" d="M832.227,268.063c-2.076-3.576-4.089-7.055-6.105-10.532c-1.271-2.191-0.884-3.469,1.383-4.711
			c17.943-9.82,36.357-9.969,55.138-2.705c0.494,0.193,0.995,0.375,1.429,0.539c0.781-3.649,1.375-7.221,2.318-10.703
			c3.893-14.33,11.648-26.061,23.792-34.758c1.451-1.042,2.967-1.992,4.5-2.913c1.714-1.031,3.128-0.651,4.142,1.076
			c1.936,3.296,3.867,6.596,5.742,9.925c0.452,0.808,0.913,0.98,1.781,0.728c2.713-0.79,5.435-1.54,8.172-2.233
			c1.883-0.475,3.283,0.156,4.265,1.844c13.193,22.762,26.38,45.527,39.564,68.299c1.318,2.276,0.687,3.722-1.933,4.292
			c-5.062,1.097-9.98,2.618-14.641,4.878c-13.687,6.645-24.67,16.287-32.439,29.457c-0.522,0.889-0.839,1.982-1.56,2.649
			c-1.069,0.992-2.341,1.537-4.016,1.464c-9.257-0.41-18.135,1.548-26.74,4.821c-10.796,4.106-20.218,10.249-27.883,18.984
			c-1.407,1.61-2.993,1.361-4.067-0.501c-12.74-22.103-25.483-44.205-38.231-66.307c-0.198-0.34-0.39-0.714-0.686-0.959
			c-1.743-1.441-2.115-3.065-0.71-4.822c1.946-2.429,4.101-4.695,6.164-7.03C831.802,268.621,831.974,268.382,832.227,268.063
			 M831.792,257.018c12.016,20.726,23.97,41.353,35.985,62.077c7.948-3.978,16.28-6.331,25.112-6.78
			c8.802-0.449,17.322,1.045,26.023,4.125c-0.537-0.93-0.831-1.434-1.124-1.938c-10.651-18.376-21.323-36.738-31.928-55.147
			c-0.948-1.647-2.1-2.672-3.875-3.356c-12.517-4.83-25.272-6.684-38.491-3.418C839.446,253.582,835.55,254.985,831.792,257.018
			 M915.703,208.115c-2.471,1.971-4.856,3.671-7.005,5.623c-11.635,10.567-17.412,23.989-18.966,39.415
			c-0.066,0.668,0.176,1.469,0.522,2.069c10.83,18.741,21.693,37.468,32.549,56.197c0.238,0.409,0.474,0.817,0.762,1.311
			c1.091-3.733,1.984-7.338,3.2-10.828c4.526-12.992,12.288-23.582,23.742-31.334c1.081-0.731,0.66-1.288,0.221-2.047
			c-10.24-17.65-20.476-35.309-30.71-52.961C918.654,213.202,917.29,210.847,915.703,208.115 M972.301,281.574
			c-0.506-0.87-0.904-1.556-1.296-2.239c-4.78-8.247-9.563-16.491-14.348-24.734c-6.896-11.899-13.787-23.797-20.707-35.682
			c-0.264-0.453-0.846-1.134-1.17-1.08c-2.177,0.36-4.323,0.888-6.729,1.418c0.434,0.748,0.698,1.208,0.967,1.667
			c9.211,15.891,18.424,31.784,27.638,47.673c1.503,2.596,1.322,3.357-1.257,4.902c-10.301,6.164-17.733,14.85-22.427,25.843
			c-1.488,3.488-2.564,7.154-3.829,10.739c0.146,0.085,0.291,0.171,0.437,0.256C940.755,296.306,954.715,286.415,972.301,281.574
			 M910.955,319.793c-0.529-0.183-0.71-0.267-0.898-0.309c-14.253-3.209-27.897-1.756-40.781,5.395
			c-2.361,1.312-3.53,1.011-4.872-1.303c-9.46-16.324-18.924-32.649-28.383-48.975c-0.287-0.497-0.575-0.99-0.965-1.663
			c-1.254,1.437-2.307,2.743-3.471,3.944c-0.801,0.825-0.762,1.49-0.202,2.463c11.861,20.389,23.684,40.8,35.512,61.203
			c0.265,0.456,0.528,0.912,0.873,1.507C879.642,329.723,894.142,322.934,910.955,319.793"/>
		<path fill="#182C45" d="M879.691,267.628c-0.764,0.057-1.557,0.281-2.287,0.146c-7.762-1.442-15.484-1.46-23.157,0.548
			c-1.364,0.356-2.586-0.014-3.27-1.135c-0.386-0.633-0.325-1.686-0.138-2.469c0.118-0.494,0.774-1.05,1.307-1.226
			c8.865-2.936,17.844-2.837,26.869-0.848c1.089,0.238,1.929,0.821,2.027,2.065C881.136,265.881,880.903,266.896,879.691,267.628"/>
		<path fill="#182C45" d="M899.791,302.289c-0.805,0.041-1.641,0.246-2.41,0.095c-7.747-1.509-15.44-1.522-23.096,0.594
			c-2.182,0.599-3.741-0.478-3.812-2.446c-0.046-1.315,0.514-2.088,1.823-2.496c8.277-2.596,16.65-2.736,25.106-1.115
			c0.537,0.104,1.064,0.272,1.606,0.313c1.242,0.097,1.893,0.809,2.058,1.962C901.238,300.384,901.14,301.507,899.791,302.289"/>
		<path fill="#182C45" d="M893.068,290.727c-0.805,0.046-1.645,0.265-2.41,0.115c-7.764-1.54-15.458-1.471-23.15,0.544
			c-0.939,0.244-2.358-0.127-3.098-0.756c-0.505-0.428-0.391-1.831-0.21-2.726c0.11-0.532,0.813-1.164,1.379-1.348
			c8.972-2.94,18.052-2.745,27.174-0.793c1.091,0.233,1.521,1.027,1.637,2.046C894.524,288.975,894.347,290.005,893.068,290.727"/>
		<path fill="#182C45" d="M886.342,279.179c-0.802,0.046-1.643,0.26-2.406,0.108c-7.707-1.538-15.362-1.494-22.972,0.566
			c-1.358,0.369-2.595,0.034-3.266-1.097c-0.398-0.67-0.29-1.756-0.123-2.601c0.089-0.447,0.724-0.962,1.215-1.126
			c9.015-2.971,18.143-2.797,27.284-0.75c0.645,0.146,1.327,1.137,1.557,1.874C887.987,277.306,887.673,278.427,886.342,279.179"/>
		<path fill="#182C45" d="M915.11,229.846c0.595,1.326,0.605,2.38-0.61,3.569c-5.637,5.524-9.114,12.411-11.937,19.661
			c-0.568,1.457-1.49,2.109-2.981,2.205c-1.645,0.111-2.674-0.852-2.534-2.481c0.032-0.34,0.112-0.685,0.219-1.011
			c2.759-8.593,7.043-16.243,13.764-22.402C912.499,228.04,914.289,228.228,915.11,229.846"/>
		<path fill="#182C45" d="M916.756,287.809c0.009-0.265-0.093-0.877,0.074-1.402c2.804-8.727,7.053-16.584,13.889-22.88
			c1.392-1.28,2.483-1.507,3.491-0.566c1.203,1.128,1.3,3.251,0.164,4.374c-5.507,5.434-9.377,11.878-11.869,19.178
			c-0.114,0.326-0.281,0.652-0.304,0.99c-0.08,1.046-0.241,2.017-1.488,2.262C919.471,290.012,917.48,289.128,916.756,287.809"/>
		<path fill="#182C45" d="M907.868,266.85c-1.243-0.29-2.601-0.277-3.48-0.919c-0.622-0.455-0.947-1.858-0.79-2.729
			c0.279-1.587,0.965-3.115,1.565-4.634c2.748-6.965,6.71-13.114,12.263-18.189c1.137-1.045,2.656-1.178,3.581-0.269
			c1.057,1.036,1.058,3.1-0.019,4.148c-5.534,5.4-9.352,11.868-11.863,19.137c-0.191,0.557-0.226,1.166-0.415,1.726
			C908.545,265.607,908.264,266.051,907.868,266.85"/>
		<path fill="#182C45" d="M928.041,252.162c0.805,1.452,0.606,2.679-0.589,3.866c-5.529,5.481-9.324,12.024-11.79,19.374
			c-0.065,0.185-0.128,0.375-0.169,0.571c-0.469,2.292-1.072,2.628-3.552,1.97c-1.611-0.428-2.214-1.726-1.652-3.481
			c2.759-8.649,7.068-16.346,13.825-22.546C925.465,250.672,927.277,250.772,928.041,252.162"/>
	</g>
	<g>
		<path fill="#182C45" d="M845.395,599.929c-0.233-1.135-0.58-2.26-0.68-3.407c-0.607-6.854,1.71-12.375,7.516-16.295
			c0.373-0.25,0.685-0.825,0.725-1.273c0.23-2.494,2.6-3.816,4.667-2.454c0.678,0.445,1.135,0.41,1.735,0.037
			c0.397-0.248,0.818-0.46,1.245-0.652c0.993-0.452,1.717-0.88,1.758-2.285c0.052-1.827,2.169-2.982,3.877-2.219
			c0.984,0.44,1.487,0.188,2.162-0.468c5.762-5.597,9.318-12.51,11.753-20.029c4.084-12.612,12.171-21.581,24.353-26.687
			c12.152-5.097,24.271-4.751,35.894,1.58c23.005,12.53,30.404,44.402,11.383,64.874c-12.203,13.135-27.365,17.109-44.709,12.028
			c-6.341-1.857-12.771-2.914-19.406-2.35c-0.779,0.067-1.337,0.22-1.799,0.992c-0.742,1.245-2.424,1.795-3.552,0.995
			c-1.292-0.914-2.259-0.4-3.345,0.143c-0.585,0.288-1.162,0.6-1.815,0.94c0.34,1.633-0.007,3.029-1.58,3.802
			c-1.474,0.723-2.727,0.178-3.836-0.93c-1.253,0.652-2.49,1.295-3.619,1.879c-0.14,0.897-0.107,1.777-0.427,2.504
			c-0.887,1.995-3.7,2.3-4.987,0.482c-0.697-0.984-1.44-1.205-2.55-1.263c-5.177-0.277-9.479-2.342-12.698-6.494
			c-0.137-0.178-0.339-0.303-0.51-0.454C846.434,601.926,845.915,600.929,845.395,599.929 M870.793,576.772
			c4.209,5.867,8.311,11.62,12.473,17.33c0.267,0.367,1.012,0.628,1.484,0.563c8.626-1.173,16.974,0.127,25.23,2.59
			c10.955,3.269,21.343,2.015,30.867-4.446c17.162-11.633,21.177-35.856,8.341-52.13c-8.843-11.206-20.884-15.725-34.911-13.475
			c-13.863,2.22-23.126,10.626-27.748,23.781C883.11,560.716,878.766,569.741,870.793,576.772 M861.966,582.019
			c0.288,0.46,0.51,0.862,0.775,1.23c2.889,4.027,5.776,8.053,8.679,12.072c0.732,1.012,1.398,2.639,2.314,2.807
			c1.03,0.193,2.309-0.94,3.477-1.502c0.075-0.037,0.12-0.14,0.23-0.27c-3.877-5.412-7.763-10.835-11.683-16.307
			C864.514,580.694,863.364,581.294,861.966,582.019 M853,587.066c0.155,0.345,0.205,0.528,0.308,0.672
			c3.55,4.984,7.099,9.968,10.68,14.93c0.162,0.223,0.683,0.43,0.898,0.333c1.127-0.505,2.209-1.11,3.394-1.727
			c-4.002-5.582-7.879-10.993-11.866-16.555C855.188,585.558,854.1,586.311,853,587.066 M850.463,594.104
			c-0.208,3.964,3.162,8.651,6.729,9.423C854.937,600.369,852.78,597.349,850.463,594.104"/>
		<path fill="#182C45" d="M974.316,535.765c0.085,1.865-0.82,3.044-2.485,3.799c-1.318,0.595-2.567,1.337-3.862,1.979
			c-1.725,0.857-3.424,0.404-4.242-1.093c-0.867-1.58-0.32-3.259,1.43-4.234c1.262-0.703,2.59-1.292,3.834-2.03
			c1.562-0.923,3.05-1.029,4.547,0.083C973.796,534.767,974.056,535.267,974.316,535.765"/>
		<path fill="#182C45" d="M938.128,516.284c-1.47,0.798-2.549,0.738-3.552,0.027c-1.057-0.755-1.509-1.845-1.159-3.082
			c0.648-2.3,1.35-4.589,2.16-6.834c0.563-1.559,2.164-2.227,3.677-1.733c1.47,0.482,2.394,2.03,1.962,3.579
			c-0.633,2.252-1.349,4.489-2.13,6.696C938.872,515.551,938.305,516.043,938.128,516.284"/>
		<path fill="#182C45" d="M863.386,546.925c-0.752-1.487-0.639-2.56,0.08-3.547c0.737-1.007,1.81-1.417,2.979-1.095
			c2.16,0.597,4.314,1.265,6.417,2.039c1.442,0.528,2.099,2.157,1.655,3.595c-0.477,1.537-1.925,2.444-3.522,2.007
			c-2.12-0.577-4.217-1.255-6.284-1.997C864.099,547.706,863.624,547.111,863.386,546.925"/>
		<path fill="#182C45" d="M900.664,618.632c0.005-0.382-0.14-1.19,0.05-1.912c0.49-1.855,1.102-3.68,1.717-5.499
			c0.597-1.767,2.245-2.619,3.867-2.069c1.594,0.55,2.357,2.09,1.835,3.864c-0.557,1.885-1.149,3.764-1.782,5.626
			c-0.413,1.217-1.303,1.928-2.609,2.013C902.445,620.739,901.487,620.173,900.664,618.632"/>
		<path fill="#182C45" d="M969.382,575.366c0.417,0.007,1.268-0.128,2.035,0.07c1.812,0.468,3.589,1.073,5.362,1.672
			c1.717,0.578,2.574,2.144,2.11,3.734c-0.485,1.665-2.095,2.504-3.91,1.965c-1.884-0.56-3.762-1.15-5.619-1.79
			c-1.223-0.423-1.905-1.36-1.955-2.654C967.358,577.147,967.888,576.193,969.382,575.366"/>
		<path fill="#182C45" d="M943.142,611.797c-0.43-0.827-0.89-1.644-1.285-2.487c-0.71-1.514-0.145-3.236,1.27-3.979
			c1.412-0.747,3.174-0.25,3.987,1.215c0.95,1.714,1.86,3.452,2.705,5.221c0.688,1.437,0.06,3.119-1.32,3.836
			c-1.387,0.725-3.092,0.283-3.917-1.082c-0.532-0.877-0.96-1.817-1.434-2.727C943.145,611.796,943.144,611.797,943.142,611.797"/>
		<path fill="#182C45" d="M893.371,516.053c-0.43-0.828-0.893-1.642-1.285-2.489c-0.72-1.557-0.172-3.18,1.285-3.942
			c1.484-0.775,3.132-0.32,3.967,1.183c0.928,1.67,1.807,3.374,2.649,5.091c0.732,1.497,0.15,3.225-1.26,3.972
			c-1.398,0.743-3.167,0.223-3.994-1.212C894.246,517.806,893.823,516.923,893.371,516.053"/>
	</g>
	<g>
		<path fill="#182C45" d="M217.843,1575.42c-0.52,2.525-0.815,5.121-1.599,7.563c-5.263,16.42-16.383,26.396-33.334,29.625
			c-7.972,1.519-15.75,0.405-23.205-2.794c-0.838-0.36-1.284-0.132-1.859,0.441c-11.464,11.494-22.947,22.974-34.439,34.442
			c-0.633,0.635-1.403,1.139-2.108,1.703h-1.142c-0.724-0.537-1.523-1.003-2.157-1.633c-5.105-5.061-10.182-10.146-15.251-15.241
			c-0.636-0.639-1.177-1.376-1.764-2.069v-1.598c0.557-0.666,1.065-1.381,1.677-1.993c11.449-11.464,22.907-22.92,34.386-34.351
			c0.695-0.691,0.84-1.21,0.447-2.148c-10.574-25.191,5.802-53.722,32.919-57.405c0.974-0.132,1.949-0.28,2.923-0.418h5.478
			c0.633,0.089,1.264,0.197,1.901,0.267c17.234,1.874,31.824,14.636,35.939,31.482c0.493,2.021,0.795,4.091,1.186,6.138
			L217.843,1575.42L217.843,1575.42z M212.42,1571.297c0.023-20.111-16.206-36.428-36.278-36.482
			c-20.104-0.057-36.521,16.281-36.554,36.378c-0.037,20.079,16.227,36.392,36.326,36.441
			C196.124,1607.683,212.4,1591.481,212.42,1571.297 M152.835,1607.808c-4.495-4.493-8.834-8.83-13.045-13.042
			c-10.585,10.584-21.305,21.299-31.91,31.902c4.25,4.255,8.586,8.599,13.069,13.091
			C131.564,1629.121,142.273,1618.391,152.835,1607.808"/>
		<path fill="#182C45" d="M205.793,1571.419c-0.017,16.44-13.259,29.619-29.73,29.589c-16.39-0.027-29.674-13.38-29.611-29.76
			c0.062-16.347,13.46-29.63,29.837-29.575C192.603,1541.724,205.813,1555.045,205.793,1571.419 M176.014,1595.651
			c12.963,0.305,24.116-10.533,24.45-23.755c0.329-13.115-10.351-24.369-23.246-24.825c-13.298-0.471-24.836,9.746-25.303,23.28
			C151.436,1584.305,162.027,1595.32,176.014,1595.651"/>
	</g>
	<g>
		<path fill="#182C45" d="M220.302,203.374c3.935,12.145,7.883,24.287,11.875,36.411c0.194,0.592,0.71,1.166,1.223,1.555
			c4.622,3.484,9.277,6.926,13.922,10.38c0.394,0.295,0.79,0.589,1.275,0.952c-2.652,3.562-5.217,7.013-7.9,10.616
			c1.66,1.236,3.231,2.403,4.798,3.574c3.675,2.742,4.226,6.494,1.487,10.181c-11.734,15.778-23.473,31.554-35.211,47.332
			c-0.355,0.475-0.712,0.956-1.137,1.526c-36.541-27.189-73.036-54.345-109.648-81.587c0.28-0.373,0.546-0.732,0.812-1.091
			c11.877-15.96,23.748-31.92,35.629-47.877c2.639-3.545,6.43-4.099,9.978-1.472c1.583,1.171,3.161,2.351,4.872,3.623
			c2.641-3.548,5.227-7.024,7.904-10.619c1.373,1.022,2.617,1.945,3.859,2.87c3.833,2.854,7.65,5.725,11.511,8.539
			c0.514,0.375,1.232,0.635,1.866,0.654c12.624,0.33,25.25,0.606,37.872,0.939l0.359,0.007c0,0,1.762-0.127,2.987,0.785
			C219.86,201.583,220.302,203.374,220.302,203.374 M239.847,279.097c0.187-0.117,0.281-0.148,0.331-0.215
			c1.024-1.356,2.049-2.709,3.066-4.074c1.687-2.261,1.573-3.051-0.675-4.726c-26.462-19.691-52.925-39.379-79.387-59.07
			c-6.118-4.553-12.244-9.094-18.346-13.67c-1.079-0.806-2.295-1.241-3.22-0.2c-1.566,1.762-2.864,3.758-4.289,5.669
			c3.009,2.238,5.876,4.37,8.794,6.541c1.781-1.732,3.822-2.385,5.972-0.944c2.554,1.718,4.996,3.595,7.42,5.496
			c1.811,1.417,2.128,3.881,0.886,5.828c-0.242,0.38-0.537,0.727-0.928,1.252c4.052,0.844,6.948,3.041,8.888,6.564
			c0.269-0.302,0.397-0.431,0.508-0.574c2.065-2.606,4.338-2.899,7.034-0.904c1.956,1.451,3.911,2.901,5.862,4.357
			c2.75,2.053,3.118,4.34,1.155,7.102c-0.18,0.257-0.339,0.528-0.611,0.953c4.9,0.788,8.389,3.412,10.558,7.848
			c0.301-0.345,0.487-0.544,0.654-0.762c2.165-2.794,4.397-3.113,7.208-1.023c1.807,1.343,3.611,2.686,5.417,4.032
			c3.25,2.416,3.574,4.255,1.367,7.676c-0.039,0.057-0.006,0.163-0.002,0.246c3.652,1.403,4.502,0.936,8.719,6.481
			c0.157-0.176,0.318-0.336,0.456-0.512c2.03-2.539,4.308-2.835,6.933-0.891c1.808,1.339,3.611,2.686,5.416,4.031
			c3.06,2.273,3.424,3.433,2.18,7.061C234.071,274.797,236.938,276.929,239.847,279.097 M209.628,319.832
			c9.259-12.444,18.432-24.77,27.621-37.122c-2.97-2.21-5.865-4.365-8.513-6.336c-1.231,0.536-2.225,1.184-3.303,1.372
			c-0.88,0.15-1.364,0.524-1.844,1.173c-6.076,8.19-12.172,16.369-18.261,24.549c-0.319,0.43-0.637,0.859-0.972,1.307
			c-1.221-0.907-2.305-1.717-3.526-2.624c6.587-8.85,13.12-17.633,19.633-26.383c-1.261-0.939-2.382-1.773-3.468-2.582
			c-8.36,11.238-16.654,22.385-24.934,33.513c1.21,0.899,2.331,1.733,3.546,2.638c0.872-1.176,1.684-2.267,2.527-3.397
			c1.178,0.877,2.26,1.681,3.478,2.587c-0.876,1.181-1.707,2.3-2.559,3.441C202.641,314.637,206.095,317.207,209.628,319.832
			 M165.43,286.939c0.296-0.363,0.508-0.603,0.696-0.856c7.237-9.728,14.483-19.446,21.703-29.187
			c2.982-4.02,2.127-9.481-1.893-12.457c-3.899-2.889-9.389-2.039-12.352,1.937c-7.16,9.612-14.311,19.23-21.467,28.845
			c-0.285,0.387-0.575,0.772-0.869,1.164C156.062,279.969,160.693,283.413,165.43,286.939 M140.696,268.527
			c0.295-0.395,0.533-0.718,0.775-1.041c7.373-9.905,14.755-19.807,22.114-29.722c2.699-3.64,2.063-8.403-1.418-11.012
			c-3.547-2.658-8.304-1.902-11.054,1.794c-7.38,9.9-14.747,19.809-22.116,29.718c-0.238,0.322-0.435,0.67-0.683,1.05
			C132.428,262.376,136.469,265.384,140.696,268.527 M188.419,304.051c0.339-0.411,0.608-0.713,0.85-1.039
			c7.345-9.871,14.694-19.738,22.026-29.616c2.765-3.728,2.163-8.487-1.376-11.111c-3.568-2.645-8.284-1.879-11.047,1.833
			c-7.348,9.866-14.689,19.738-22.029,29.613c-0.264,0.355-0.494,0.734-0.765,1.14C180.212,297.944,184.255,300.951,188.419,304.051
			 M233.394,257.847c-0.132-0.597-0.158-0.782-0.213-0.954c-5.615-17.246-11.243-34.491-16.823-51.751
			c-0.31-0.966-0.869-0.984-1.631-0.999c-17.857-0.409-35.716-0.828-53.573-1.241c-0.382-0.009-0.767,0.03-1.528,0.063
			c2.531,1.887,4.731,3.591,7.016,5.176c0.665,0.464,1.562,0.787,2.368,0.819c13.581,0.554,27.162,1.067,40.744,1.531
			c1.158,0.041,1.647,0.418,2.015,1.505c4.333,12.834,8.72,25.649,13.103,38.467c0.19,0.555,0.356,1.243,0.77,1.568
			C228.086,253.944,230.6,255.766,233.394,257.847 M107.083,243.469c3.596,2.675,7.075,5.264,10.551,7.851
			c0.172-0.158,0.29-0.233,0.369-0.338c8.205-11.013,16.404-22.031,24.598-33.052c0.181-0.242,0.35-0.556,0.363-0.847
			c0.068-1.41,0.081-2.824,0.117-4.396c-2.632-1.959-5.524-4.109-8.43-6.272C125.436,218.8,116.287,231.097,107.083,243.469
			 M174.097,213.569c15.069,11.214,29.943,22.281,44.979,33.468c-0.122-0.452-0.17-0.675-0.244-0.893
			c-3.449-10.12-6.916-20.238-10.329-30.373c-0.308-0.913-0.823-1.016-1.622-1.045c-10.502-0.376-21.006-0.779-31.507-1.174
			C175.017,213.541,174.662,213.561,174.097,213.569 M121.224,254.007c1.235,0.917,2.356,1.752,3.471,2.582
			c8.358-11.236,16.665-22.398,24.941-33.521c-1.219-0.907-2.34-1.742-3.47-2.581C137.829,231.691,129.561,242.802,121.224,254.007
			 M147.709,273.754c8.378-11.263,16.665-22.401,24.982-33.575c-1.189-0.886-2.309-1.718-3.447-2.566
			c-8.354,11.229-16.66,22.39-24.982,33.575C145.444,272.068,146.539,272.883,147.709,273.754 M194.006,256.006
			c-8.378,11.259-16.664,22.396-24.987,33.581c1.186,0.882,2.306,1.715,3.458,2.571c8.351-11.221,16.659-22.389,24.986-33.581
			C196.287,257.703,195.192,256.889,194.006,256.006 M154.109,220.769c0.934-1.253,1.765-2.373,2.585-3.474
			c-2.38-1.772-4.673-3.478-6.984-5.198c-0.886,1.191-1.719,2.309-2.585,3.474C149.489,217.332,151.782,219.037,154.109,220.769
			 M170.117,232.654c2.419,1.799,4.713,3.507,7.027,5.227c0.884-1.185,1.715-2.305,2.557-3.435c-2.387-1.78-4.707-3.506-7.025-5.231
			C171.792,230.4,170.983,231.493,170.117,232.654 M194.887,251.086c2.416,1.8,4.711,3.507,7.035,5.236
			c0.884-1.189,1.714-2.304,2.56-3.443c-2.383-1.772-4.702-3.498-7.036-5.235C196.567,248.831,195.754,249.921,194.887,251.086
			 M227.52,269.991c-2.419-1.799-4.712-3.508-7.032-5.232c-0.884,1.185-1.716,2.305-2.56,3.439c2.388,1.777,4.707,3.503,7.031,5.233
			C225.839,272.249,226.652,271.156,227.52,269.991 M157.073,198.483c3.958,0.098,7.635,0.188,11.692,0.284
			c-2.788-2.075-5.196-3.865-7.662-5.702C159.791,194.834,158.524,196.537,157.073,198.483 M235.156,248.16
			c-0.082,0.042-0.164,0.081-0.246,0.12c1.151,3.522,2.299,7.039,3.506,10.726c1.446-1.942,2.717-3.652,4.031-5.418
			C239.979,251.749,237.567,249.952,235.156,248.16"/>
		<path fill="#182C45" d="M198.294,220.815c4.711,3.505,9.305,6.925,13.967,10.393c-0.845,1.134-1.65,2.22-2.505,3.368
			c-4.661-3.469-9.282-6.907-13.969-10.396C196.622,223.062,197.428,221.981,198.294,220.815"/>
		<path fill="#182C45" d="M191.239,215.556c1.114,0.831,2.171,1.616,3.314,2.465c-0.818,1.099-1.625,2.185-2.495,3.354
			c-1.06-0.789-2.145-1.595-3.316-2.465C189.531,217.848,190.338,216.766,191.239,215.556"/>
	</g>
</g>
</svg>
