<?xml version="1.0" encoding="utf-8"?>
<!-- Generator: Adobe Illustrator 21.0.0, SVG Export Plug-In . SVG Version: 6.00 Build 0)  -->
<svg version="1.1" id="Layer_1" xmlns="http://www.w3.org/2000/svg" xmlns:xlink="http://www.w3.org/1999/xlink" x="0px" y="0px"
	 viewBox="0 0 75 18" enable-background="new 0 0 75 18" xml:space="preserve">
<g>
	<path fill="#FFFFFF" d="M38.2,0.6c0-0.1-0.1-0.2-0.1-0.2C38,0.3,38,0.3,37.9,0.3c-0.9-0.1-1.7-0.1-2.3-0.1c-0.6,0-1.3,0.1-2.1,0.1
		l0.1,4.5c0,0-0.1,0-0.1,0v2L32.9,5c0,0,0,0,0,0L31,0.4c-0.1-0.1-0.2-0.2-0.3-0.2c-0.9-0.1-1.6-0.1-2.1-0.1s-1.2,0.1-2,0.1
		c-0.1,2.7-0.1,5-0.1,7.3l0,0c0,0,0,0.1,0,0.1c0,0,0,0,0,0l0,0c0,1.8,0,4.1,0.1,7.1c0,0.1,0,0.1,0.1,0.2c0,0,0.1,0.1,0.2,0.1
		c0.9,0,1.7,0.1,2.4,0.1c0.6,0,1.2,0,2-0.1l-0.1-6.5l2.5,6.3C33.8,15,33.8,15,34,15c0.8,0,1.5,0.1,2.2,0.1c0.6,0,1.2,0,1.9-0.1
		c0.1-2.6,0.1-5.1,0.1-7.4c0-0.9,0-2,0-3.3l0.1,0C38.3,3.2,38.2,2,38.2,0.6z"/>
	<path fill="#FFFFFF" d="M68.1,0.6c0-0.1-0.1-0.2-0.1-0.2c-0.1-0.1-0.1-0.1-0.2-0.1c-0.9-0.1-1.6-0.1-2.3-0.1
		c-0.6,0-1.2,0.1-1.7,0.1c-0.1,0-0.2,0-0.3,0.2l-1.8,3.7l-1.3,2.6L59,4.1l0.1,0l-1.8-3.6c-0.1-0.1-0.2-0.2-0.3-0.2
		c-0.7-0.1-1.4-0.1-2.1-0.1c-0.5,0-1.2,0.1-2,0.1c-0.1,1.1-0.1,2.1-0.1,3.2c0,0,0,0,0,0c0,1.4,0,2.8,0,4.1c0,1.7,0,4,0.1,7.1
		c0,0.1,0,0.2,0.1,0.2c0,0,0.1,0.1,0.2,0.1c1,0,1.8,0.1,2.4,0.1c0.6,0,1.2,0,2-0.1l-0.1-6.7l2.7,5.4h0.2h0.3L63.5,8
		c0,0.7,0,1.4,0,2.1c0,0.7,0,1.6,0.1,2.5c0,0.9,0,1.6,0.1,2.1c0,0.1,0,0.1,0.1,0.2c0,0,0.1,0.1,0.2,0.1c1,0,1.8,0.1,2.3,0.1
		c0.6,0,1.2,0,1.9-0.1c0.1-2.6,0.1-5.1,0.1-7.4c0-0.8,0-1.8,0-2.9c0,0-0.1,0-0.1,0C68.2,3.5,68.1,2.2,68.1,0.6z"/>
	<path fill="#FFFFFF" d="M70.1,3.7c0.1,0.1,0.1,0.1,0.2,0.1c1,0.1,1.8,0.1,2.5,0.1c0.6,0,1.3-0.1,2.1-0.1c0.1-2.6,0.1-0.2,0-3.3
		c0-0.1-0.1-0.2-0.1-0.2c-0.1-0.1-0.1-0.1-0.2-0.1c-1-0.1-1.8-0.1-2.5-0.1c-0.6,0-1.3,0.1-2.1,0.1c-0.1,2.7-0.1,0.3,0,3.3
		C70,3.6,70.1,3.7,70.1,3.7z"/>
	<circle fill="#FFFFFF" cx="13.8" cy="16.7" r="1.2"/>
	<path fill="#FFFFFF" d="M11.9,13.4c-0.4-0.9,0.1-3.1,0.1-3.1c0-0.1,0.1-0.2,0.1-0.3c0.1-0.8,0.2-1.6,0.2-2.5c0-1.1-0.1-2-0.3-2.8
		s-0.5-1.5-0.8-2.1c-0.4-0.6-0.8-1-1.4-1.4C9.3,0.8,8.6,0.5,7.9,0.3C7.2,0.2,6.4,0.1,5.5,0.1c-1.7,0.1-3.1,0.8-4.1,2
		C1,2.6,0.8,3.2,0.5,3.9c0,0,0,0,0,0c0,0.1,0,0.1,0,0.2c0,0,0,0.1-0.1,0.1l0,0C0.2,5.1,0,6.2,0,7.4c0,1.4,0.1,2.6,0.4,3.5
		c0.3,0.9,0.7,1.7,1.2,2.2s2.1,1.5,4.5,1.5c0.4,0,0.8,0,1.2-0.1c0,0,0.1,0,0.3,0l0,0.1c0.1,0,0.2,0,0.3,0c0.6,0,1.6,0,2.2,0.3
		c0.9,0.4,1.8,1.2,2.4,0.7S12.3,14.3,11.9,13.4z M5.2,9.7c0-0.1-0.1-0.3-0.1-0.5c0-0.1,0-0.1,0-0.2l0.1,0.1c0-0.2,0-0.5-0.1-0.7
		c0-0.3,0-0.6,0-1c0-0.7,0-1.2,0.1-1.6c0-0.4,0.1-0.7,0.2-0.9c0.1-0.2,0.2-0.3,0.3-0.4C5.8,4.4,6,4.4,6.1,4.4c0.1,0,0.3,0,0.4,0.1
		c0.1,0,0.2,0.1,0.3,0.2C6.8,4.8,6.9,5,7,5.2c0,0.2,0.1,0.5,0.1,0.9c0,0.4,0,0.8,0,1.3c0,0.4,0,0.8,0,1.1c-0.1,1.4,1.1,2,0.8,2.4
		c0,0,0,0,0,0c0,0.1,0,0.1-0.1,0.2C7.4,11.5,5.4,10.8,5.2,9.7z"/>
	<path fill="#FFFFFF" d="M25.1,0.6c0-0.1-0.1-0.2-0.1-0.2c-0.1-0.1-0.1-0.1-0.2-0.1c-1-0.1-1.8-0.1-2.5-0.1c-0.6,0-1.3,0.1-2.1,0.1
		c-0.1,1.2-0.1,2.6-0.1,3.9c0,0,0,0,0,0c0,1.4,0,2.8,0,4.3c0,0.7,0,1.3-0.1,1.6c-0.1,0.4-0.2,0.6-0.3,0.7c0,0-0.1,0-0.1,0.1
		c0,0-0.1,0-0.1,0c0,0,0,0,0,0c-0.1,0-0.2,0.1-0.3,0.1c-0.2,0-0.3,0-0.2-0.1c-0.1,0-0.2-0.1-0.3-0.3c-0.1-0.2-0.2-0.5-0.2-0.8
		c-0.1-0.3-0.1-0.8-0.1-1.3c0-2.3,0-4.9-0.1-8c0-0.1-0.1-0.2-0.1-0.2c-0.1-0.1-0.1-0.1-0.2-0.1c-1-0.1-1.8-0.1-2.5-0.1
		c-0.6,0-1.3,0.1-2.1,0.1c-0.1,2.7-0.1,5.1-0.1,7.5c0,0.8,0,1.5,0.1,2.1c0,0.6,0.2,1.2,0.3,1.7c0.1,0.5,0.3,0.9,0.5,1.3
		c0.2,0.4,0.4,0.7,0.7,1c0.3,0.3,0.6,0.5,0.9,0.7c0.3,0.1,0.7,0.3,1.1,0.4c0.4,0.1,0.8,0.2,1.3,0.2c0.5,0.1,1,0.1,1.6,0.1
		c0.7,0,1.3-0.1,1.9-0.3c0.3-0.1,0.6-0.2,0.9-0.4l0,0c0.2-0.1,0.4-0.2,0.5-0.4c0.5-0.4,0.8-0.9,1.1-1.4c0.3-0.6,0.5-1.3,0.7-2.1
		c0.2-0.9,0.3-1.8,0.3-2.9c0-1.6,0-3.7-0.1-6.3C25.1,1.2,25.1,0.9,25.1,0.6z"/>
	<path fill="#FFFFFF" d="M51.1,10.5C50.8,8.9,50.4,7.1,50,5s-0.7-3.6-0.8-4.3c0-0.1,0-0.2-0.1-0.2C49,0.4,49,0.4,48.9,0.4
		c-1-0.1-2.2-0.1-3.5-0.1c-0.7,0-1.2,0-1.8,0c0,0,0-0.1,0.1-0.1c-0.7,0-1.3,0-1.8,0c-0.1,0.7-0.4,2.1-0.9,4.2
		c-0.4,2.1-0.8,3.9-1.1,5.4c-0.3,1.4-0.5,2.8-0.7,4.2c-0.1,0.4-0.1,0.7-0.1,0.8c0,0.1,0,0.1,0.1,0.1l0.1,0.1c1,0,1.8,0.1,2.5,0.1
		c0.6,0,1.2,0,2-0.1c0.2-0.9,0.3-1.8,0.5-2.7h2.3c0.1,0.7,0.3,1.5,0.4,2.5c0,0.1,0,0.1,0.1,0.2c0.1,0,0.1,0.1,0.2,0.1
		c0.6,0,1.4,0.1,2.4,0.1c0.3,0,0.5,0,0.8,0c0,0,0-0.1,0-0.1c0.4,0,0.9-0.1,1.4-0.1C51.7,13.6,51.4,12.1,51.1,10.5z M42.7,2.6
		c0.1-0.2,0.1-0.5,0.2-0.7L42.7,2.6z M44.7,9.1c0-0.2,0.1-0.4,0.1-0.7l0.1,0c0-0.5,0.1-1.1,0.2-1.9c0.1-1.3,0.2-2.2,0.3-2.9
		c0.1,0.5,0.2,1.4,0.4,2.6c0.2,1.2,0.3,2.1,0.4,2.7c0,0-0.1,0-0.1,0c0,0.1,0,0.1,0,0.2H44.7L44.7,9.1z"/>
	<path fill="#FFFFFF" d="M75,5.2C75,5.1,74.9,5,74.9,5c-0.1-0.1-0.1-0.1-0.2-0.1c-1-0.1-1.8-0.1-2.5-0.1c-0.3,0-0.7,0-1,0
		c-0.1,0-0.2,0-0.3,0c-0.3,0-0.6,0-0.9,0c-0.1,2.6-0.1,0.5-0.1,2.8c0,1.7,0,4,0.1,7.1c0,0.1,0,0.1,0.1,0.2c0,0,0.1,0.1,0.2,0.1
		c1,0,1.8,0.1,2.5,0.1s1.4,0,2.1-0.1c0-0.9,0-1.8,0.1-2.6c0,0-0.1,0-0.1,0C75,10.7,75,9.2,75,7.6C75,6,75,8.1,75,5.2z"/>
</g>
</svg>
