<?xml version="1.0" encoding="utf-8"?>
<!-- Generator: Adobe Illustrator 21.0.0, SVG Export Plug-In . SVG Version: 6.00 Build 0)  -->
<svg version="1.1" id="Layer_1" xmlns="http://www.w3.org/2000/svg" xmlns:xlink="http://www.w3.org/1999/xlink" x="0px" y="0px"
	 viewBox="0 0 1080 1920" enable-background="new 0 0 1080 1920" xml:space="preserve">
<g>
	<path fill-rule="evenodd" clip-rule="evenodd" fill="#43089C" d="M243.05,95.711c3.935,12.145,7.883,24.287,11.875,36.411
		c0.194,0.592,0.71,1.166,1.223,1.555c4.622,3.484,9.277,6.926,13.922,10.38c0.394,0.295,0.79,0.589,1.275,0.952
		c-2.652,3.562-5.217,7.013-7.9,10.616c1.66,1.236,3.231,2.403,4.798,3.574c3.675,2.742,4.226,6.494,1.487,10.181
		c-11.734,15.778-23.473,31.554-35.211,47.332c-0.355,0.475-0.712,0.956-1.137,1.526c-36.541-27.189-73.036-54.345-109.648-81.587
		c0.28-0.373,0.546-0.732,0.812-1.091c11.877-15.96,23.748-31.92,35.629-47.877c2.639-3.545,6.43-4.099,9.978-1.472
		c1.583,1.171,3.161,2.351,4.872,3.623c2.641-3.548,5.227-7.024,7.904-10.619c1.373,1.022,2.617,1.945,3.859,2.87
		c3.833,2.854,7.65,5.725,11.511,8.539c0.514,0.375,1.232,0.635,1.866,0.654c12.624,0.33,25.25,0.606,37.872,0.939l0.359,0.007
		c0,0,1.762-0.127,2.987,0.785C242.608,93.92,243.05,95.711,243.05,95.711 M262.595,171.434c0.187-0.117,0.281-0.148,0.331-0.215
		c1.024-1.356,2.049-2.709,3.066-4.074c1.687-2.261,1.573-3.051-0.675-4.726c-26.462-19.691-52.925-39.379-79.387-59.07
		c-6.118-4.553-12.244-9.094-18.346-13.67c-1.079-0.806-2.295-1.241-3.22-0.2c-1.566,1.762-2.864,3.758-4.289,5.669
		c3.009,2.238,5.876,4.37,8.794,6.541c1.781-1.732,3.822-2.385,5.972-0.944c2.554,1.718,4.996,3.595,7.42,5.496
		c1.811,1.417,2.128,3.881,0.886,5.828c-0.242,0.38-0.537,0.727-0.928,1.252c4.052,0.844,6.948,3.041,8.888,6.564
		c0.269-0.302,0.397-0.431,0.508-0.574c2.065-2.606,4.338-2.899,7.034-0.904c1.956,1.451,3.911,2.901,5.862,4.357
		c2.75,2.053,3.118,4.34,1.155,7.102c-0.18,0.257-0.339,0.528-0.611,0.953c4.9,0.788,8.389,3.412,10.558,7.848
		c0.301-0.345,0.487-0.544,0.654-0.762c2.165-2.794,4.397-3.113,7.208-1.023c1.807,1.343,3.611,2.686,5.417,4.032
		c3.25,2.416,3.574,4.255,1.367,7.676c-0.039,0.057-0.006,0.163-0.002,0.246c3.652,1.403,4.502,0.936,8.719,6.481
		c0.157-0.176,0.318-0.336,0.456-0.512c2.03-2.539,4.308-2.835,6.933-0.891c1.808,1.339,3.611,2.686,5.416,4.031
		c3.06,2.273,3.424,3.433,2.18,7.061C256.819,167.134,259.686,169.266,262.595,171.434 M232.376,212.169
		c9.259-12.444,18.432-24.77,27.621-37.122c-2.97-2.21-5.865-4.365-8.513-6.336c-1.231,0.536-2.225,1.184-3.303,1.372
		c-0.88,0.15-1.364,0.524-1.844,1.173c-6.076,8.19-12.172,16.369-18.261,24.549c-0.319,0.43-0.637,0.859-0.972,1.307
		c-1.221-0.907-2.305-1.717-3.526-2.624c6.587-8.85,13.12-17.633,19.633-26.383c-1.261-0.939-2.382-1.773-3.468-2.582
		c-8.36,11.238-16.654,22.385-24.934,33.513c1.21,0.899,2.331,1.733,3.546,2.638c0.872-1.176,1.684-2.267,2.527-3.397
		c1.178,0.877,2.26,1.681,3.478,2.587c-0.876,1.181-1.707,2.3-2.559,3.441C225.389,206.974,228.843,209.544,232.376,212.169
		 M188.178,179.276c0.296-0.363,0.508-0.603,0.696-0.856c7.237-9.728,14.483-19.446,21.703-29.187
		c2.982-4.02,2.127-9.481-1.893-12.457c-3.899-2.889-9.389-2.039-12.352,1.937c-7.16,9.612-14.311,19.23-21.467,28.845
		c-0.285,0.387-0.575,0.772-0.869,1.164C178.81,172.306,183.441,175.75,188.178,179.276 M163.444,160.864
		c0.295-0.395,0.533-0.718,0.775-1.041c7.373-9.905,14.755-19.807,22.114-29.722c2.699-3.64,2.063-8.403-1.418-11.012
		c-3.547-2.658-8.304-1.902-11.054,1.794c-7.38,9.9-14.747,19.809-22.116,29.718c-0.238,0.322-0.435,0.67-0.683,1.05
		C155.176,154.713,159.217,157.721,163.444,160.864 M211.167,196.388c0.339-0.411,0.608-0.713,0.85-1.039
		c7.345-9.871,14.694-19.738,22.026-29.616c2.765-3.728,2.163-8.487-1.376-11.111c-3.568-2.645-8.284-1.879-11.047,1.833
		c-7.348,9.866-14.689,19.738-22.029,29.613c-0.264,0.355-0.494,0.734-0.765,1.14C202.96,190.281,207.003,193.288,211.167,196.388
		 M256.142,150.184c-0.132-0.597-0.158-0.782-0.213-0.954c-5.615-17.246-11.243-34.491-16.823-51.751
		c-0.31-0.966-0.869-0.984-1.631-0.999c-17.857-0.409-35.716-0.828-53.573-1.241c-0.382-0.009-0.767,0.03-1.528,0.063
		c2.531,1.887,4.731,3.591,7.016,5.176c0.665,0.464,1.562,0.787,2.368,0.819c13.581,0.554,27.162,1.067,40.744,1.531
		c1.158,0.041,1.647,0.418,2.015,1.505c4.333,12.834,8.72,25.649,13.103,38.467c0.19,0.555,0.356,1.243,0.77,1.568
		C250.834,146.281,253.348,148.103,256.142,150.184 M129.831,135.806c3.596,2.675,7.075,5.264,10.551,7.851
		c0.172-0.158,0.29-0.233,0.369-0.338c8.205-11.013,16.404-22.031,24.598-33.052c0.181-0.242,0.35-0.556,0.363-0.847
		c0.068-1.41,0.081-2.824,0.117-4.396c-2.632-1.959-5.524-4.109-8.43-6.272C148.184,111.137,139.035,123.434,129.831,135.806
		 M196.845,105.906c15.069,11.214,29.943,22.281,44.979,33.468c-0.122-0.452-0.17-0.675-0.244-0.893
		c-3.449-10.12-6.916-20.238-10.329-30.373c-0.308-0.913-0.823-1.016-1.622-1.045c-10.502-0.376-21.006-0.779-31.507-1.174
		C197.765,105.878,197.41,105.898,196.845,105.906 M143.972,146.344c1.235,0.917,2.356,1.752,3.471,2.582
		c8.358-11.236,16.665-22.398,24.941-33.521c-1.219-0.907-2.34-1.742-3.47-2.581C160.577,124.028,152.309,135.139,143.972,146.344
		 M170.457,166.091c8.378-11.263,16.665-22.401,24.982-33.575c-1.189-0.886-2.309-1.718-3.447-2.566
		c-8.354,11.229-16.66,22.39-24.982,33.575C168.192,164.405,169.287,165.22,170.457,166.091 M216.754,148.343
		c-8.378,11.259-16.664,22.396-24.987,33.581c1.186,0.882,2.306,1.715,3.458,2.571c8.351-11.221,16.659-22.389,24.986-33.581
		C219.035,150.04,217.94,149.226,216.754,148.343 M176.857,113.106c0.934-1.253,1.765-2.373,2.585-3.474
		c-2.38-1.772-4.673-3.478-6.984-5.198c-0.886,1.191-1.719,2.309-2.585,3.474C172.237,109.669,174.53,111.374,176.857,113.106
		 M192.865,124.991c2.419,1.799,4.713,3.507,7.027,5.227c0.884-1.185,1.715-2.305,2.557-3.435c-2.387-1.78-4.707-3.506-7.025-5.231
		C194.54,122.737,193.731,123.83,192.865,124.991 M217.635,143.423c2.416,1.8,4.711,3.507,7.035,5.236
		c0.884-1.189,1.714-2.304,2.56-3.443c-2.383-1.772-4.702-3.498-7.036-5.235C219.315,141.168,218.502,142.258,217.635,143.423
		 M250.268,162.328c-2.419-1.799-4.712-3.508-7.032-5.232c-0.884,1.185-1.716,2.305-2.56,3.439c2.388,1.777,4.707,3.503,7.031,5.233
		C248.587,164.586,249.4,163.493,250.268,162.328 M179.821,90.82c3.958,0.098,7.635,0.188,11.692,0.284
		c-2.788-2.075-5.196-3.865-7.662-5.702C182.539,87.171,181.272,88.874,179.821,90.82 M257.904,140.497
		c-0.082,0.042-0.164,0.081-0.246,0.12c1.151,3.522,2.299,7.039,3.506,10.726c1.446-1.942,2.717-3.652,4.031-5.418
		C262.727,144.086,260.315,142.289,257.904,140.497"/>
	<path fill-rule="evenodd" clip-rule="evenodd" fill="#43089C" d="M221.042,113.152c4.711,3.505,9.305,6.925,13.967,10.393
		c-0.845,1.134-1.65,2.22-2.505,3.368c-4.661-3.469-9.282-6.907-13.969-10.396C219.37,115.399,220.176,114.318,221.042,113.152"/>
	<path fill-rule="evenodd" clip-rule="evenodd" fill="#43089C" d="M213.987,107.893c1.114,0.831,2.171,1.616,3.314,2.465
		c-0.818,1.099-1.625,2.185-2.495,3.354c-1.06-0.789-2.145-1.595-3.316-2.465C212.279,110.185,213.086,109.103,213.987,107.893"/>
</g>
<path fill-rule="evenodd" clip-rule="evenodd" fill="#43089C" d="M447.144,163.024c3.367-3.781,8.675-7.946,15.489-9.796
	c7.766-2.106,14.846-0.475,21.236,4.262c3.825,2.837,7.011,6.265,8.938,10.716c2.649,6.131,2.129,12.276-0.004,18.396
	c-0.619,1.769-1.476,3.454-2.152,5.208c-0.143,0.371-0.132,0.956,0.073,1.283c2.799,4.475,2.214,9.121-1.686,13.011
	c-3.181,3.172-8.218,3.49-12.376,0.786c-2.05-1.331-4.101-2.664-6.169-3.969c-4.333-2.737-5.567-8.04-2.917-12.443
	c1.2-1.998,2.368-4.018,3.432-6.086c0.453-0.886,0.668-1.917,0.873-2.903c0.43-2.084-0.482-3.583-2.214-4.651
	c-1.599-0.984-3.159-0.621-4.542,0.389c-3.192,2.322-5.257,5.459-6.206,9.281c-0.342,1.379-0.474,2.818-0.651,4.231
	c-1.049,8.345-9.843,12.804-17.023,8.534c-3.785-2.252-5.515-5.78-5.371-10.156C436.181,179.862,439.496,171.787,447.144,163.024
	 M451.031,168.937c-1.26,1.777-2.613,3.5-3.762,5.349c-2.886,4.635-4.351,9.724-4.465,15.187c-0.05,2.479,1.521,4.264,3.858,4.464
	c2.334,0.198,4.206-1.275,4.645-3.677c0.087-0.479,0.115-0.972,0.167-1.459c0.658-6.596,3.457-12.09,8.505-16.404
	c5.744-4.911,13.405-3.829,17.361,2.459c2.067,3.292,2.072,6.868,0.738,10.32c-1.114,2.886-2.69,5.609-4.206,8.323
	c-1.061,1.891-1.031,2.652,0.765,3.83c1.984,1.299,3.987,2.567,5.997,3.82c1.595,0.995,2.709,0.872,3.825-0.348
	c1.311-1.433,1.381-2.584,0.23-4.124c-0.268-0.362-0.575-0.694-0.854-1.049c-1.532-1.944-1.518-2.896-0.395-5.144
	c1.143-2.28,2.271-4.593,3.096-6.998c2.403-6.989,1.082-13.114-4.324-18.375c-6.011-5.844-13.651-7.44-20.951-4.069
	C457.261,162.891,454.003,165.705,451.031,168.937"/>
<path fill-rule="evenodd" clip-rule="evenodd" fill="#43089C" d="M510.852,206.678c5.564,4.845,6.082,12.859,1.191,18.459
	c-4.878,5.587-12.927,6.156-18.469,1.31c-5.496-4.808-6.001-12.814-1.159-18.391C497.303,202.418,505.274,201.825,510.852,206.678
	 M506.833,220.521c2.372-2.744,2.155-6.309-0.521-8.634c-2.676-2.321-6.24-2.038-8.628,0.686c-2.429,2.772-2.203,6.312,0.554,8.693
	C500.934,223.592,504.437,223.29,506.833,220.521"/>
<g>
	<path fill-rule="evenodd" clip-rule="evenodd" fill="#43089C" d="M688.773,1436.08c2.275,4.522,4.193,10.991,3.404,18.008
		c-0.902,7.996-5.026,13.978-11.783,18.175c-4.047,2.511-8.407,4.211-13.254,4.364c-6.676,0.205-12.197-2.541-17.102-6.779
		c-1.417-1.227-2.668-2.644-4.049-3.919c-0.293-0.27-0.841-0.475-1.219-0.405c-5.191,0.954-9.295-1.301-11.475-6.359
		c-1.778-4.126-0.218-8.925,3.827-11.795c1.993-1.416,3.987-2.831,5.962-4.274c4.14-3.021,9.525-2.215,12.642,1.87
		c1.416,1.851,2.863,3.681,4.394,5.432c0.656,0.747,1.536,1.327,2.377,1.88c1.779,1.167,3.509,0.872,5.139-0.345
		c1.503-1.124,1.741-2.709,1.311-4.366c-0.983-3.823-3.14-6.897-6.344-9.188c-1.156-0.826-2.445-1.478-3.694-2.164
		c-7.373-4.048-8.28-13.866-1.665-18.969c3.488-2.69,7.405-2.999,11.421-1.254C677.155,1419.687,683.443,1425.742,688.773,1436.08
		 M681.844,1437.517c-1.189-1.826-2.292-3.718-3.587-5.467c-3.247-4.39-7.438-7.626-12.475-9.744
		c-2.287-0.959-4.525-0.156-5.571,1.943c-1.044,2.097-0.364,4.38,1.708,5.672c0.414,0.258,0.861,0.465,1.295,0.692
		c5.89,3.041,9.968,7.667,12.119,13.948c2.45,7.149-1.377,13.873-8.68,15.236c-3.822,0.71-7.149-0.603-9.867-3.115
		c-2.273-2.099-4.224-4.567-6.189-6.975c-1.368-1.682-2.086-1.935-3.843-0.699c-1.938,1.367-3.855,2.761-5.76,4.169
		c-1.512,1.117-1.808,2.197-1.085,3.684c0.85,1.746,1.894,2.235,3.75,1.732c0.435-0.116,0.857-0.279,1.29-0.407
		c2.372-0.708,3.251-0.345,4.928,1.528c1.699,1.902,3.434,3.803,5.366,5.456c5.612,4.808,11.794,5.835,18.676,2.746
		c7.647-3.437,11.945-9.952,11.498-17.98C685.17,1445.535,683.754,1441.47,681.844,1437.517"/>
	<path fill-rule="evenodd" clip-rule="evenodd" fill="#43089C" d="M624.726,1479.235c-6.554,3.389-14.195,0.919-17.6-5.691
		c-3.398-6.592-0.964-14.285,5.584-17.653c6.494-3.339,14.123-0.861,17.525,5.695
		C633.676,1468.207,631.292,1475.836,624.726,1479.235 M613.336,1470.4c1.678,3.216,5.072,4.327,8.219,2.695
		c3.143-1.633,4.192-5.051,2.539-8.274c-1.683-3.28-5.057-4.373-8.286-2.686C612.653,1463.785,611.644,1467.153,613.336,1470.4"/>
</g>
<g>
	<path fill-rule="evenodd" clip-rule="evenodd" fill="#43089C" d="M55.581,918.587c-0.139-0.163-0.264-0.333-0.416-0.479
		c-4.268-4.063-3.231-10.897,2.102-13.452c8.597-4.124,17.213-8.223,25.852-12.261c3.794-1.777,7.093-4.119,9.552-7.539
		c0.773-1.073,1.428-2.225,2.091-3.366c2.156-3.712,4.285-7.43,6.42-11.153c1.541-2.684,0.933-5.351-1.621-7.101
		c-1.25-0.856-1.637-2.264-0.946-3.436c0.719-1.221,2.197-1.567,3.556-0.787c4.744,2.717,9.482,5.448,14.222,8.175
		c0.338,0.194,0.677,0.388,1.083,0.623c1.121-3.805,3.513-6.042,7.49-6.067c3.093-0.023,5.386,1.519,6.722,4.323
		c1.391,2.933,0.796,5.706-1.86,8.852c1.361,0.784,2.707,1.559,4.051,2.332c0.897,0.516,1.807,1.02,2.693,1.554
		c1.258,0.763,1.677,2.223,1.002,3.421c-0.651,1.156-2.069,1.557-3.352,0.948c-2.941-1.4-5.473-0.611-7.094,2.211
		c-2.264,3.934-4.483,7.896-6.803,11.795c-2.611,4.39-3.624,9.094-3.182,14.17c0.825,9.466,1.433,18.953,2.435,28.401
		c0.704,6.617-5.234,11.297-10.978,9.218c-0.064-0.023-0.142-0.001-0.213,0.001C90.787,938.843,73.181,928.716,55.581,918.587
		 M84.375,929.41v-0.003c8.336,4.796,16.674,9.587,25.006,14.391c1.238,0.718,2.486,0.954,3.739,0.151
		c1.24-0.797,1.595-1.993,1.469-3.435c-0.512-5.802-0.989-11.607-1.452-17.412c-0.051-0.643-0.236-0.964-0.886-1.224
		c-5.952-2.375-11.135-5.847-14.964-11.068c-4.227-5.762-9.941-9.207-16.714-11.072c-0.467-0.13-1.088-0.086-1.522,0.118
		c-6.501,3.05-12.986,6.134-19.463,9.24c-0.528,0.254-1.059,0.642-1.403,1.104c-1.283,1.739-0.714,3.726,1.368,4.924
		C67.824,919.892,76.1,924.65,84.375,929.41 M125.481,878.199c-5.816-3.345-11.5-6.617-17.313-9.96
		c-0.234,0.4-0.442,0.765-0.651,1.126c-3.032,5.266-6.067,10.527-9.09,15.796c-2.666,4.639-6.362,8.209-11.089,10.711
		c-0.241,0.128-0.473,0.276-0.721,0.422c0.097,0.113,0.129,0.187,0.185,0.214c0.608,0.3,1.226,0.586,1.832,0.887
		c4.636,2.298,8.83,5.215,11.871,9.442c2.964,4.118,6.776,7.092,11.214,9.386c0.228,0.117,0.485,0.18,0.849,0.313
		c-0.16-1.931-0.315-3.707-0.45-5.485c-0.384-5.177,0.48-10.136,2.994-14.691c3.12-5.664,6.403-11.237,9.618-16.849
		C124.972,879.084,125.217,878.659,125.481,878.199 M122.756,867.974c-0.698,1.225-0.272,2.749,0.958,3.416
		c1.165,0.632,2.707,0.189,3.354-0.961c0.693-1.224,0.253-2.721-0.99-3.408C124.86,866.355,123.445,866.758,122.756,867.974"/>
	<path fill-rule="evenodd" clip-rule="evenodd" fill="#43089C" d="M144.38,842.961c0.2,0.24,0.389,0.493,0.6,0.723
		c2.491,2.721,2.707,6.904,0.491,9.644c-2.461,3.045-6.576,3.848-9.808,1.911c-3.17-1.898-4.479-5.901-3.063-9.353
		c1.381-3.356,5.117-5.222,8.728-4.361c0.269,0.063,0.546,0.102,0.821,0.151C142.892,842.106,143.638,842.533,144.38,842.961
		 M138.14,850.864c1.169,0.773,2.723,0.438,3.475-0.745c0.719-1.135,0.399-2.653-0.725-3.415c-1.105-0.751-2.75-0.398-3.494,0.755
		C136.676,848.569,137.017,850.12,138.14,850.864"/>
	<path fill-rule="evenodd" clip-rule="evenodd" fill="#43089C" d="M125.865,852.458c-2.085,3.619-6.603,4.831-10.22,2.742
		c-3.568-2.06-4.798-6.567-2.768-10.138c2.09-3.669,6.657-4.896,10.301-2.765C126.727,844.369,127.916,848.883,125.865,852.458
		 M120.591,846.582c-1.237-0.696-2.704-0.264-3.388,1.001c-0.648,1.198-0.222,2.645,0.976,3.321c1.18,0.67,2.664,0.264,3.348-0.907
		C122.241,848.769,121.831,847.279,120.591,846.582"/>
	<path fill-rule="evenodd" clip-rule="evenodd" fill="#43089C" d="M98.106,925.751c-0.683,1.202-2.237,1.629-3.421,0.943
		c-1.169-0.675-1.588-2.282-0.902-3.449c0.675-1.141,2.188-1.544,3.357-0.896C98.363,923.029,98.795,924.541,98.106,925.751"/>
	<path fill-rule="evenodd" clip-rule="evenodd" fill="#43089C" d="M104.307,935.076c-1.227-0.69-1.644-2.198-0.949-3.406
		c0.693-1.193,2.261-1.611,3.434-0.914c1.131,0.674,1.551,2.195,0.923,3.361C107.065,935.326,105.525,935.758,104.307,935.076"/>
	<path fill-rule="evenodd" clip-rule="evenodd" fill="#43089C" d="M95.376,915.51c-0.653,1.197-2.229,1.646-3.418,0.971
		c-1.189-0.674-1.621-2.247-0.94-3.431c0.668-1.16,2.151-1.575,3.338-0.929C95.595,912.795,96.043,914.286,95.376,915.51"/>
	<path fill-rule="evenodd" clip-rule="evenodd" fill="#43089C" d="M77.067,922.292c-1.217-0.703-1.603-2.19-0.89-3.414
		c0.684-1.179,2.132-1.573,3.322-0.91c1.238,0.693,1.662,2.17,0.973,3.389C79.787,922.576,78.275,922.991,77.067,922.292"/>
	<path fill-rule="evenodd" clip-rule="evenodd" fill="#43089C" d="M84.527,909.291c-0.674,1.215-2.213,1.648-3.405,0.958
		c-1.179-0.684-1.602-2.271-0.915-3.439c0.68-1.158,2.158-1.559,3.341-0.907C84.791,906.584,85.215,908.057,84.527,909.291"/>
</g>
<path fill-rule="evenodd" clip-rule="evenodd" fill="#43089C" d="M140.259,447.671c-2.516,2.283-4.965,4.463-7.338,6.721
	c-0.263,0.25-0.239,0.988-0.112,1.435c2.492,8.831,5.019,17.654,7.539,26.48c0.102,0.362,0.23,0.724,0.296,1.094
	c0.211,1.173-0.106,2.195-1.059,2.924c-0.984,0.76-2.117,0.919-3.198,0.275c-8.023-4.791-15.842-9.854-22.798-16.17
	c-5.225-4.748-6.382-10.379-4.18-16.848c0.889-2.614,2.065-5.132,3.134-7.746c-1.84-1.881-3.883-3.818-5.757-5.91
	c-7.755-8.64-13.14-18.703-17.359-29.437c-3.416-8.683-5.918-17.63-7.579-26.813c-0.081-0.457-0.161-0.913-0.208-1.372
	c-0.218-2.242,1.582-3.889,3.755-3.275c17.931,5.067,34.596,12.648,48.887,24.873c3.941,3.372,7.45,7.175,10.539,11.354
	c0.221,0.299,0.46,0.585,0.635,0.806c2.324-0.764,4.526-1.615,6.795-2.205c3.893-1.011,7.89-1.438,11.598,0.466
	c1.85,0.951,3.637,2.368,4.931,3.99c2.509,3.15,4.872,6.464,6.888,9.946c2.788,4.803,5.218,9.813,7.757,14.758
	c0.846,1.656,0.704,2.849-0.292,3.845c-1.119,1.114-2.364,1.006-3.732,0.465c-8.616-3.411-17.248-6.773-25.855-10.199
	c-0.871-0.345-1.427-0.267-2.105,0.372c-2.202,2.075-4.462,4.086-6.797,6.207c0.325,0.38,0.607,0.726,0.908,1.058
	c5.226,5.768,10.456,11.535,15.681,17.304c1.153,1.275,1.415,2.535,0.806,3.675c-1.008,1.886-3.362,2.185-4.879,0.548
	c-2.658-2.868-5.268-5.785-7.895-8.684C146.295,454.333,143.33,451.061,140.259,447.671 M88.344,386.145
	c0.071,0.436,0.121,0.838,0.206,1.231c2.029,9.241,4.891,18.207,8.777,26.842c6.434,14.304,15.612,26.285,29.154,34.601
	c2.233,1.369,2.212,1.404,4.121-0.316c0.405-0.367,0.808-0.737,1.212-1.103c1.482-1.35,2.966-2.698,4.488-4.084
	c-2.16-2.389-4.241-4.644-6.268-6.944c-1.178-1.334-1.067-3.077,0.159-4.182c1.209-1.091,2.983-0.99,4.192,0.259
	c0.586,0.604,1.131,1.243,1.697,1.869c1.517,1.673,3.03,3.342,4.585,5.06c2.572-2.332,5.029-4.556,7.449-6.753
	c-0.012-0.163,0-0.255-0.029-0.328c-0.166-0.387-0.339-0.772-0.517-1.151c-5.256-11.12-12.924-20.216-22.869-27.438
	c-7.985-5.794-16.644-10.342-25.79-13.965C95.514,388.398,91.99,387.377,88.344,386.145 M132.734,477.534
	c-0.019-0.368-0.002-0.497-0.035-0.612c-1.944-6.838-3.884-13.678-5.868-20.503c-0.123-0.418-0.547-0.821-0.93-1.077
	c-2.03-1.346-4.101-2.634-6.141-3.966c-0.789-0.516-1.541-1.092-2.603-1.849c-0.922,2.45-1.885,4.64-2.563,6.916
	c-0.996,3.341-0.391,6.368,2.148,8.953C121.432,470.176,127.009,473.754,132.734,477.534 M174.782,439.179
	c0.088-0.093,0.173-0.183,0.259-0.275c-1.925-3.4-3.748-6.864-5.806-10.181c-1.501-2.42-3.265-4.688-5.008-6.949
	c-1.102-1.429-2.594-2.398-4.419-2.715c-3.9-0.676-7.411,0.603-10.863,2.024c1.643,3.221,3.189,6.301,4.797,9.345
	c0.206,0.386,0.697,0.704,1.126,0.877c3.661,1.492,7.338,2.954,11.015,4.407C168.845,436.882,171.816,438.024,174.782,439.179"/>
<path fill-rule="evenodd" clip-rule="evenodd" fill="#43089C" d="M165.609,484.719c-0.894,2.547-3.547,2.993-5.218,1.17
	c-3.013-3.282-5.991-6.597-8.981-9.898c-3.078-3.397-6.162-6.781-9.222-10.19c-1.064-1.186-1.181-2.503-0.427-3.709
	c0.626-0.999,1.89-1.58,3.063-1.232c0.612,0.183,1.256,0.553,1.683,1.02c6.096,6.669,12.156,13.372,18.23,20.063
	C165.564,482.856,165.886,483.878,165.609,484.719"/>
<path fill-rule="evenodd" clip-rule="evenodd" fill="#43089C" d="M177.458,472.331c-0.223-0.179-0.766-0.514-1.179-0.966
	c-6.027-6.621-12.042-13.252-18.047-19.891c-1.328-1.466-1.337-3.209-0.079-4.372c1.297-1.194,3.087-1.031,4.441,0.46
	c6.022,6.626,12.032,13.258,18.042,19.899c1.124,1.243,1.268,2.576,0.476,3.8C180.396,472.365,179.058,472.84,177.458,472.331"/>
<path fill-rule="evenodd" clip-rule="evenodd" fill="#43089C" d="M109.239,416.681c-2.897-0.983-4.171-4.045-3.063-7.364
	c0.961-2.883,4.107-4.194,7.369-3.076c2.874,0.984,4.184,4.132,3.073,7.383C115.633,416.508,112.524,417.795,109.239,416.681"/>
<g>
	<path fill-rule="evenodd" clip-rule="evenodd" fill="#43089C" d="M910.777,1044.304c-10.598,3.721-23.104-7.236-18.922-18.426
		c-3.155-1.251-5.969-3.051-8.37-5.481c-2.488-2.513-4.469-5.37-5.691-8.682c-1.43-3.882-0.79-7.665,0.919-11.318
		c0.34-0.728,0.766-1.417,1.221-2.248c-0.662-0.371-1.312-0.727-1.952-1.098c-4.837-2.822-9.435-5.975-12.458-10.824
		c-5.552-8.901-5.829-18.038-0.401-27.067c1.616-2.687,4.003-4.905,5.975-7.387c0.375-0.471,0.785-1.274,0.634-1.75
		c-3.183-10.061,3.064-25.107,18.762-26.255c4.925-0.362,9.661,0.514,14.283,2.16c0.426,0.153,0.856,0.304,1.286,0.45
		c0.038,0.013,0.093-0.02,0.111-0.025c0.506-1.322,0.982-2.644,1.515-3.94c4.393-10.738,11.972-17.517,23.806-18.634
		c7.788-0.737,14.208,2.39,19.48,7.977c0.922,0.979,1.782,1.31,3.12,1.269c9.523-0.28,16.101,6.571,16.794,15.742
		c0.085,1.092-0.139,2.208-0.232,3.479c5.003,2.127,8.818,5.697,10.889,10.945c2.057,5.214,1.594,10.497,0.158,15.752
		c12.383,4.486,18.161,18.528,15.221,31.72c-1.095,4.927-3.187,9.347-6.386,13.264c-0.373,0.459-0.639,1.297-0.499,1.845
		c2.21,8.654-1.692,17.776-9.575,22.3c-7.43,4.261-15.313,4.245-23.381,2.546c-0.445-0.093-0.879-0.232-1.321-0.345
		c-0.045-0.013-0.099,0.002,0.065-0.005c-1.656,2.709-3.003,5.507-4.884,7.883c-6.999,8.828-16.081,13.551-27.51,12.763
		c-2.699-0.186-5.476-1.116-7.931-2.299C913.761,1047.78,912.512,1045.945,910.777,1044.304 M946.624,914.681
		c-0.378-0.393-0.606-0.655-0.859-0.893c-7.518-7.01-16.106-6.391-23.939-1.441c-6.441,4.071-9.563,10.348-10.957,17.625
		c-0.537,2.813-2.029,3.502-4.544,2.215c-5.147-2.639-10.595-4.056-16.396-3.232c-5.932,0.844-10.306,3.928-12.592,9.625
		c-2.296,5.72-1.496,11.069,2.374,15.782c1.876,2.288,4.238,4.167,6.363,6.25c3.497,3.427,6.574,7.138,7.952,11.973
		c1.216,4.27-0.4,8.873-3.837,10.928c-4.124,2.47-8.641,2.097-11.867-0.975c-1.619-1.541-1.903-3.178-0.76-4.369
		c1.206-1.257,2.649-1.053,4.298,0.602c0.106,0.109,0.221,0.209,0.328,0.312c1.462,1.345,3.064,1.04,4.666,0.362
		c1.581-0.672,2.507-1.782,2.437-3.621c-0.09-2.423-0.849-4.676-2.407-6.415c-4.079-4.555-8.356-8.936-12.742-13.586
		c-1.423,1.725-2.938,3.349-4.21,5.146c-5.076,7.15-4.998,15.804,0.189,22.904c3.401,4.66,8.102,7.676,13.224,10.096
		c0.395,0.189,1.023-0.06,1.531-0.164c1.861-0.383,3.701-0.967,5.579-1.135c1.682-0.149,2.749,1.045,2.737,2.563
		c-0.012,1.515-1.103,2.613-2.789,2.535c-5.637-0.257-9.724,5.401-8.226,10.6c1.855,6.45,5.934,10.928,12.469,12.921
		c0.527,0.159,1.194,0.073,1.744-0.088c3.766-1.106,7.461,0.005,9.93,3.028c0.171,0.202,0.441,0.327,0.936,0.683
		c0.086-0.977,0.186-1.697,0.209-2.42c0.337-10.452,7.282-18.694,17.512-20.812c1.135-0.235,2.113-0.144,2.888,0.775
		c1.352,1.604,0.539,3.674-1.685,4.225c-7.909,1.956-13.622,7.465-13.584,16.431c0.007,1.931-0.69,3.668-2.044,5.086
		c-2.399,2.516-5.441,2.472-7.735-0.103c-0.335-0.378-0.627-0.791-0.951-1.184c-1.384-1.672-3.172-1.715-4.656-0.09
		c-1.317,1.438-1.506,3.178-1.082,4.968c1.413,5.958,7.46,9.303,13.292,7.465c1.047-0.33,1.687-0.824,2.16-1.853
		c0.728-1.584,2.875-2.01,3.908-0.723c0.561,0.702,0.869,1.981,0.664,2.855c-0.67,2.883-0.423,3.699,2.256,4.85
		c1.015,0.438,2.07,0.838,3.15,1.082c7.729,1.747,14.521-0.401,20.497-5.29c4.175-3.414,7.455-7.568,8.769-12.947
		c0.77-3.153,1.798-3.623,4.816-2.56c7.87,2.775,15.639,2.835,23.081-1.471c6.198-3.587,9.777-14.52,3.362-21.22
		c-1.883-1.967-3.888-3.817-5.902-5.652c-3.877-3.538-4.613-9.96-1.576-14.258c0.891-1.261,2.366-1.617,3.58-0.868
		c1.143,0.71,1.5,2.147,0.866,3.467c-0.413,0.864-0.919,1.699-1.208,2.601c-0.469,1.473-0.395,2.973,0.76,4.114
		c2.813,2.789,5.705,5.502,8.608,8.288c0.128-0.138,0.304-0.309,0.453-0.503c6.212-8.099,6.534-20.467,0.752-28.894
		c-4.272-6.226-11.713-8.624-18.7-6.023c-7.262,2.701-11.275,9.102-10.467,16.734c0.574,5.423,3.094,9.989,6.431,14.145
		c2.254,2.812,2.168,3.776-0.839,5.736c-0.295,0.194-0.574,0.413-0.869,0.609c-3.016,2-4.129,4.686-3.059,8.229
		c0.242,0.806,0.33,1.695,0.304,2.54c-0.05,1.473-1.153,2.485-2.536,2.492c-1.32,0.01-2.334-0.909-2.568-2.301
		c-0.081-0.493-0.133-1.005-0.315-1.463c-1.712-4.364-0.707-8.115,2.533-11.365c0.77-0.775,1.582-1.508,2.204-2.095
		c-1.564-2.961-3.21-5.697-4.499-8.59c-2.178-4.9-2.669-10.033-1.32-15.261c2.349-9.114,10.532-15.352,20.404-15.53
		c1.125-0.022,1.594-0.352,1.873-1.412c0.919-3.49,1.136-6.96,0.163-10.474c-1.407-5.074-6.29-9.419-10.928-9.678
		c-7.335-0.41-13.198,4.303-14.357,11.544c-0.25,1.541-1.115,2.391-2.642,2.391c-5.27-0.002-8.88,2.694-11.313,7.101
		c-2.626,4.756-1.325,9.694,3.17,12.727c4.074,2.745,4.693,4.857,3.163,9.54c-0.584,1.793-0.831,3.724-0.998,5.615
		c-0.164,1.833-0.936,2.959-2.492,3.034c-1.571,0.073-2.865-1.108-2.669-2.943c0.275-2.634,0.813-5.255,1.445-7.833
		c0.323-1.324,0.39-2.092-0.979-2.954c-6.695-4.225-8.91-11.555-5.607-18.743c2.53-5.502,6.783-9.066,12.79-10.419
		c0.523-0.119,1.229-0.574,1.375-1.03c2.586-7.997,8.438-11.874,16.394-13.105c1.936-0.299,2.555-0.913,2.458-2.838
		c-0.29-5.617-5.672-10.816-11.275-10.638c-6.69,0.211-11.826,4.371-13.289,10.587c-0.345,1.468-0.408,2.999-0.62,4.499
		c-0.488,3.417-1.976,6.28-5.295,7.564c-2.218,0.861-4.645,1.266-7.018,1.607c-1.568,0.226-2.677-0.935-2.744-2.375
		c-0.071-1.536,0.919-2.566,2.618-2.722c0.907-0.085,1.823-0.096,2.715-0.247c3.049-0.514,4.443-1.982,4.665-5.059
		C936.268,924.246,939.526,918.35,946.624,914.681"/>
	<path fill-rule="evenodd" clip-rule="evenodd" fill="#43089C" d="M912.981,950.54c-1.657,1.048-2.943,2.283-4.461,2.717
		c-1.727,0.494-3.678,0.499-5.492,0.317c-3.442-0.345-4.364,0.066-5.683,3.273c-0.647,1.574-1.942,2.243-3.359,1.737
		c-1.425-0.508-2.002-1.84-1.513-3.474c1.437-4.794,4.804-7.131,9.779-6.763c0.854,0.063,1.7,0.229,2.551,0.327
		c1.763,0.202,3.651-0.819,4.34-2.419c0.119-0.277,0.03-0.783-0.164-1.018c-0.479-0.579-1.055-1.082-1.622-1.584
		c-1.435-1.261-1.709-2.774-0.69-3.953c1.03-1.191,2.561-1.196,4.046,0.033c2.976,2.46,5.245,5.54,6.806,8.996
		c3.352,7.405,6.554,14.881,9.578,22.427c3.681,9.195,6.916,18.567,11.854,27.22c3.273,5.733,7.299,10.892,11.456,15.981
		c0.596,0.727,0.972,1.936,0.848,2.84c-0.091,0.668-1.098,1.571-1.815,1.694c-0.79,0.138-2.01-0.236-2.53-0.831
		c-4.558-5.215-8.767-10.696-12.231-16.726c-5.209-9.076-8.802-18.849-12.465-28.597c-0.23-0.615-0.476-1.226-0.728-1.831
		c-0.075-0.176-0.209-0.327-0.393-0.607c-2.611,2.352-5.633,3.037-9.018,2.631c-1.959-0.234-3.132,0.934-4.048,2.595
		c-0.445,0.804-1.252,1.674-2.077,1.923c-0.675,0.204-1.913-0.245-2.357-0.823c-0.486-0.627-0.665-1.84-0.418-2.621
		c1.304-4.146,4.804-6.496,9.475-6.222c2.412,0.141,4.412-0.279,5.894-2.249c0.259-0.343,0.486-0.972,0.345-1.309
		C916.949,959.621,914.939,955.047,912.981,950.54"/>
	<path fill-rule="evenodd" clip-rule="evenodd" fill="#43089C" d="M928.364,1015.54c3.364-1.529,6.737-1.072,9.308,1.309
		c1.259,1.165,1.427,2.779,0.41,3.887c-1.017,1.108-2.46,1.126-3.787,0.051c-1.997-1.613-3.975-1.485-5.056,0.315
		c-0.607,1.007-0.667,1.967,0.043,2.966c0.73,1.03,1.448,2.074,2.074,3.165c1.787,3.117,1.617,6.28,0.053,9.421
		c-0.742,1.488-2.188,1.999-3.535,1.332c-1.266-0.625-1.874-2.123-1.12-3.479c1.352-2.432,0.645-4.356-0.937-6.367
		c-3.314-4.207-2.978-8.464,0.77-11.458C927.131,1016.245,927.766,1015.919,928.364,1015.54"/>
	<path fill-rule="evenodd" clip-rule="evenodd" fill="#43089C" d="M905.599,999.657c1.214,2.311,2.171,4.741,1.768,7.384
		c-0.139,0.917-0.803,2.024-1.566,2.52c-1.508,0.98-3.729-0.315-3.535-2.092c0.274-2.508-0.715-4.522-1.795-6.59
		c-1.694-3.248-1.163-7.309,1.269-10.034c3.351-3.752,10.746-2.905,13.161,1.51c0.677,1.234,0.347,2.742-0.768,3.505
		c-1.151,0.79-2.664,0.474-3.613-0.747c-1.447-1.874-2.395-2.198-4.063-1.393c-2.118,1.02-2.591,2.447-1.516,4.57
		C905.173,998.741,905.382,999.201,905.599,999.657"/>
</g>
<g>
	<path fill-rule="evenodd" clip-rule="evenodd" fill="#43089C" d="M660.222-643.003c-1.32-2.79-2.601-5.504-3.883-8.217
		c-0.808-1.709-0.44-2.636,1.323-3.418c13.962-6.183,27.671-5.142,41.188,1.437c0.356,0.175,0.716,0.341,1.03,0.49
		c0.809-2.666,1.475-5.286,2.394-7.817c3.792-10.417,10.296-18.659,19.874-24.369c1.144-0.684,2.332-1.296,3.53-1.886
		c1.34-0.66,2.368-0.288,3.014,1.059c1.234,2.573,2.464,5.149,3.651,7.743c0.285,0.629,0.619,0.786,1.279,0.653
		c2.068-0.418,4.139-0.805,6.219-1.149c1.431-0.236,2.432,0.322,3.058,1.638c8.391,17.759,16.777,35.519,25.161,53.284
		c0.838,1.775,0.279,2.813-1.707,3.072c-3.834,0.5-7.589,1.323-11.197,2.713c-10.598,4.087-19.371,10.573-25.975,19.885
		c-0.444,0.628-0.748,1.422-1.327,1.873c-0.858,0.671-1.838,0.998-3.079,0.838c-6.861-0.884-13.588,0.017-20.194,1.914
		c-8.288,2.379-15.683,6.36-21.931,12.379c-1.148,1.109-2.312,0.825-2.994-0.627c-8.095-17.24-16.193-34.479-24.294-51.719
		c-0.125-0.265-0.246-0.556-0.451-0.756c-1.206-1.181-1.382-2.412-0.227-3.632c1.599-1.685,3.344-3.236,5.026-4.845
		C659.871-642.614,660.014-642.782,660.222-643.003 M660.588-651.247c7.643,16.171,15.246,32.263,22.887,48.432
		c6.162-2.462,12.507-3.692,19.106-3.473c6.576,0.217,12.821,1.86,19.101,4.697c-0.342-0.725-0.529-1.119-0.716-1.512
		c-6.774-14.337-13.565-28.665-20.302-43.023c-0.602-1.284-1.395-2.119-2.673-2.739c-9.01-4.376-18.383-6.553-28.421-4.951
		C666.498-653.324,663.512-652.523,660.588-651.247 M726.072-682.379c-1.961,1.312-3.842,2.427-5.563,3.745
		c-9.316,7.133-14.454,16.757-16.574,28.136c-0.091,0.494,0.039,1.104,0.26,1.572c6.885,14.62,13.795,29.231,20.699,43.843
		c0.152,0.318,0.302,0.637,0.485,1.023c1.045-2.709,1.935-5.334,3.058-7.856c4.18-9.382,10.617-16.775,19.623-21.825
		c0.85-0.476,0.572-0.917,0.292-1.51c-6.514-13.772-13.023-27.548-19.534-41.32C727.95-678.41,727.082-680.247,726.072-682.379
		 M763.582-624.189c-0.322-0.679-0.575-1.214-0.825-1.747c-3.041-6.434-6.082-12.866-9.126-19.298
		c-4.386-9.283-8.768-18.566-13.173-27.841c-0.168-0.354-0.559-0.896-0.803-0.877c-1.642,0.131-3.272,0.39-5.094,0.634
		c0.277,0.584,0.443,0.943,0.616,1.301c5.859,12.398,11.718,24.798,17.58,37.195c0.956,2.026,0.773,2.58-1.242,3.569
		c-8.049,3.942-14.121,9.938-18.301,17.823c-1.325,2.502-2.355,5.161-3.521,7.75c0.103,0.072,0.206,0.145,0.309,0.217
		C739.193-615.203,750.197-621.688,763.582-624.189 M715.554-599.594c-0.383-0.169-0.512-0.242-0.649-0.285
		c-10.403-3.279-20.644-3.052-30.676,1.462c-1.839,0.829-2.69,0.531-3.543-1.274c-6.017-12.736-12.035-25.472-18.052-38.209
		c-0.182-0.387-0.366-0.773-0.614-1.298c-1.023,0.991-1.888,1.896-2.829,2.717c-0.647,0.564-0.66,1.06-0.304,1.819
		c7.548,15.909,15.067,31.833,22.59,47.753c0.168,0.356,0.336,0.712,0.555,1.176C691.639-594.165,702.85-598.31,715.554-599.594"/>
	<path fill-rule="evenodd" clip-rule="evenodd" fill="#43089C" d="M695.559-640.357c-0.572-0.005-1.177,0.112-1.71-0.035
		c-5.684-1.558-11.428-2.054-17.261-1.041c-1.037,0.18-1.923-0.172-2.362-1.049c-0.247-0.495-0.137-1.274,0.051-1.846
		c0.119-0.36,0.642-0.733,1.05-0.83c6.779-1.629,13.452-0.994,20.042,1.05c0.795,0.246,1.384,0.732,1.379,1.663
		C696.743-641.567,696.507-640.826,695.559-640.357"/>
	<path fill-rule="evenodd" clip-rule="evenodd" fill="#43089C" d="M708.344-613.315c-0.601-0.02-1.237,0.08-1.799-0.08
		c-5.669-1.607-11.39-2.098-17.219-1.002c-1.661,0.309-2.754-0.589-2.683-2.058c0.048-0.981,0.513-1.521,1.512-1.744
		c6.32-1.414,12.558-0.994,18.747,0.742c0.394,0.111,0.774,0.268,1.175,0.333c0.918,0.15,1.357,0.72,1.408,1.589
		C709.54-614.641,709.397-613.812,708.344-613.315"/>
	<path fill-rule="evenodd" clip-rule="evenodd" fill="#43089C" d="M704.066-622.337c-0.602-0.016-1.24,0.094-1.8-0.065
		c-5.679-1.631-11.408-2.061-17.256-1.044c-0.714,0.123-1.746-0.243-2.257-0.757c-0.349-0.35-0.177-1.386,0.015-2.041
		c0.114-0.389,0.678-0.815,1.11-0.917c6.859-1.626,13.602-0.913,20.266,1.11c0.797,0.241,1.067,0.859,1.09,1.624
		C705.259-623.548,705.062-622.794,704.066-622.337"/>
	<path fill-rule="evenodd" clip-rule="evenodd" fill="#43089C" d="M699.784-631.348c-0.6-0.016-1.238,0.091-1.797-0.07
		c-5.637-1.626-11.335-2.072-17.125-1.017c-1.034,0.19-1.933-0.137-2.361-1.021c-0.254-0.523-0.106-1.324,0.071-1.942
		c0.094-0.326,0.599-0.671,0.974-0.761c6.893-1.647,13.672-0.946,20.344,1.149c0.471,0.149,0.916,0.928,1.041,1.491
		C701.126-632.639,700.822-631.824,699.784-631.348"/>
	<path fill-rule="evenodd" clip-rule="evenodd" fill="#43089C" d="M724.272-666.25c0.36,1.024,0.301,1.809-0.677,2.617
		c-4.539,3.758-7.556,8.663-10.109,13.879c-0.514,1.049-1.24,1.476-2.356,1.455c-1.231-0.02-1.935-0.802-1.73-2.004
		c0.046-0.251,0.126-0.502,0.226-0.738c2.59-6.22,6.256-11.643,11.642-15.805C722.443-667.757,723.762-667.504,724.272-666.25"/>
	<path fill-rule="evenodd" clip-rule="evenodd" fill="#43089C" d="M721.87-623.025c0.024-0.196-0.015-0.658,0.143-1.039
		c2.632-6.317,6.284-11.896,11.763-16.152c1.116-0.865,1.941-0.966,2.632-0.203c0.825,0.915,0.763,2.5-0.152,3.264
		c-4.437,3.698-7.719,8.25-10.029,13.524c-0.105,0.236-0.25,0.468-0.289,0.718c-0.125,0.774-0.305,1.486-1.249,1.59
		C723.752-621.218,722.326-621.999,721.87-623.025"/>
	<path fill-rule="evenodd" clip-rule="evenodd" fill="#43089C" d="M716.569-639.174c-0.907-0.294-1.917-0.369-2.532-0.901
		c-0.435-0.377-0.589-1.441-0.417-2.08c0.307-1.163,0.913-2.257,1.455-3.349c2.48-5.01,5.812-9.336,10.26-12.765
		c0.911-0.706,2.049-0.71,2.681,0.024c0.722,0.837,0.593,2.372-0.274,3.085c-4.455,3.671-7.7,8.243-10.023,13.495
		c-0.177,0.403-0.241,0.854-0.417,1.258C717.151-640.056,716.914-639.743,716.569-639.174"/>
	<path fill-rule="evenodd" clip-rule="evenodd" fill="#43089C" d="M732.496-648.839c0.508,1.13,0.283,2.03-0.68,2.839
		c-4.456,3.732-7.689,8.362-9.983,13.675c-0.06,0.134-0.119,0.271-0.161,0.414c-0.493,1.676-0.962,1.888-2.765,1.243
		c-1.172-0.419-1.539-1.423-1.011-2.693c2.594-6.261,6.28-11.718,11.695-15.908C730.673-650.109,732.014-649.921,732.496-648.839"/>
</g>
<g>
	<path fill-rule="evenodd" clip-rule="evenodd" fill="#43089C" d="M800.056,131.288c-1.534-2.643-3.022-5.214-4.512-7.784
		c-0.939-1.619-0.653-2.564,1.022-3.482c13.261-7.258,26.871-7.368,40.751-1.999c0.365,0.143,0.735,0.277,1.056,0.398
		c0.577-2.697,1.016-5.337,1.713-7.91c2.877-10.591,8.609-19.261,17.584-25.689c1.072-0.77,2.193-1.472,3.326-2.153
		c1.267-0.762,2.312-0.481,3.061,0.795c1.431,2.436,2.858,4.875,4.244,7.335c0.334,0.597,0.675,0.724,1.316,0.538
		c2.005-0.584,4.017-1.138,6.04-1.65c1.392-0.351,2.426,0.115,3.152,1.363c9.751,16.823,19.497,33.648,29.241,50.478
		c0.974,1.682,0.508,2.751-1.429,3.172c-3.741,0.811-7.376,1.935-10.821,3.605c-10.116,4.911-18.233,12.037-23.975,21.771
		c-0.386,0.657-0.62,1.465-1.153,1.958c-0.79,0.733-1.73,1.136-2.968,1.082c-6.842-0.303-13.403,1.144-19.763,3.563
		c-7.979,3.035-14.943,7.575-20.608,14.031c-1.04,1.19-2.212,1.006-3.006-0.37c-9.416-16.336-18.834-32.671-28.256-49.006
		c-0.146-0.251-0.288-0.528-0.507-0.709c-1.288-1.065-1.563-2.265-0.525-3.564c1.438-1.795,3.031-3.47,4.556-5.196
		C799.742,131.701,799.869,131.524,800.056,131.288 M799.734,123.125c8.881,15.318,17.716,30.563,26.596,45.88
		c5.874-2.94,12.032-4.679,18.56-5.011c6.505-0.332,12.802,0.772,19.233,3.049c-0.397-0.687-0.614-1.06-0.831-1.432
		c-7.872-13.581-15.759-27.152-23.597-40.758c-0.701-1.217-1.552-1.975-2.864-2.48c-9.251-3.57-18.678-4.94-28.448-2.526
		C805.391,120.586,802.512,121.623,799.734,123.125 M861.751,86.982c-1.826,1.457-3.589,2.713-5.177,4.156
		c-8.599,7.81-12.869,17.73-14.017,29.131c-0.049,0.494,0.13,1.086,0.386,1.529c8.004,13.851,16.033,27.692,24.056,41.534
		c0.176,0.302,0.35,0.604,0.563,0.969c0.806-2.759,1.466-5.423,2.365-8.003c3.345-9.602,9.082-17.429,17.547-23.158
		c0.799-0.54,0.488-0.952,0.163-1.513c-7.568-13.045-15.133-26.096-22.697-39.142C863.932,90.742,862.924,89.001,861.751,86.982
		 M903.581,141.274c-0.374-0.643-0.668-1.15-0.958-1.655c-3.533-6.095-7.068-12.188-10.604-18.28
		c-5.097-8.794-10.19-17.588-15.304-26.372c-0.195-0.335-0.625-0.838-0.865-0.798c-1.609,0.266-3.195,0.656-4.973,1.048
		c0.321,0.553,0.516,0.893,0.715,1.232c6.808,11.745,13.617,23.491,20.427,35.234c1.111,1.919,0.977,2.481-0.929,3.623
		c-7.613,4.556-13.106,10.975-16.575,19.1c-1.1,2.578-1.895,5.287-2.83,7.937c0.108,0.063,0.215,0.126,0.323,0.189
		C880.266,152.162,890.584,144.852,903.581,141.274 M858.242,169.521c-0.391-0.135-0.525-0.197-0.664-0.228
		c-10.534-2.372-20.618-1.298-30.14,3.987c-1.745,0.97-2.609,0.747-3.601-0.963c-6.992-12.065-13.986-24.13-20.977-36.196
		c-0.212-0.367-0.425-0.732-0.713-1.229c-0.927,1.062-1.705,2.027-2.565,2.915c-0.592,0.61-0.563,1.101-0.149,1.82
		c8.766,15.069,17.504,30.154,26.246,45.234c0.196,0.337,0.39,0.674,0.645,1.114C835.099,176.86,845.816,171.842,858.242,169.521"/>
	<path fill-rule="evenodd" clip-rule="evenodd" fill="#43089C" d="M835.135,130.967c-0.565,0.042-1.151,0.208-1.69,0.108
		c-5.737-1.066-11.444-1.079-17.115,0.405c-1.008,0.263-1.911-0.01-2.417-0.839c-0.285-0.468-0.24-1.246-0.102-1.825
		c0.087-0.365,0.572-0.776,0.966-0.906c6.552-2.17,13.188-2.097,19.858-0.627c0.805,0.176,1.426,0.607,1.498,1.526
		C836.203,129.676,836.031,130.426,835.135,130.967"/>
	<path fill-rule="evenodd" clip-rule="evenodd" fill="#43089C" d="M849.991,156.584c-0.595,0.03-1.213,0.182-1.781,0.07
		c-5.726-1.115-11.411-1.125-17.07,0.439c-1.613,0.443-2.765-0.353-2.817-1.808c-0.034-0.972,0.38-1.543,1.347-1.845
		c6.117-1.919,12.306-2.022,18.555-0.824c0.397,0.077,0.786,0.201,1.187,0.231c0.918,0.072,1.399,0.598,1.521,1.45
		C851.06,155.176,850.988,156.006,849.991,156.584"/>
	<path fill-rule="evenodd" clip-rule="evenodd" fill="#43089C" d="M845.022,148.039c-0.595,0.034-1.216,0.196-1.781,0.085
		c-5.738-1.138-11.425-1.087-17.11,0.402c-0.694,0.18-1.743-0.094-2.29-0.559c-0.373-0.316-0.289-1.353-0.155-2.015
		c0.081-0.393,0.601-0.86,1.019-0.996c6.631-2.173,13.342-2.029,20.084-0.586c0.806,0.172,1.124,0.759,1.21,1.512
		C846.098,146.744,845.967,147.505,845.022,148.039"/>
	<path fill-rule="evenodd" clip-rule="evenodd" fill="#43089C" d="M840.051,139.504c-0.593,0.034-1.214,0.192-1.778,0.08
		c-5.696-1.137-11.354-1.104-16.978,0.418c-1.004,0.273-1.918,0.025-2.414-0.811c-0.294-0.495-0.214-1.298-0.091-1.922
		c0.066-0.33,0.535-0.711,0.898-0.832c6.663-2.196,13.409-2.067,20.165-0.554c0.477,0.108,0.981,0.84,1.151,1.385
		C841.267,138.12,841.035,138.948,840.051,139.504"/>
	<path fill-rule="evenodd" clip-rule="evenodd" fill="#43089C" d="M861.313,103.043c0.44,0.98,0.447,1.759-0.451,2.638
		c-4.166,4.083-6.736,9.173-8.822,14.531c-0.42,1.077-1.101,1.559-2.203,1.63c-1.216,0.082-1.976-0.63-1.873-1.834
		c0.024-0.251,0.083-0.506,0.162-0.747c2.039-6.351,5.205-12.005,10.173-16.557C859.383,101.708,860.706,101.847,861.313,103.043"/>
	<path fill-rule="evenodd" clip-rule="evenodd" fill="#43089C" d="M862.529,145.882c0.007-0.196-0.069-0.648,0.055-1.036
		c2.072-6.45,5.213-12.257,10.265-16.91c1.029-0.946,1.835-1.114,2.58-0.418c0.889,0.834,0.961,2.403,0.121,3.233
		c-4.07,4.016-6.93,8.779-8.772,14.174c-0.084,0.241-0.208,0.482-0.225,0.732c-0.059,0.773-0.178,1.491-1.1,1.672
		C864.536,147.51,863.064,146.857,862.529,145.882"/>
	<path fill-rule="evenodd" clip-rule="evenodd" fill="#43089C" d="M855.96,130.392c-0.919-0.214-1.922-0.205-2.572-0.679
		c-0.46-0.336-0.7-1.373-0.584-2.017c0.206-1.173,0.713-2.302,1.157-3.425c2.031-5.148,4.959-9.692,9.063-13.443
		c0.84-0.772,1.963-0.871,2.647-0.199c0.781,0.766,0.782,2.291-0.014,3.066c-4.09,3.991-6.912,8.771-8.768,14.144
		c-0.141,0.412-0.167,0.862-0.307,1.276C856.461,129.473,856.253,129.801,855.96,130.392"/>
	<path fill-rule="evenodd" clip-rule="evenodd" fill="#43089C" d="M870.87,119.536c0.595,1.073,0.448,1.98-0.435,2.857
		c-4.086,4.051-6.891,8.887-8.714,14.319c-0.048,0.137-0.095,0.277-0.125,0.422c-0.347,1.694-0.792,1.942-2.625,1.456
		c-1.191-0.316-1.636-1.276-1.221-2.573c2.039-6.392,5.224-12.081,10.218-16.663C868.966,118.435,870.305,118.509,870.87,119.536"/>
</g>
<g>
	<path fill-rule="evenodd" clip-rule="evenodd" fill="#43089C" d="M896.015,422.266c-0.233-1.135-0.58-2.26-0.68-3.407
		c-0.607-6.854,1.71-12.375,7.516-16.295c0.373-0.25,0.685-0.825,0.725-1.273c0.23-2.494,2.6-3.816,4.667-2.454
		c0.678,0.445,1.135,0.41,1.735,0.037c0.397-0.248,0.818-0.46,1.245-0.652c0.993-0.452,1.717-0.88,1.758-2.285
		c0.052-1.827,2.169-2.982,3.877-2.219c0.984,0.44,1.487,0.188,2.162-0.468c5.762-5.597,9.318-12.51,11.753-20.029
		c4.084-12.612,12.171-21.581,24.353-26.687c12.152-5.097,24.271-4.751,35.894,1.58c23.005,12.53,30.404,44.402,11.383,64.874
		c-12.203,13.135-27.365,17.109-44.709,12.028c-6.341-1.857-12.771-2.914-19.406-2.35c-0.779,0.067-1.337,0.22-1.799,0.992
		c-0.742,1.245-2.424,1.795-3.552,0.995c-1.292-0.914-2.259-0.4-3.345,0.143c-0.585,0.288-1.162,0.6-1.815,0.94
		c0.34,1.633-0.007,3.029-1.58,3.802c-1.474,0.723-2.727,0.178-3.836-0.93c-1.253,0.652-2.49,1.295-3.619,1.879
		c-0.14,0.897-0.107,1.777-0.427,2.504c-0.887,1.995-3.7,2.3-4.987,0.482c-0.697-0.984-1.44-1.205-2.55-1.263
		c-5.177-0.277-9.479-2.342-12.698-6.494c-0.137-0.178-0.339-0.303-0.51-0.454C897.054,424.263,896.535,423.266,896.015,422.266
		 M921.413,399.109c4.209,5.867,8.311,11.62,12.473,17.33c0.267,0.367,1.012,0.628,1.484,0.563c8.626-1.173,16.974,0.127,25.23,2.59
		c10.955,3.269,21.343,2.015,30.867-4.446c17.162-11.633,21.177-35.856,8.341-52.13c-8.843-11.206-20.884-15.725-34.911-13.475
		c-13.863,2.22-23.126,10.626-27.748,23.781C933.73,383.053,929.386,392.078,921.413,399.109 M912.586,404.356
		c0.288,0.46,0.51,0.862,0.775,1.23c2.889,4.027,5.776,8.053,8.679,12.072c0.732,1.012,1.398,2.639,2.314,2.807
		c1.03,0.193,2.309-0.94,3.477-1.502c0.075-0.037,0.12-0.14,0.23-0.27c-3.877-5.412-7.763-10.835-11.683-16.307
		C915.134,403.031,913.984,403.631,912.586,404.356 M903.62,409.403c0.155,0.345,0.205,0.528,0.308,0.672
		c3.55,4.984,7.099,9.968,10.68,14.93c0.162,0.223,0.683,0.43,0.898,0.333c1.127-0.505,2.209-1.11,3.394-1.727
		c-4.002-5.582-7.879-10.993-11.866-16.555C905.808,407.895,904.72,408.648,903.62,409.403 M901.083,416.441
		c-0.208,3.964,3.162,8.651,6.729,9.423C905.557,422.706,903.4,419.686,901.083,416.441"/>
	<path fill-rule="evenodd" clip-rule="evenodd" fill="#43089C" d="M1024.936,358.102c0.085,1.865-0.82,3.044-2.485,3.799
		c-1.318,0.595-2.567,1.337-3.862,1.979c-1.725,0.857-3.424,0.404-4.242-1.093c-0.867-1.58-0.32-3.259,1.43-4.234
		c1.262-0.703,2.59-1.292,3.834-2.03c1.562-0.923,3.05-1.029,4.547,0.083C1024.416,357.104,1024.676,357.604,1024.936,358.102"/>
	<path fill-rule="evenodd" clip-rule="evenodd" fill="#43089C" d="M988.748,338.621c-1.47,0.798-2.549,0.738-3.552,0.027
		c-1.057-0.755-1.509-1.845-1.159-3.082c0.648-2.3,1.35-4.589,2.16-6.834c0.563-1.559,2.164-2.227,3.677-1.733
		c1.47,0.482,2.394,2.03,1.962,3.579c-0.633,2.252-1.349,4.489-2.13,6.696C989.492,337.888,988.925,338.38,988.748,338.621"/>
	<path fill-rule="evenodd" clip-rule="evenodd" fill="#43089C" d="M914.006,369.262c-0.752-1.487-0.639-2.56,0.08-3.547
		c0.737-1.007,1.81-1.417,2.979-1.095c2.16,0.597,4.314,1.265,6.417,2.039c1.442,0.528,2.099,2.157,1.655,3.595
		c-0.477,1.537-1.925,2.444-3.522,2.007c-2.12-0.577-4.217-1.255-6.284-1.997C914.719,370.043,914.244,369.448,914.006,369.262"/>
	<path fill-rule="evenodd" clip-rule="evenodd" fill="#43089C" d="M951.284,440.969c0.005-0.382-0.14-1.19,0.05-1.912
		c0.49-1.855,1.102-3.68,1.717-5.499c0.597-1.767,2.245-2.619,3.867-2.069c1.594,0.55,2.357,2.09,1.835,3.864
		c-0.557,1.885-1.149,3.764-1.782,5.626c-0.413,1.217-1.303,1.928-2.609,2.013C953.065,443.076,952.107,442.51,951.284,440.969"/>
	<path fill-rule="evenodd" clip-rule="evenodd" fill="#43089C" d="M1020.002,397.703c0.417,0.007,1.268-0.128,2.035,0.07
		c1.812,0.468,3.589,1.073,5.362,1.672c1.717,0.578,2.574,2.144,2.11,3.734c-0.485,1.665-2.095,2.504-3.91,1.965
		c-1.884-0.56-3.762-1.15-5.619-1.79c-1.223-0.423-1.905-1.36-1.955-2.654C1017.978,399.484,1018.508,398.53,1020.002,397.703"/>
	<path fill-rule="evenodd" clip-rule="evenodd" fill="#43089C" d="M993.762,434.134c-0.43-0.827-0.89-1.644-1.285-2.487
		c-0.71-1.514-0.145-3.236,1.27-3.979c1.412-0.747,3.174-0.25,3.987,1.215c0.95,1.714,1.86,3.452,2.705,5.221
		c0.688,1.437,0.06,3.119-1.32,3.836c-1.387,0.725-3.092,0.283-3.917-1.082c-0.532-0.877-0.96-1.817-1.434-2.727
		C993.765,434.133,993.764,434.134,993.762,434.134"/>
	<path fill-rule="evenodd" clip-rule="evenodd" fill="#43089C" d="M943.991,338.39c-0.43-0.828-0.893-1.642-1.285-2.489
		c-0.72-1.557-0.172-3.18,1.285-3.942c1.484-0.775,3.132-0.32,3.967,1.183c0.928,1.67,1.807,3.374,2.649,5.091
		c0.732,1.497,0.15,3.225-1.26,3.972c-1.398,0.743-3.167,0.223-3.994-1.212C944.866,340.143,944.443,339.26,943.991,338.39"/>
</g>
<path fill-rule="evenodd" clip-rule="evenodd" fill="#43089C" d="M271.54,1304.861c-0.646,3.135-1.012,6.359-1.986,9.391
	c-6.535,20.389-20.343,32.776-41.392,36.786c-9.899,1.886-19.557,0.503-28.814-3.469c-1.041-0.447-1.594-0.164-2.308,0.548
	c-14.235,14.272-28.494,28.527-42.764,42.768c-0.786,0.788-1.742,1.414-2.617,2.115h-1.418c-0.899-0.667-1.891-1.245-2.678-2.028
	c-6.339-6.284-12.643-12.598-18.938-18.925c-0.79-0.793-1.462-1.708-2.19-2.569v-1.984c0.692-0.827,1.322-1.715,2.082-2.475
	c14.217-14.235,28.444-28.46,42.698-42.654c0.863-0.858,1.043-1.503,0.555-2.667c-13.13-31.28,7.204-66.708,40.877-71.281
	c1.21-0.164,2.42-0.347,3.629-0.519h6.802c0.786,0.11,1.569,0.245,2.361,0.331c21.4,2.327,39.517,18.174,44.627,39.092
	c0.612,2.51,0.987,5.08,1.473,7.622V1304.861z M264.806,1299.741c0.028-24.972-20.123-45.234-45.047-45.301
	c-24.964-0.071-45.349,20.217-45.39,45.172c-0.046,24.933,20.149,45.189,45.107,45.25
	C244.571,1344.923,264.781,1324.804,264.806,1299.741 M190.817,1345.078c-5.581-5.579-10.969-10.965-16.198-16.194
	c-13.144,13.143-26.455,26.447-39.624,39.613c5.277,5.284,10.661,10.677,16.228,16.255
	C164.405,1371.543,177.703,1358.219,190.817,1345.078"/>
<path fill-rule="evenodd" clip-rule="evenodd" fill="#43089C" d="M256.577,1299.892c-0.021,20.414-16.464,36.779-36.916,36.742
	c-20.352-0.034-36.847-16.614-36.769-36.954c0.077-20.299,16.714-36.792,37.05-36.724
	C240.198,1263.02,256.602,1279.56,256.577,1299.892 M219.6,1329.982c16.096,0.379,29.945-13.079,30.36-29.497
	c0.408-16.285-12.853-30.26-28.865-30.826c-16.513-0.585-30.84,12.102-31.42,28.908
	C189.08,1315.894,202.232,1329.571,219.6,1329.982"/>
</svg>
