<?xml version="1.0" encoding="utf-8"?>
<!-- Generator: Adobe Illustrator 21.0.0, SVG Export Plug-In . SVG Version: 6.00 Build 0)  -->
<svg version="1.1" id="Layer_1" xmlns="http://www.w3.org/2000/svg" xmlns:xlink="http://www.w3.org/1999/xlink" x="0px" y="0px"
	 viewBox="0 0 197 197" enable-background="new 0 0 197 197" xml:space="preserve">
<path fill-rule="evenodd" clip-rule="evenodd" fill="#43089C" d="M98.5,0C152.9,0,197,44.1,197,98.5c0,54.4-44.1,98.5-98.5,98.5
	S0,152.9,0,98.5C0,44.1,44.1,0,98.5,0z"/>
<path fill-rule="evenodd" clip-rule="evenodd" fill="#5A0BCF" d="M98.5,14c46.668,0,84.5,37.832,84.5,84.5
	c0,46.668-37.832,84.5-84.5,84.5S14,145.168,14,98.5C14,51.832,51.832,14,98.5,14z"/>
<path fill-rule="evenodd" clip-rule="evenodd" fill="#4D09B3" d="M122,96l-51.672-9.719l26.339,44.385l73.354,12.813
	C178.232,130.452,183,115.037,183,98.5c0-1.091-0.041-2.172-0.082-3.253l-55.064-9.101L122,96z"/>
<path fill-rule="evenodd" clip-rule="evenodd" fill="#FFFFFF" d="M69.071,86c1.604,0.132,2.544,0.864,3.453,1.75
	c5.439,5.301,10.775,10.707,16.148,16.076c2.454,2.452,4.877,4.936,7.381,7.337c1.782,1.708,2.257,1.653,3.973-0.063
	c7.617-7.613,15.229-15.231,22.846-22.843c2.846-2.843,5.295-2.919,8.289-0.272c0.339,0.3,0.695,0.584,1.005,0.912
	c3.156,3.341,3.118,5.824-0.133,9.077c-10.317,10.321-20.635,20.641-30.954,30.96c-2.401,2.4-3.799,2.391-6.229-0.038
	c-10.463-10.459-20.926-20.918-31.386-31.38c-2.665-2.666-2.712-5.511-0.105-8.223C64.894,87.694,66.249,86.16,69.071,86z"/>
</svg>
