<?xml version="1.0" encoding="utf-8"?>
<!-- Generator: Adobe Illustrator 16.0.0, SVG Export Plug-In . SVG Version: 6.00 Build 0)  -->
<!DOCTYPE svg PUBLIC "-//W3C//DTD SVG 1.1//EN" "http://www.w3.org/Graphics/SVG/1.1/DTD/svg11.dtd">
<svg version="1.1" id="Layer_1" xmlns="http://www.w3.org/2000/svg" xmlns:xlink="http://www.w3.org/1999/xlink" x="0px" y="0px"
	 width="20.31px" height="24px" viewBox="0 0 20.31 24" enable-background="new 0 0 20.31 24" xml:space="preserve">
<g>
	<path fill="#A4C439" d="M1.48,7.761C0.663,7.76,0,8.424,0,9.241l0.001,6.201c0,0.82,0.663,1.481,1.481,1.481
		c0.818,0,1.481-0.662,1.481-1.481V9.241C2.962,8.423,2.298,7.76,1.48,7.761 M13.423,2.192l1.033-1.888
		c0.056-0.099,0.02-0.224-0.081-0.28c-0.101-0.053-0.225-0.017-0.278,0.083l-1.045,1.907c-0.878-0.391-1.86-0.61-2.901-0.609
		C9.113,1.404,8.13,1.623,7.256,2.011L6.211,0.109c-0.055-0.101-0.18-0.137-0.278-0.083c-0.101,0.054-0.137,0.18-0.082,0.278
		l1.034,1.886C4.854,3.239,3.48,5.234,3.482,7.525L16.82,7.523C16.821,5.233,15.452,3.242,13.423,2.192 M7.117,5.108
		c-0.308,0-0.558-0.25-0.558-0.559c0-0.307,0.25-0.56,0.559-0.56c0.309,0,0.559,0.253,0.559,0.56
		C7.677,4.858,7.427,5.108,7.117,5.108 M13.191,5.107c-0.309,0-0.56-0.25-0.56-0.559c0.001-0.306,0.25-0.56,0.56-0.561
		c0.307,0.001,0.558,0.254,0.558,0.561C13.75,4.858,13.5,5.107,13.191,5.107 M3.536,8.041l0.002,9.61c0,0.874,0.707,1.58,1.581,1.58
		l1.076,0.001l0.001,3.28c0,0.817,0.664,1.481,1.479,1.481c0.819,0,1.481-0.664,1.481-1.482l0-3.28h1.999l0,3.28
		c0,0.817,0.665,1.482,1.481,1.481c0.817,0,1.48-0.664,1.48-1.482l-0.001-3.28h1.08c0.873,0,1.581-0.707,1.581-1.581l-0.002-9.61
		L3.536,8.041z M20.309,9.239c0-0.817-0.663-1.48-1.481-1.48c-0.816,0-1.48,0.664-1.479,1.481l0.001,6.203
		c0,0.817,0.662,1.479,1.48,1.479s1.48-0.661,1.48-1.479L20.309,9.239z"/>
</g>
</svg>
