<?xml version="1.0" encoding="utf-8"?>
<!-- Generator: Adobe Illustrator 16.0.0, SVG Export Plug-In . SVG Version: 6.00 Build 0)  -->
<!DOCTYPE svg PUBLIC "-//W3C//DTD SVG 1.1//EN" "http://www.w3.org/Graphics/SVG/1.1/DTD/svg11.dtd">
<svg version="1.1" id="Layer_1" xmlns="http://www.w3.org/2000/svg" xmlns:xlink="http://www.w3.org/1999/xlink" x="0px" y="0px"
	 width="25px" height="25px" viewBox="0 0 24.453 23.994" enable-background="new 0 0 24.453 23.994" xml:space="preserve">
<g>
	<path fill="#5A0BCF" d="M20.725,7.698c1.007-1.333,2.197-2.913,3.408-4.527c0.524-0.698,0.393-1.625-0.303-2.156
		c-0.245-0.187-0.496-0.374-0.736-0.555L22.95,0.354C22.642,0.123,22.3,0,21.959,0c-0.482,0-0.927,0.24-1.257,0.676
		c-0.643,0.856-1.288,1.713-1.934,2.57c-0.494,0.658-0.99,1.316-1.486,1.975C17.258,5.256,17.229,5.29,17.2,5.326
		c-0.001-0.002-0.003-0.003-0.006-0.006c-0.439-0.485-0.967-0.743-1.528-0.743c-0.634,0-1.23,0.331-1.685,0.929
		c-1.767,2.336-3.557,4.717-5.29,7.019c-1.185,1.575-2.409,3.203-3.616,4.803c-0.164,0.217-0.329,0.479-0.468,0.708
		c-0.722,1.18,0.288,2.156,0.615,2.428c0.183,0.151,0.477,0.372,0.596,0.461c1.086,0.81,2.148,1.602,3.192,2.407
		c0.369,0.285,0.825,0.585,1.416,0.653c0.067,0.006,0.123,0.009,0.175,0.009c0.059,0,0.116-0.004,0.175-0.013
		c0.122-0.017,0.272-0.057,0.381-0.1c0.58-0.229,0.929-0.694,1.267-1.147l0.062-0.083c2.2-2.929,4.44-5.904,6.606-8.782l2.2-2.925
		l0.048-0.062c0.05-0.064,0.101-0.133,0.147-0.202c0.335-0.495,0.416-1.142,0.217-1.732c-0.188-0.552-0.584-0.965-1.086-1.136
		C20.657,7.776,20.693,7.74,20.725,7.698z M16.522,6.372c0.003,0.018,0.005,0.036,0.008,0.054l0.003,0.027
		c0.034,0.257,0.179,0.428,0.413,0.493c0.239,0.066,0.45-0.015,0.618-0.237c0.345-0.46,0.691-0.918,1.038-1.377
		c0.021-0.029,0.043-0.057,0.064-0.083l1.599,1.2c-0.01,0.016-0.021,0.031-0.031,0.046c-0.165,0.218-0.332,0.437-0.497,0.655
		c-0.187,0.244-0.372,0.49-0.556,0.735C19,8.123,18.976,8.346,19.104,8.563c0.133,0.226,0.354,0.319,0.631,0.264
		c0.36-0.071,0.641,0.03,0.869,0.316c0.167,0.211,0.199,0.426,0.099,0.656c-0.05,0.114-0.12,0.232-0.232,0.379
		c-2.672,3.555-5.39,7.164-8.018,10.656l-1.204,1.602l-0.026,0.034c-0.02,0.027-0.041,0.055-0.063,0.082
		c-0.191,0.24-0.387,0.356-0.597,0.356c-0.159,0-0.33-0.067-0.511-0.202c-1.543-1.154-2.905-2.179-4.164-3.136
		c-0.468-0.356-0.519-0.765-0.155-1.248l2.46-3.269c2.215-2.943,4.431-5.887,6.646-8.832c0.23-0.307,0.461-0.466,0.746-0.515
		c0.057-0.009,0.114-0.015,0.169-0.015C16.152,5.692,16.447,5.954,16.522,6.372z M23.278,2.446c-0.587,0.784-1.187,1.58-1.768,2.35
		l-0.525,0.698L19.387,4.29c0.012-0.016,0.022-0.032,0.035-0.048c0.732-0.976,1.467-1.952,2.203-2.926
		c0.137-0.185,0.223-0.257,0.301-0.257c0.073,0,0.169,0.051,0.327,0.168L22.484,1.4c0.234,0.176,0.476,0.358,0.713,0.54
		C23.433,2.12,23.449,2.219,23.278,2.446z"/>
	<path fill="#5A0BCF" d="M4.495,9.147l0.8-0.057l0.011-0.003C5.37,9.069,5.434,9.05,5.497,9.032c0.134-0.039,0.272-0.08,0.408-0.123
		c0.858-0.276,1.62-0.812,2.203-1.549c0.583-0.737,0.931-1.604,1.007-2.511C9.119,4.813,9.13,4.774,9.141,4.732
		c0.007-0.023,0.013-0.046,0.018-0.069l0.004-0.016L9.107,3.841L9.103,3.828C9.094,3.8,9.083,3.773,9.073,3.746
		c-0.02-0.054-0.038-0.107-0.049-0.158C8.798,2.577,8.212,1.658,7.373,1.001C6.549,0.356,5.534,0,4.512,0
		C4.158,0,3.804,0.043,3.461,0.127c-0.924,0.228-1.796,0.81-2.454,1.641C0.35,2.599-0.008,3.569,0,4.499
		C0.021,6.72,1.62,8.631,3.802,9.044C3.958,9.072,4.117,9.095,4.27,9.115c0.071,0.01,0.143,0.02,0.213,0.03L4.495,9.147z
		 M4.801,7.965c-0.09,0.006-0.18,0.01-0.268,0.01c0,0,0,0,0,0c-1.823,0-3.239-1.317-3.368-3.132
		C1.021,2.812,2.329,1.292,4.347,1.146c0.093-0.006,0.187-0.01,0.279-0.01c1.841,0,3.22,1.304,3.354,3.171
		c0.068,0.951-0.217,1.844-0.8,2.515C6.597,7.494,5.751,7.9,4.801,7.965z"/>
</g>
</svg>
