<?xml version="1.0" encoding="utf-8"?>
<!-- Generator: Adobe Illustrator 16.0.0, SVG Export Plug-In . SVG Version: 6.00 Build 0)  -->
<!DOCTYPE svg PUBLIC "-//W3C//DTD SVG 1.1//EN" "http://www.w3.org/Graphics/SVG/1.1/DTD/svg11.dtd">
<svg version="1.1" id="Layer_1" xmlns="http://www.w3.org/2000/svg" xmlns:xlink="http://www.w3.org/1999/xlink" x="0px" y="0px"
	 width="24px" height="24px" viewBox="0 0 24 24" enable-background="new 0 0 24 24" xml:space="preserve">
<g>
	<g>
		<path fill-rule="evenodd" clip-rule="evenodd" fill="#FFFFFF" d="M15.835,8.165c-0.577-0.578-1.514-0.578-2.092,0L12,9.908
			l-1.743-1.743c-0.578-0.578-1.514-0.578-2.092,0c-0.578,0.578-0.578,1.514,0,2.092L9.908,12l-1.743,1.743
			c-0.578,0.578-0.578,1.515,0,2.092c0.578,0.578,1.515,0.578,2.092,0L12,14.092l1.743,1.743c0.578,0.578,1.515,0.578,2.092,0
			c0.577-0.577,0.577-1.514,0-2.092L14.092,12l1.743-1.743C16.412,9.679,16.412,8.743,15.835,8.165z M11.985,0.167
			C5.456,0.194,0.144,5.525,0.167,12.027c0.022,6.533,5.333,11.82,11.861,11.807c6.537-0.014,11.829-5.325,11.807-11.85
			C23.812,5.446,18.49,0.139,11.985,0.167z M12.015,21.232c-5.09,0.005-9.221-4.142-9.221-9.254c0-5.062,4.148-9.2,9.205-9.185
			c5.107,0.016,9.227,4.124,9.233,9.205C21.237,17.065,17.082,21.229,12.015,21.232z"/>
	</g>
</g>
</svg>
