<?xml version="1.0" encoding="utf-8"?>
<!-- Generator: Adobe Illustrator 16.0.0, SVG Export Plug-In . SVG Version: 6.00 Build 0)  -->
<!DOCTYPE svg PUBLIC "-//W3C//DTD SVG 1.1//EN" "http://www.w3.org/Graphics/SVG/1.1/DTD/svg11.dtd">
<svg version="1.1" id="Layer_1" xmlns="http://www.w3.org/2000/svg" xmlns:xlink="http://www.w3.org/1999/xlink" x="0px" y="0px"
	 width="24px" height="24px" viewBox="0 0 17.077 24" enable-background="new 0 0 17.077 24" xml:space="preserve">
<g>
	<path fill="#5A0ACF" d="M13.239,17.945c0.031-0.12,0.062-0.233,0.096-0.345c0.408-1.294,1.08-2.584,2.118-4.058
		c1.453-2.061,1.934-4.337,1.432-6.766c-0.394-1.911-1.464-3.646-3.014-4.885C12.345,0.672,10.446,0,8.526,0
		C7.954,0,7.379,0.06,6.818,0.177C5.402,0.475,4.134,1.088,3.05,2.002C2.032,2.859,1.215,3.965,0.689,5.199
		C0.164,6.432-0.068,7.783,0.017,9.107c0.092,1.411,0.525,2.747,1.29,3.97c0.18,0.287,0.371,0.572,0.557,0.851
		c0.226,0.335,0.457,0.679,0.666,1.026c0.708,1.179,1.164,2.279,1.394,3.368c0.024,0.115,0.012,0.128-0.03,0.168
		c-0.17,0.172-0.254,0.404-0.29,0.526C3.52,19.312,3.5,19.748,3.864,20.184c-0.325,0.401-0.4,0.867-0.211,1.319
		c0.215,0.515,0.671,0.798,1.284,0.798h0.719c-0.104,0.36-0.063,0.733,0.118,1.036c0.231,0.392,0.665,0.624,1.157,0.626
		c0.506,0,1.011,0.002,1.517,0.002c0.624,0,1.2-0.002,1.761-0.004c0.344-0.002,0.677-0.145,0.914-0.391
		c0.234-0.244,0.356-0.562,0.346-0.897c-0.005-0.132-0.03-0.254-0.06-0.37c0.272,0,0.546-0.002,0.819-0.002
		c0.463,0,0.844-0.214,1.099-0.619c0.215-0.338,0.363-0.87-0.128-1.504c0.432-0.543,0.452-1.134,0.055-1.587
		c-0.124-0.143-0.124-0.235-0.062-0.46C13.207,18.07,13.223,18.009,13.239,17.945z M12.199,19.706
		c-0.531,0.002-1.062,0.002-1.594,0.002H8.537c-1.221-0.002-2.442,0-3.663-0.002c-0.341,0-0.39-0.17-0.391-0.354
		c-0.001-0.126,0.029-0.219,0.087-0.279c0.076-0.076,0.2-0.094,0.291-0.094c1.243-0.002,2.486-0.002,3.729-0.002
		c1.207,0,2.413,0,3.62,0.002c0.091,0,0.214,0.018,0.291,0.094c0.074,0.075,0.088,0.193,0.088,0.279
		C12.587,19.604,12.475,19.706,12.199,19.706z M4.57,20.735c0.076-0.075,0.203-0.09,0.295-0.09c0.606-0.002,1.213-0.002,1.819-0.002
		c0.467,0,0.934,0,1.401,0h1.201c0.247,0,0.493,0,0.74,0h0.74c0.593,0,1.046,0,1.472,0.002c0.223,0.002,0.327,0.093,0.349,0.305
		c0.022,0.218-0.059,0.366-0.222,0.406c-0.059,0.015-0.138,0.015-0.213,0.015h-0.031c-0.675,0.002-1.35,0.002-2.024,0.002H8.532
		H7.594c-0.908,0-1.815,0-2.724-0.002c-0.271,0-0.387-0.107-0.388-0.362C4.482,20.885,4.512,20.793,4.57,20.735z M12.271,17.988
		l-0.019,0.069H4.829c-0.024-0.08-0.047-0.165-0.071-0.247c-0.096-0.336-0.196-0.682-0.319-1.021
		c-0.449-1.233-1.124-2.471-2.066-3.786c-0.979-1.368-1.466-2.893-1.446-4.533c0.045-3.711,2.636-6.766,6.3-7.429
		c0.441-0.079,0.89-0.12,1.335-0.12c3.646,0,6.854,2.702,7.463,6.286c0.358,2.107-0.098,4.072-1.355,5.838
		c-1.085,1.521-1.793,2.893-2.231,4.313C12.375,17.569,12.323,17.781,12.271,17.988z M9.017,23.034H8.945c-0.141,0-0.282,0-0.423,0
		H8.49c-0.157,0-0.313,0-0.47,0c-0.37,0-0.739,0-1.109-0.002c-0.281-0.002-0.385-0.099-0.386-0.359c0-0.267,0.102-0.366,0.378-0.368
		c0.528-0.002,1.069-0.002,1.608-0.002c0.546,0,1.106,0,1.662,0.002c0.137,0.002,0.235,0.032,0.292,0.09
		c0.055,0.054,0.082,0.148,0.08,0.281c-0.002,0.225-0.066,0.354-0.39,0.356C9.776,23.034,9.396,23.034,9.017,23.034z"/>
	<path fill="#5A0ACF" d="M14.97,7.626c-0.169-0.763-0.528-1.463-1.065-2.08c-0.286-0.327-0.644-0.665-1.128-0.693
		c-0.353-0.021-0.565-0.199-0.813-0.501c-0.074-0.089-0.154-0.159-0.233-0.227L11.7,4.101c-0.617-0.536-1.237-0.847-1.897-0.948
		C9.645,3.128,9.484,3.116,9.327,3.116c-0.654,0-1.299,0.207-1.974,0.634c-0.015,0.009-0.02,0.01-0.022,0.01
		c-0.021,0-0.063-0.01-0.077-0.013C7.205,3.736,7.156,3.724,7.106,3.712L7.102,3.711C6.86,3.652,6.61,3.591,6.353,3.591
		c-0.056,0-0.111,0.003-0.164,0.009C5.344,3.695,4.657,4.177,4.146,5.034c-0.042,0.07-0.083,0.1-0.206,0.155
		C3.893,5.209,3.847,5.229,3.799,5.25C3.457,5.398,3.104,5.552,2.787,5.772c-0.672,0.466-0.904,1.224-0.62,2.026
		c0.043,0.124,0.1,0.235,0.154,0.343C2.36,8.22,2.397,8.292,2.427,8.365c0.004,0.01,0.007,0.021,0.008,0.03
		c-0.281,0.663-0.256,1.338,0.075,2.009c0.389,0.789,0.982,1.43,1.763,1.905c0.515,0.313,1.029,0.471,1.529,0.471
		c0.636,0,1.256-0.254,1.846-0.757c0,0,0.04-0.03,0.153-0.042c0.217-0.023,0.439-0.039,0.656-0.055l0.009-0.001
		c0.433-0.032,0.88-0.064,1.318-0.15c0.789-0.154,1.747-0.46,2.188-1.481c0.673-0.034,1.216-0.141,1.708-0.336
		C14.72,9.546,15.201,8.674,14.97,7.626z M12.985,8.034l0.017-0.022c0.025-0.034,0.057-0.075,0.083-0.127
		c0.006-0.011,0.015-0.025,0.025-0.042c0.225-0.359,0.038-0.56-0.094-0.648c-0.083-0.055-0.167-0.083-0.253-0.083
		c-0.232,0-0.341,0.188-0.396,0.283c-0.007,0.012-0.014,0.023-0.021,0.035c-0.21,0.321-0.494,0.583-0.845,0.779
		c-0.393-0.337-0.883-0.503-1.493-0.507l-0.04,0c-0.413,0-0.824,0.044-1.171,0.088c-0.028,0.004-0.05,0.005-0.069,0.005
		c-0.056,0-0.087-0.014-0.135-0.059C8.22,7.383,8.098,7.039,8.202,6.619c0.042-0.173-0.031-0.483-0.245-0.575
		C7.899,6.019,7.839,6.005,7.781,6.005c-0.148,0-0.268,0.076-0.349,0.221C7.137,6.008,6.921,5.789,6.82,5.456
		C6.773,5.3,6.577,5.081,6.363,5.081c-0.015,0-0.03,0.001-0.044,0.003C6.16,5.106,6.074,5.19,6.029,5.256
		c-0.109,0.163-0.062,0.35-0.039,0.44c0.115,0.457,0.398,0.841,0.864,1.176c0.306,0.219,0.53,0.4,0.611,0.73
		C7.51,7.78,7.607,7.926,7.711,8.059C7.269,8.2,6.698,8.352,6.101,8.352c-0.102,0-0.204-0.004-0.304-0.013
		C5.525,8.315,5.291,8.227,5.079,8.069c-0.1-0.074-0.211-0.084-0.296-0.084c-0.017,0-0.035,0-0.056,0.001l-0.009,0
		c-0.018,0-0.035,0.001-0.052,0L4.268,7.953l0.109,0.383c0.004,0.014,0.008,0.04,0.012,0.063c0.015,0.093,0.039,0.233,0.149,0.334
		c0.311,0.283,0.718,0.438,1.213,0.465c0.019,0,0.032,0.002,0.04,0.004c0.002,0.005,0.004,0.012,0.006,0.022
		c0.01,0.044,0.022,0.088,0.035,0.135c0.019,0.07,0.037,0.137,0.049,0.203c0.038,0.208,0.014,0.375-0.072,0.496
		c-0.086,0.122-0.237,0.2-0.449,0.232c-0.042,0.006-0.089,0.009-0.141,0.012c-0.089,0.005-0.19,0.012-0.293,0.04
		C4.8,10.375,4.72,10.463,4.666,10.522C4.653,10.536,4.64,10.55,4.63,10.559l-0.243,0.22l0.257,0.203
		c0.01,0.007,0.023,0.021,0.038,0.035c0.061,0.061,0.154,0.153,0.296,0.169c0.069,0.008,0.139,0.012,0.207,0.012
		c0.61,0,1.146-0.325,1.471-0.892c0.007-0.004,0.019-0.009,0.029-0.012c0.419-0.097,0.737-0.141,1.031-0.141
		c0.327,0,0.621,0.056,0.897,0.171c0.042,0.018,0.087,0.027,0.135,0.027c0.093,0,0.174-0.036,0.233-0.062
		c0.015-0.006,0.037-0.016,0.045-0.019l0.324-0.098L9.189,9.875c-0.005-0.009-0.014-0.03-0.021-0.05
		C9.135,9.743,9.08,9.604,8.939,9.537c-0.355-0.17-0.748-0.253-1.203-0.253c-0.157,0-0.321,0.01-0.502,0.03
		C7.064,9.333,6.895,9.361,6.73,9.39L6.689,9.204c0.147-0.039,0.293-0.076,0.439-0.114l0.005-0.001
		c0.532-0.138,1.082-0.281,1.625-0.41C9.116,8.591,9.441,8.55,9.752,8.55c0.213,0,0.422,0.021,0.621,0.06
		c0.454,0.092,0.708,0.317,0.798,0.708c0.115,0.503-0.014,0.883-0.397,1.159c-0.424,0.307-0.95,0.479-1.604,0.528
		c-0.593,0.044-1.203,0.049-1.794,0.055c-0.224,0.002-0.456,0.004-0.683,0.008H6.677H6.629c-0.391,0-0.461,0.267-0.473,0.382
		c-0.018,0.162,0.039,0.269,0.089,0.329c0.014,0.017,0.031,0.032,0.047,0.046c-0.212,0.069-0.431,0.094-0.667,0.075
		C5.3,11.876,4.985,11.758,4.665,11.54c-0.532-0.362-0.955-0.796-1.256-1.289c-0.496-0.813-0.353-1.625,0.392-2.23
		c0.01-0.008,0.033-0.022,0.052-0.034c0.095-0.061,0.255-0.163,0.285-0.358C4.15,7.543,4.141,7.413,4.021,7.271
		c-0.116-0.137-0.243-0.166-0.33-0.166c-0.183,0-0.309,0.126-0.385,0.201C3.291,7.321,3.272,7.339,3.263,7.347
		c-0.097,0.078-0.188,0.162-0.268,0.24C2.876,7.299,2.908,6.918,3.077,6.69C3.25,6.457,3.616,6.213,3.98,6.086
		C4.311,7.113,5.241,7.46,6.064,7.767C6.101,7.781,6.14,7.788,6.18,7.788c0.111,0,0.201-0.052,0.266-0.09
		c0.015-0.008,0.036-0.021,0.044-0.024l0.295-0.126L6.617,7.274c-0.006-0.01-0.014-0.028-0.022-0.044
		C6.558,7.151,6.502,7.034,6.375,6.97C6.242,6.904,6.107,6.846,5.977,6.789C5.795,6.711,5.625,6.638,5.466,6.547
		c-0.157-0.09-0.316-0.221-0.514-0.424c-0.156-0.16-0.187-0.35-0.096-0.599c0.189-0.519,1.012-1.09,1.571-1.09
		c0.012,0,0.024,0.001,0.036,0.001C6.865,4.453,7.229,4.639,7.61,5.016c0.009,0.009,0.025,0.03,0.04,0.047
		c0.067,0.085,0.193,0.244,0.399,0.244c0.11,0,0.212-0.045,0.304-0.133c0.128-0.122,0.152-0.247,0.15-0.33
		c-0.004-0.193-0.144-0.316-0.228-0.39C8.256,4.438,8.236,4.419,8.228,4.41c-0.03-0.034-0.063-0.068-0.1-0.104
		C8.511,4.09,8.907,3.981,9.307,3.981c0.743,0,1.501,0.388,2.14,1.094c-0.314,0.192-0.586,0.442-0.81,0.744
		c-0.483-0.155-0.794-0.327-0.954-0.727C9.622,4.942,9.48,4.887,9.396,4.854C9.379,4.847,9.358,4.838,9.35,4.834L9.067,4.682
		L8.958,4.984C8.955,4.994,8.943,5.018,8.936,5.033c-0.045,0.091-0.12,0.243-0.037,0.401c0.011,0.021,0.021,0.042,0.033,0.064
		L8.94,5.512c0.099,0.192,0.211,0.41,0.399,0.564C9.54,6.24,9.765,6.358,9.984,6.474c0.07,0.037,0.14,0.073,0.209,0.111
		c0.019,0.01,0.039,0.021,0.061,0.031c-0.011,0.061-0.02,0.135-0.014,0.215c0.013,0.147,0.108,0.243,0.171,0.306
		c0.014,0.014,0.027,0.028,0.035,0.038l0.206,0.258l0.218-0.248c0.006-0.008,0.021-0.021,0.035-0.033
		c0.061-0.055,0.163-0.146,0.184-0.291c0.074-0.531,0.76-1.171,1.287-1.202c0.271-0.016,0.51,0.079,0.709,0.282
		c0.605,0.615,0.963,1.317,1.063,2.088c0.054,0.414-0.108,0.732-0.497,0.974c-0.354,0.22-1.071,0.407-1.583,0.415l-0.094-0.466
		C12.398,8.686,12.73,8.386,12.985,8.034z"/>
</g>
</svg>
