<?xml version="1.0" encoding="utf-8"?>
<!-- Generator: Adobe Illustrator 16.0.0, SVG Export Plug-In . SVG Version: 6.00 Build 0)  -->
<!DOCTYPE svg PUBLIC "-//W3C//DTD SVG 1.1//EN" "http://www.w3.org/Graphics/SVG/1.1/DTD/svg11.dtd">
<svg version="1.1" id="Layer_1" xmlns="http://www.w3.org/2000/svg" xmlns:xlink="http://www.w3.org/1999/xlink" x="0px" y="0px"
	 width="24px" height="24px" viewBox="0 0 17.74 24" enable-background="new 0 0 17.74 24" xml:space="preserve">
<path fill="#5A0ACF" d="M7.677,8.814c0,2.099-0.323,3.686-0.97,4.761c-0.646,1.076-1.6,1.616-2.859,1.616
	c-1.245,0-2.195-0.537-2.848-1.61c-0.653-1.072-0.987-2.621-1-4.645v-2.6c0-2.058,0.321-3.629,0.965-4.711
	C1.607,0.542,2.562,0,3.828,0c1.246,0,2.193,0.523,2.844,1.569c0.649,1.045,0.985,2.57,1.005,4.574V8.814z M6.54,6.17
	c0-1.691-0.225-2.966-0.675-3.826c-0.45-0.858-1.129-1.289-2.036-1.289c-0.874,0-1.538,0.411-1.996,1.233
	C1.376,3.11,1.137,4.333,1.117,5.957V8.95c0,1.65,0.232,2.927,0.695,3.831c0.464,0.902,1.142,1.355,2.036,1.355
	c0.867,0,1.528-0.429,1.986-1.284c0.457-0.856,0.692-2.112,0.706-3.769V6.17z"/>
<path fill="#5A0ACF" d="M12.51,6.926h1.107c0.826-0.007,1.493-0.27,2.006-0.787c0.51-0.518,0.767-1.211,0.767-2.077
	c0-0.955-0.221-1.695-0.66-2.219c-0.438-0.524-1.063-0.787-1.868-0.787c-0.784,0-1.42,0.28-1.905,0.838
	c-0.483,0.559-0.726,1.288-0.726,2.188h-1.126c0-0.771,0.157-1.467,0.472-2.086c0.315-0.62,0.764-1.107,1.345-1.462
	C12.503,0.178,13.149,0,13.861,0c1.109,0,1.997,0.36,2.66,1.081c0.664,0.721,0.995,1.729,0.995,3.021
	c0,0.731-0.192,1.394-0.573,1.99c-0.384,0.596-0.895,1.036-1.539,1.32c0.745,0.244,1.321,0.671,1.728,1.285
	c0.406,0.612,0.608,1.369,0.608,2.27c0,1.286-0.352,2.31-1.056,3.076c-0.704,0.765-1.636,1.148-2.794,1.148
	c-0.738,0-1.415-0.175-2.03-0.523c-0.617-0.35-1.092-0.837-1.427-1.467c-0.335-0.63-0.502-1.368-0.502-2.214h1.127
	c0,0.918,0.262,1.671,0.787,2.262c0.524,0.591,1.208,0.887,2.045,0.887c0.86,0,1.528-0.271,2.006-0.806
	c0.479-0.538,0.716-1.314,0.716-2.329c0-0.972-0.255-1.718-0.767-2.234c-0.511-0.518-1.257-0.779-2.239-0.786H12.51V6.926z"/>
<g>
	<path fill="#5A0ACF" d="M1.456,22.928h2.096v0.99H0.262v-5.913h1.194V22.928z"/>
	<path fill="#5A0ACF" d="M7.022,23.918c-0.032-0.067-0.065-0.181-0.097-0.341C6.719,23.858,6.44,24,6.088,24
		c-0.368,0-0.673-0.122-0.916-0.365c-0.242-0.244-0.363-0.56-0.363-0.947c0-0.46,0.147-0.815,0.441-1.068
		c0.293-0.251,0.717-0.38,1.269-0.386h0.349V20.88c0-0.197-0.034-0.337-0.102-0.419c-0.067-0.08-0.167-0.12-0.296-0.12
		c-0.287,0-0.431,0.167-0.431,0.503H4.89c0-0.407,0.152-0.742,0.457-1.006c0.304-0.264,0.689-0.396,1.155-0.396
		c0.482,0,0.855,0.125,1.119,0.375c0.264,0.25,0.396,0.609,0.396,1.074v2.068c0.005,0.38,0.059,0.676,0.163,0.89v0.068H7.022z
		 M6.344,23.098c0.127,0,0.235-0.025,0.325-0.078c0.089-0.05,0.156-0.11,0.199-0.182v-0.914H6.592c-0.195,0-0.349,0.063-0.461,0.187
		c-0.112,0.125-0.168,0.291-0.168,0.501C5.962,22.936,6.089,23.098,6.344,23.098z"/>
	<path fill="#5A0ACF" d="M11.058,22.225l-0.309,0.347v1.347H9.6V17.68h1.149v3.371l0.142-0.211l0.796-1.316h1.37l-1.276,1.812
		l1.397,2.583h-1.316L11.058,22.225z"/>
	<path fill="#5A0ACF" d="M15.45,19.91c0.249-0.312,0.555-0.468,0.918-0.468c0.4,0,0.704,0.142,0.913,0.423
		c0.209,0.28,0.314,0.701,0.316,1.26v2.793h-1.152v-2.781c0-0.258-0.041-0.444-0.121-0.56c-0.08-0.116-0.209-0.172-0.387-0.172
		c-0.209,0-0.372,0.096-0.487,0.288v3.225H14.3V17.68h1.15V19.91z"/>
</g>
</svg>
