<?xml version="1.0" encoding="utf-8"?>
<!-- Generator: Adobe Illustrator 16.0.0, SVG Export Plug-In . SVG Version: 6.00 Build 0)  -->
<!DOCTYPE svg PUBLIC "-//W3C//DTD SVG 1.1//EN" "http://www.w3.org/Graphics/SVG/1.1/DTD/svg11.dtd">
<svg version="1.1" id="Layer_1" xmlns="http://www.w3.org/2000/svg" xmlns:xlink="http://www.w3.org/1999/xlink" x="0px" y="0px"
	 width="24px" height="24px" viewBox="0 0 24 24" enable-background="new 0 0 24 24" xml:space="preserve">
<g>
	<g>
		<path fill-rule="evenodd" clip-rule="evenodd" fill="#FFFFFF" d="M9.765,14.789c-0.253-0.314-0.271-0.748-0.047-1.087
			c0.253-0.383,0.737-0.516,1.129-0.339c0.169,0.076,0.328,0.176,0.49,0.267c0.068,0.039,0.135,0.08,0.2,0.122
			c0.046,0.029,0.058,0.013,0.058-0.033c0.001-0.253-0.003-0.508,0.003-0.761c0.018-0.681,0.072-1.359,0.177-2.033
			c0.065-0.42,0.149-0.836,0.271-1.245c0.125-0.421,0.282-0.83,0.522-1.2c0.187-0.289,0.409-0.545,0.723-0.706
			c0.021-0.011,0.043-0.021,0.066-0.025c0.072-0.014,0.114,0.021,0.099,0.092C13.436,7.93,13.408,8.018,13.37,8.1
			c-0.248,0.528-0.372,1.088-0.441,1.664c-0.097,0.796-0.088,1.593-0.022,2.389c0.048,0.589,0.116,1.178,0.179,1.766
			c0.036,0.336,0.086,0.671,0.115,1.008c0.018,0.21,0.006,0.421-0.088,0.618c-0.055,0.112-0.136,0.206-0.239,0.279
			c-0.24,0.167-0.499,0.185-0.776,0.102c-0.312-0.091-0.604-0.225-0.896-0.361c-0.361-0.168-0.723-0.338-1.083-0.508
			C9.98,14.992,9.857,14.909,9.765,14.789z"/>
	</g>
	<g>
		<path fill-rule="evenodd" clip-rule="evenodd" fill="#FFFFFF" d="M12,0.037C5.393,0.037,0.037,5.393,0.037,12
			c0,6.607,5.356,11.963,11.963,11.963c6.606,0,11.963-5.356,11.963-11.963C23.963,5.393,18.606,0.037,12,0.037z M12,23.191
			C5.818,23.191,0.807,18.181,0.807,12C0.807,5.818,5.818,0.807,12,0.807c6.181,0,11.192,5.011,11.192,11.193
			C23.192,18.181,18.181,23.191,12,23.191z"/>
	</g>
	<g>
		<path fill="#FFFFFF" d="M12,1.342c2.847,0,5.523,1.108,7.536,3.121C21.55,6.476,22.657,9.153,22.657,12
			c0,2.846-1.107,5.523-3.121,7.535c-2.013,2.013-4.689,3.123-7.536,3.123c-2.847,0-5.523-1.11-7.536-3.123
			C2.452,17.522,1.343,14.846,1.343,12c0-2.847,1.109-5.523,3.122-7.536S9.153,1.342,12,1.342 M12,1.132
			C5.999,1.132,1.132,5.998,1.132,12c0,6.001,4.866,10.869,10.868,10.869c6.002,0,10.868-4.867,10.868-10.869
			C22.868,5.998,18.002,1.132,12,1.132L12,1.132z"/>
	</g>
	<g>
		<path fill="#FFFFFF" d="M12,5.397c3.641,0,6.603,2.962,6.603,6.602c0,3.641-2.962,6.602-6.603,6.602S5.397,15.641,5.397,12
			C5.397,8.359,8.359,5.397,12,5.397 M12,5.188c-3.763,0-6.813,3.049-6.813,6.812c0,3.763,3.049,6.814,6.813,6.814
			c3.763,0,6.813-3.051,6.813-6.814C18.813,8.237,15.763,5.188,12,5.188L12,5.188z"/>
	</g>
	<g>
		<path fill="#FFFFFF" d="M12,4.949c3.889,0,7.05,3.164,7.05,7.051c0,3.888-3.161,7.05-7.05,7.05c-3.888,0-7.05-3.162-7.05-7.05
			C4.95,8.112,8.112,4.949,12,4.949 M12,4.389c-4.204,0-7.611,3.407-7.611,7.61c0,4.204,3.407,7.61,7.611,7.61
			c4.203,0,7.61-3.406,7.61-7.61C19.61,7.796,16.203,4.389,12,4.389L12,4.389z"/>
	</g>
	<g>
		<path fill="#FFFFFF" d="M12.115,2.255l0.478-0.077l0.41,0.027L12.917,3.51l0.178,0.012L13.073,3.87l-0.997-0.066L12.1,3.457
			l0.204,0.012l0.063-0.955l-0.267-0.018L12.115,2.255z"/>
		<path fill="#FFFFFF" d="M14.833,3.411c-0.036,0.151-0.084,0.276-0.146,0.374c-0.059,0.098-0.128,0.172-0.206,0.223
			c-0.079,0.051-0.168,0.082-0.265,0.09c-0.097,0.008-0.2,0-0.313-0.027c-0.11-0.027-0.208-0.066-0.29-0.118
			c-0.083-0.052-0.147-0.118-0.194-0.2c-0.047-0.081-0.075-0.178-0.084-0.292c-0.01-0.114,0.004-0.247,0.04-0.399
			c0.036-0.15,0.084-0.274,0.145-0.373c0.06-0.098,0.129-0.172,0.208-0.224c0.078-0.051,0.166-0.081,0.263-0.09
			c0.097-0.008,0.2,0,0.313,0.027c0.112,0.027,0.209,0.066,0.292,0.118c0.082,0.052,0.146,0.119,0.194,0.199
			c0.045,0.082,0.074,0.18,0.083,0.294C14.881,3.127,14.868,3.26,14.833,3.411z M13.992,3.702c0.047,0.011,0.085,0.008,0.115-0.011
			c0.029-0.019,0.049-0.054,0.063-0.108l0.149-0.625c0.014-0.053,0.011-0.096-0.007-0.125c-0.017-0.029-0.05-0.051-0.097-0.062
			c-0.047-0.011-0.086-0.008-0.114,0.011C14.072,2.8,14.051,2.836,14.038,2.89l-0.149,0.625c-0.014,0.054-0.011,0.095,0.007,0.125
			C13.913,3.67,13.945,3.691,13.992,3.702z"/>
		<path fill="#FFFFFF" d="M16.438,4.121c-0.065,0.142-0.136,0.255-0.213,0.338c-0.079,0.083-0.161,0.144-0.247,0.178
			c-0.087,0.035-0.18,0.047-0.276,0.038c-0.097-0.011-0.198-0.04-0.302-0.087c-0.104-0.048-0.192-0.105-0.263-0.173
			c-0.071-0.066-0.121-0.144-0.152-0.233c-0.03-0.089-0.038-0.19-0.025-0.303c0.013-0.114,0.052-0.242,0.118-0.384
			c0.063-0.14,0.136-0.252,0.214-0.337c0.076-0.084,0.159-0.145,0.247-0.179c0.086-0.035,0.179-0.048,0.275-0.038
			c0.098,0.011,0.198,0.04,0.302,0.087c0.104,0.048,0.192,0.106,0.264,0.173c0.07,0.066,0.12,0.144,0.151,0.233
			c0.03,0.089,0.039,0.19,0.024,0.305C16.543,3.854,16.504,3.98,16.438,4.121z M15.558,4.243c0.045,0.02,0.083,0.024,0.115,0.012
			c0.032-0.012,0.06-0.044,0.083-0.094l0.269-0.584c0.023-0.05,0.028-0.092,0.018-0.125c-0.013-0.033-0.04-0.059-0.084-0.079
			c-0.043-0.02-0.082-0.023-0.114-0.012c-0.032,0.012-0.06,0.044-0.082,0.094l-0.27,0.584c-0.023,0.051-0.028,0.092-0.017,0.125
			C15.487,4.197,15.515,4.223,15.558,4.243z"/>
		<path fill="#FFFFFF" d="M18.858,4.932l0.225,0.201l-0.044,0.051l-1.93,0.41l-0.229-0.202l0.046-0.052L18.858,4.932z M17.614,4.359
			c0.054-0.06,0.106-0.104,0.156-0.134c0.05-0.029,0.097-0.044,0.144-0.048c0.047-0.002,0.092,0.005,0.135,0.025
			c0.046,0.021,0.089,0.049,0.13,0.087c0.043,0.037,0.074,0.076,0.1,0.117c0.022,0.041,0.036,0.085,0.038,0.131
			c0.002,0.046-0.011,0.096-0.033,0.148c-0.022,0.053-0.061,0.108-0.112,0.168c-0.054,0.06-0.105,0.105-0.156,0.134
			c-0.05,0.029-0.097,0.045-0.144,0.049c-0.046,0.003-0.09-0.004-0.134-0.024c-0.043-0.02-0.086-0.048-0.127-0.084
			c-0.042-0.038-0.075-0.077-0.102-0.119c-0.024-0.041-0.038-0.085-0.04-0.132c-0.003-0.046,0.009-0.096,0.032-0.149
			C17.521,4.477,17.562,4.42,17.614,4.359z M17.797,5.671c0.054-0.06,0.104-0.105,0.154-0.135c0.05-0.029,0.098-0.044,0.145-0.048
			c0.046-0.002,0.091,0.006,0.136,0.026c0.043,0.02,0.087,0.049,0.128,0.086c0.042,0.038,0.076,0.076,0.099,0.118
			c0.024,0.041,0.038,0.085,0.039,0.131c0.002,0.046-0.009,0.095-0.031,0.148c-0.023,0.053-0.061,0.108-0.114,0.168
			c-0.054,0.06-0.106,0.105-0.155,0.134S18.1,6.345,18.054,6.349s-0.092-0.004-0.135-0.024s-0.085-0.047-0.127-0.084
			c-0.041-0.038-0.077-0.077-0.101-0.118c-0.026-0.042-0.04-0.085-0.041-0.132c-0.003-0.046,0.008-0.096,0.03-0.148
			C17.704,5.788,17.743,5.732,17.797,5.671z M17.842,4.553c-0.029,0.034-0.054,0.062-0.07,0.083
			c-0.017,0.023-0.028,0.041-0.034,0.055s-0.007,0.026-0.003,0.035c0.003,0.01,0.01,0.019,0.021,0.028
			c0.012,0.011,0.022,0.017,0.033,0.019c0.01,0.001,0.023-0.001,0.038-0.009c0.015-0.008,0.031-0.021,0.051-0.041
			c0.018-0.02,0.043-0.045,0.07-0.077c0.029-0.032,0.051-0.059,0.067-0.08c0.019-0.021,0.029-0.039,0.035-0.055
			c0.006-0.015,0.007-0.028,0.004-0.038c-0.003-0.011-0.01-0.021-0.021-0.032c-0.013-0.009-0.022-0.014-0.032-0.017
			c-0.012-0.002-0.023,0.001-0.038,0.009c-0.015,0.009-0.03,0.022-0.05,0.042C17.895,4.496,17.87,4.521,17.842,4.553z M18.023,5.865
			c-0.031,0.034-0.053,0.062-0.071,0.084c-0.015,0.022-0.027,0.04-0.034,0.055c-0.006,0.015-0.007,0.027-0.003,0.036
			c0.004,0.009,0.012,0.018,0.022,0.027s0.021,0.016,0.033,0.018c0.011,0.002,0.023-0.001,0.037-0.009s0.031-0.022,0.05-0.041
			c0.021-0.019,0.044-0.044,0.073-0.076c0.027-0.032,0.05-0.059,0.067-0.08c0.016-0.021,0.027-0.039,0.034-0.055
			c0.006-0.015,0.007-0.028,0.005-0.039c-0.005-0.011-0.012-0.021-0.023-0.031c-0.01-0.009-0.02-0.015-0.032-0.017
			c-0.01-0.002-0.022,0.001-0.037,0.01c-0.013,0.008-0.03,0.021-0.049,0.04C18.075,5.808,18.052,5.833,18.023,5.865z"/>
		<path fill="#FFFFFF" d="M19.25,7.438c0.023,0.04,0.047,0.064,0.07,0.074c0.022,0.01,0.046,0.007,0.069-0.008
			c0.018-0.01,0.027-0.026,0.031-0.048c0.005-0.021,0.002-0.059-0.007-0.111c-0.021-0.111-0.038-0.209-0.049-0.295
			c-0.01-0.086-0.012-0.162-0.002-0.23c0.011-0.067,0.033-0.127,0.071-0.179c0.036-0.053,0.09-0.102,0.162-0.145
			c0.066-0.042,0.134-0.07,0.2-0.082S19.932,6.408,20,6.432c0.065,0.023,0.135,0.069,0.203,0.135
			c0.069,0.067,0.141,0.158,0.211,0.274c0.064,0.105,0.115,0.21,0.153,0.316c0.035,0.106,0.056,0.201,0.059,0.284l-0.324,0.201
			l-0.234-0.38c0.034-0.022,0.052-0.046,0.054-0.073c0-0.027-0.01-0.054-0.024-0.082c-0.025-0.04-0.049-0.065-0.069-0.077
			c-0.022-0.011-0.046-0.009-0.07,0.006c-0.02,0.013-0.03,0.032-0.026,0.057c0.001,0.025,0.007,0.059,0.018,0.105
			C19.969,7.282,19.986,7.362,20,7.44c0.012,0.078,0.015,0.152,0.007,0.222C20,7.733,19.977,7.798,19.94,7.858
			S19.848,7.972,19.77,8.02c-0.156,0.098-0.305,0.12-0.443,0.065c-0.14-0.054-0.271-0.179-0.391-0.374
			c-0.07-0.111-0.126-0.224-0.17-0.339c-0.044-0.114-0.072-0.21-0.084-0.288l0.358-0.223l0.246,0.398
			c-0.036,0.022-0.059,0.046-0.066,0.071C19.21,7.357,19.221,7.393,19.25,7.438z"/>
		<path fill="#FFFFFF" d="M20.956,8.849l-0.091-0.241l-0.314,0.12l0.067,0.174L20.391,8.99l-0.066-0.174L19.971,8.95l0.093,0.241
			l0.313-0.12l0.171,0.446l-0.64,0.244l-0.521-1.362l0.326-0.125l0.046,0.119l0.895-0.341l-0.047-0.119l0.327-0.125l0.521,1.362
			l-0.601,0.23l-0.17-0.446L20.956,8.849z"/>
		<path fill="#FFFFFF" d="M20.771,10.711l0.084,0.504l-0.543,0.092c-0.021-0.025-0.045-0.057-0.07-0.092
			c-0.026-0.037-0.051-0.081-0.074-0.13s-0.046-0.108-0.066-0.173c-0.021-0.064-0.038-0.138-0.054-0.221
			c-0.02-0.123-0.023-0.237-0.01-0.341c0.013-0.105,0.049-0.198,0.103-0.28c0.057-0.081,0.135-0.149,0.234-0.206
			c0.101-0.056,0.228-0.097,0.383-0.124c0.151-0.025,0.284-0.029,0.398-0.01c0.116,0.02,0.211,0.058,0.29,0.116
			c0.08,0.059,0.143,0.134,0.19,0.228c0.049,0.094,0.082,0.202,0.104,0.324c0.013,0.084,0.021,0.16,0.022,0.228
			c0.001,0.067-0.002,0.128-0.007,0.184c-0.006,0.055-0.015,0.104-0.026,0.146c-0.013,0.043-0.023,0.082-0.036,0.115l-0.524,0.089
			l-0.084-0.503l0.149-0.026c0.055-0.008,0.092-0.027,0.112-0.055c0.021-0.028,0.028-0.066,0.02-0.114
			c-0.01-0.047-0.026-0.081-0.056-0.1c-0.028-0.02-0.07-0.025-0.124-0.016l-0.634,0.108c-0.055,0.009-0.092,0.028-0.112,0.056
			c-0.021,0.027-0.026,0.066-0.02,0.114c0.01,0.047,0.026,0.081,0.055,0.1c0.029,0.019,0.071,0.024,0.125,0.016L20.771,10.711z"/>
		<path fill="#FFFFFF" d="M20.748,13.002c-0.114-0.004-0.211-0.022-0.289-0.057c-0.077-0.034-0.141-0.083-0.188-0.144
			c-0.047-0.061-0.08-0.134-0.1-0.219c-0.019-0.085-0.027-0.18-0.023-0.283c0.004-0.106,0.018-0.202,0.043-0.287
			c0.024-0.085,0.062-0.157,0.114-0.215c0.051-0.06,0.116-0.104,0.197-0.135c0.079-0.031,0.177-0.044,0.292-0.04l0.712,0.023
			l0.004-0.127l0.35,0.012l-0.026,0.808l-0.35-0.012l0.004-0.085l-0.822-0.026c-0.047-0.001-0.083,0.007-0.105,0.028
			c-0.021,0.019-0.033,0.05-0.034,0.091c-0.001,0.042,0.009,0.073,0.029,0.093c0.02,0.022,0.054,0.033,0.104,0.035l0.82,0.026
			l0.003-0.085l0.35,0.012l-0.026,0.751l-0.348-0.012l0.004-0.128L20.748,13.002z"/>
		<path fill="#FFFFFF" d="M20.298,13.992l-0.034,0.136l-0.339-0.083l0.21-0.839l0.338,0.084l-0.03,0.124l0.93,0.232l0.031-0.123
			l0.338,0.085l-0.242,0.968c-0.021,0.083-0.049,0.157-0.081,0.223c-0.035,0.063-0.075,0.113-0.123,0.151
			c-0.049,0.038-0.105,0.063-0.17,0.072c-0.066,0.011-0.143,0.006-0.227-0.016c-0.092-0.021-0.167-0.061-0.225-0.114
			s-0.093-0.118-0.103-0.194l-0.022-0.003c-0.053,0.127-0.149,0.171-0.292,0.137l-0.159-0.04l-0.024,0.097l-0.339-0.084l0.164-0.654
			l0.485,0.121c0.041,0.01,0.077,0.013,0.104,0.011c0.027-0.002,0.051-0.012,0.07-0.028c0.017-0.017,0.033-0.04,0.044-0.069
			c0.014-0.029,0.024-0.064,0.034-0.106L20.298,13.992z M20.859,14.251c-0.01,0.041-0.007,0.074,0.01,0.098
			c0.016,0.025,0.047,0.044,0.094,0.056l0.073,0.019c0.049,0.012,0.084,0.01,0.11-0.004c0.024-0.015,0.043-0.042,0.053-0.083
			l0.027-0.111l-0.338-0.084L20.859,14.251z"/>
		<path fill="#FFFFFF" d="M20.432,16.365l0.112-0.23l-0.303-0.147l-0.081,0.169l-0.22-0.106l0.081-0.167l-0.34-0.167l-0.112,0.232
			l0.303,0.146l-0.208,0.43l-0.617-0.299l0.637-1.313l0.314,0.152l-0.057,0.115l0.863,0.417l0.054-0.113l0.314,0.152l-0.636,1.313
			l-0.579-0.282l0.209-0.429L20.432,16.365z"/>
	</g>
	<g>
		<path fill="#FFFFFF" d="M11.885,21.744l-0.478,0.075l-0.41-0.026l0.085-1.302l-0.178-0.013l0.022-0.35l0.997,0.066L11.9,20.542
			l-0.204-0.011l-0.063,0.956l0.267,0.017L11.885,21.744z"/>
		<path fill="#FFFFFF" d="M9.167,20.589c0.036-0.153,0.084-0.277,0.144-0.373c0.06-0.098,0.129-0.173,0.208-0.226
			c0.079-0.049,0.166-0.08,0.263-0.089c0.097-0.009,0.201,0,0.313,0.029c0.112,0.025,0.208,0.063,0.291,0.114
			c0.083,0.053,0.148,0.119,0.195,0.2c0.047,0.083,0.075,0.179,0.084,0.294c0.01,0.113-0.004,0.246-0.04,0.399
			c-0.037,0.15-0.085,0.274-0.145,0.372c-0.059,0.099-0.129,0.171-0.208,0.223c-0.079,0.053-0.167,0.081-0.264,0.09
			s-0.201,0-0.313-0.026c-0.112-0.026-0.209-0.066-0.292-0.118c-0.082-0.052-0.147-0.119-0.194-0.199
			c-0.047-0.081-0.075-0.18-0.083-0.291C9.118,20.872,9.131,20.739,9.167,20.589z M10.007,20.297
			c-0.047-0.012-0.085-0.009-0.114,0.012c-0.03,0.017-0.051,0.055-0.063,0.106l-0.15,0.627c-0.013,0.055-0.01,0.096,0.007,0.124
			c0.018,0.032,0.05,0.053,0.097,0.063c0.047,0.01,0.085,0.006,0.115-0.011c0.029-0.021,0.05-0.056,0.063-0.11l0.149-0.624
			c0.013-0.054,0.011-0.096-0.007-0.127C10.087,20.328,10.054,20.309,10.007,20.297z"/>
		<path fill="#FFFFFF" d="M7.561,19.878c0.065-0.142,0.137-0.254,0.214-0.338s0.16-0.145,0.247-0.18
			c0.086-0.034,0.179-0.046,0.276-0.037c0.097,0.011,0.197,0.04,0.302,0.09c0.104,0.046,0.192,0.104,0.263,0.17
			c0.071,0.067,0.121,0.145,0.151,0.234s0.039,0.19,0.025,0.304c-0.013,0.112-0.052,0.242-0.117,0.384
			c-0.065,0.139-0.135,0.251-0.213,0.338c-0.078,0.084-0.161,0.142-0.248,0.177c-0.087,0.037-0.18,0.049-0.276,0.037
			c-0.097-0.009-0.197-0.037-0.302-0.087c-0.104-0.046-0.192-0.104-0.263-0.171c-0.071-0.068-0.122-0.146-0.152-0.233
			c-0.03-0.09-0.038-0.19-0.025-0.307C7.457,20.147,7.496,20.02,7.561,19.878z M8.442,19.757c-0.044-0.021-0.082-0.026-0.115-0.012
			c-0.032,0.012-0.06,0.043-0.083,0.093l-0.269,0.586c-0.023,0.049-0.029,0.09-0.018,0.124c0.011,0.032,0.039,0.058,0.083,0.078
			c0.044,0.021,0.082,0.023,0.114,0.012c0.033-0.012,0.06-0.043,0.083-0.096l0.269-0.584c0.023-0.048,0.029-0.091,0.018-0.124
			C8.513,19.803,8.485,19.777,8.442,19.757z"/>
		<path fill="#FFFFFF" d="M5.142,19.067l-0.226-0.201l0.044-0.051l1.93-0.408l0.228,0.202L7.074,18.66L5.142,19.067z M6.204,18.327
			c-0.054,0.061-0.105,0.105-0.155,0.134c-0.05,0.029-0.097,0.047-0.144,0.05c-0.046,0.003-0.092-0.006-0.136-0.026
			c-0.043-0.02-0.087-0.048-0.129-0.087c-0.042-0.035-0.075-0.074-0.099-0.116c-0.023-0.041-0.037-0.085-0.038-0.132
			c-0.002-0.044,0.008-0.096,0.032-0.146c0.023-0.053,0.061-0.109,0.113-0.168c0.054-0.062,0.105-0.105,0.155-0.135
			c0.05-0.028,0.097-0.047,0.143-0.049c0.046-0.005,0.091,0.005,0.134,0.023c0.043,0.021,0.086,0.048,0.127,0.085
			c0.043,0.037,0.076,0.076,0.102,0.119c0.025,0.04,0.039,0.084,0.041,0.131c0.002,0.046-0.008,0.096-0.031,0.149
			C6.296,18.21,6.257,18.267,6.204,18.327z M6.384,19.638c-0.053,0.062-0.104,0.107-0.154,0.137
			c-0.05,0.028-0.098,0.046-0.145,0.049c-0.046,0.003-0.092-0.006-0.135-0.026c-0.043-0.02-0.087-0.049-0.13-0.086
			c-0.041-0.038-0.073-0.076-0.098-0.118s-0.037-0.085-0.038-0.13c-0.003-0.047,0.008-0.097,0.032-0.148
			c0.023-0.053,0.06-0.109,0.114-0.168c0.053-0.062,0.105-0.105,0.155-0.135c0.05-0.028,0.097-0.046,0.144-0.048
			c0.045-0.006,0.09,0.004,0.134,0.021c0.043,0.021,0.085,0.049,0.127,0.086c0.043,0.037,0.077,0.076,0.101,0.118
			c0.025,0.041,0.039,0.084,0.041,0.131c0.002,0.046-0.008,0.096-0.031,0.15C6.477,19.522,6.439,19.577,6.384,19.638z M5.977,18.136
			c0.03-0.035,0.054-0.063,0.07-0.086c0.017-0.021,0.029-0.04,0.035-0.055c0.006-0.015,0.007-0.025,0.003-0.035
			c-0.004-0.01-0.011-0.018-0.022-0.028c-0.011-0.009-0.022-0.015-0.032-0.018c-0.012-0.002-0.024,0-0.039,0.009
			c-0.014,0.009-0.03,0.021-0.05,0.04c-0.02,0.02-0.043,0.046-0.072,0.077c-0.028,0.032-0.05,0.058-0.067,0.079
			c-0.018,0.021-0.029,0.04-0.035,0.055c-0.007,0.017-0.008,0.027-0.004,0.039c0.003,0.011,0.01,0.021,0.021,0.03
			c0.011,0.011,0.021,0.017,0.033,0.018c0.01,0.002,0.022-0.001,0.037-0.01c0.014-0.009,0.031-0.021,0.051-0.041
			C5.925,18.191,5.949,18.167,5.977,18.136z M6.158,19.447c0.03-0.034,0.053-0.063,0.07-0.087c0.017-0.02,0.028-0.04,0.034-0.054
			c0.006-0.016,0.007-0.026,0.003-0.036c-0.004-0.009-0.011-0.017-0.022-0.026c-0.011-0.012-0.022-0.017-0.033-0.019
			c-0.01-0.003-0.023,0-0.038,0.009c-0.014,0.007-0.031,0.021-0.05,0.039c-0.02,0.021-0.042,0.047-0.072,0.079
			C6.023,19.384,6,19.41,5.984,19.431c-0.017,0.022-0.028,0.04-0.035,0.054c-0.006,0.019-0.008,0.029-0.004,0.042
			c0.003,0.008,0.01,0.02,0.022,0.027c0.01,0.013,0.021,0.018,0.032,0.018c0.011,0.003,0.023,0,0.037-0.008
			c0.015-0.01,0.031-0.023,0.051-0.041C6.106,19.503,6.13,19.479,6.158,19.447z"/>
		<path fill="#FFFFFF" d="M3.991,17.754l-0.486-0.781l0.296-0.185l0.104,0.166l0.813-0.506l-0.102-0.163l-0.166,0.104l-0.224-0.359
			l0.463-0.287l0.708,1.137l-0.297,0.183l-0.067-0.107L4.22,17.46l0.067,0.109L3.991,17.754z"/>
		<path fill="#FFFFFF" d="M3.055,15.184l0.093,0.242l0.314-0.122l-0.068-0.175l0.227-0.087l0.068,0.174l0.353-0.137l-0.092-0.24
			L3.635,14.96l-0.172-0.444l0.639-0.247l0.527,1.361l-0.326,0.125l-0.046-0.119L3.363,15.98l0.045,0.12l-0.325,0.125l-0.526-1.359
			l0.599-0.231l0.172,0.444L3.055,15.184z"/>
		<path fill="#FFFFFF" d="M3.081,13.434l-0.124-0.744l0.313-0.052l0.018,0.105l0.419-0.07c0.021,0.03,0.042,0.064,0.066,0.104
			c0.023,0.04,0.045,0.086,0.067,0.14c0.022,0.052,0.043,0.114,0.063,0.18c0.02,0.067,0.037,0.143,0.05,0.228
			c0.021,0.125,0.025,0.241,0.011,0.347c-0.015,0.106-0.049,0.2-0.104,0.282c-0.055,0.081-0.133,0.151-0.234,0.206
			c-0.1,0.057-0.228,0.097-0.382,0.122c-0.152,0.025-0.286,0.028-0.4,0.009c-0.114-0.02-0.21-0.059-0.289-0.117
			c-0.08-0.06-0.142-0.137-0.19-0.233c-0.047-0.095-0.082-0.205-0.102-0.329c-0.015-0.086-0.023-0.164-0.026-0.234
			c-0.003-0.07-0.003-0.135,0.001-0.192c0.004-0.057,0.011-0.109,0.021-0.155c0.008-0.044,0.018-0.084,0.028-0.12l0.502-0.083
			l0.087,0.525l-0.099,0.017c-0.06,0.01-0.101,0.028-0.121,0.058c-0.021,0.029-0.028,0.07-0.019,0.123
			c0.009,0.053,0.028,0.09,0.058,0.11c0.028,0.021,0.073,0.025,0.133,0.016l0.614-0.104c0.06-0.01,0.101-0.028,0.122-0.057
			c0.021-0.029,0.027-0.07,0.018-0.124c-0.009-0.054-0.027-0.09-0.057-0.11C3.495,13.26,3.45,13.255,3.39,13.266l-0.015,0.002
			l0.019,0.113L3.081,13.434z"/>
		<path fill="#FFFFFF" d="M3.477,11.63l0.005-0.127l-0.169,0.029L3.3,11.819l0.167,0.041l0.005-0.127l0.349,0.015l-0.03,0.727
			L3.442,12.46l0.003-0.085l-1.291-0.414l0.032-0.774l1.321-0.306l0.004-0.085l0.349,0.015l-0.035,0.833L3.477,11.63z M3.077,11.763
			l0.008-0.196l-0.429,0.069l0,0.021L3.077,11.763z"/>
		<path fill="#FFFFFF" d="M2.282,10.319l0.216-0.894l0.339,0.083L2.792,9.697l0.931,0.226l0.046-0.186L3.577,9.691l0.1-0.412
			l0.529,0.128l-0.315,1.301l-0.339-0.082l0.03-0.125l-0.931-0.226l-0.031,0.125L2.282,10.319z"/>
	</g>
	<g>
		<path fill-rule="evenodd" clip-rule="evenodd" fill="#FFFFFF" d="M6.626,5.795c-0.005,0.003-0.01,0.007-0.015,0.01
			C6.582,5.806,6.575,5.801,6.564,5.771C6.548,5.725,6.531,5.678,6.516,5.631C6.464,5.483,6.412,5.336,6.361,5.189
			C6.357,5.178,6.351,5.174,6.34,5.174c-0.018,0-0.035-0.001-0.053-0.003c-0.2-0.011-0.399-0.022-0.6-0.032
			C5.67,5.137,5.658,5.132,5.651,5.115c-0.006-0.018,0.002-0.03,0.015-0.041c0.012-0.008,0.023-0.017,0.035-0.025
			c0.15-0.122,0.302-0.244,0.454-0.364c0.013-0.01,0.016-0.019,0.012-0.034c-0.055-0.203-0.11-0.406-0.163-0.608
			C6,4.027,6.003,4.011,6.002,3.997c0.006-0.004,0.013-0.008,0.018-0.013C6.035,3.989,6.05,3.991,6.062,3.999
			c0.085,0.055,0.172,0.111,0.257,0.167C6.41,4.225,6.502,4.285,6.592,4.345c0.012,0.008,0.021,0.009,0.033-0.001
			c0.01-0.007,0.022-0.015,0.034-0.022c0.162-0.106,0.324-0.212,0.486-0.317c0.015-0.01,0.03-0.017,0.046-0.007
			C7.208,4.01,7.208,4.026,7.203,4.044C7.147,4.251,7.092,4.457,7.035,4.662C7.03,4.681,7.034,4.691,7.049,4.703
			C7.21,4.825,7.371,4.948,7.532,5.072C7.556,5.09,7.559,5.099,7.549,5.127C7.544,5.13,7.539,5.134,7.534,5.138
			c-0.008,0-0.016,0.001-0.023,0.002C7.304,5.153,7.098,5.167,6.893,5.181C6.881,5.182,6.874,5.186,6.869,5.197
			C6.788,5.396,6.708,5.595,6.626,5.795z"/>
	</g>
	<g>
		<path fill-rule="evenodd" clip-rule="evenodd" fill="#FFFFFF" d="M8.331,4.243C8.327,4.246,8.324,4.247,8.32,4.249
			c-0.02-0.003-0.023-0.008-0.027-0.027C8.29,4.189,8.284,4.158,8.279,4.125C8.263,4.024,8.248,3.924,8.233,3.824
			C8.231,3.816,8.229,3.812,8.221,3.811C8.21,3.809,8.199,3.806,8.188,3.804C8.061,3.772,7.934,3.742,7.807,3.711
			C7.796,3.708,7.788,3.703,7.786,3.692C7.784,3.68,7.791,3.672,7.801,3.667C7.81,3.664,7.817,3.659,7.826,3.655
			c0.112-0.06,0.223-0.12,0.335-0.179C8.17,3.47,8.173,3.465,8.172,3.455C8.162,3.318,8.15,3.182,8.14,3.045
			c0-0.009,0.003-0.019,0.004-0.029C8.149,3.014,8.153,3.012,8.158,3.01c0.009,0.005,0.019,0.008,0.025,0.015
			C8.231,3.07,8.279,3.117,8.327,3.162C8.379,3.211,8.43,3.26,8.481,3.31c0.007,0.007,0.013,0.008,0.021,0.003
			C8.51,3.309,8.519,3.306,8.527,3.302C8.644,3.253,8.76,3.205,8.876,3.157c0.011-0.004,0.022-0.007,0.031,0.001
			c0.01,0.01,0.007,0.021,0.002,0.031C8.848,3.315,8.789,3.441,8.728,3.566C8.723,3.577,8.724,3.584,8.732,3.593
			c0.089,0.098,0.177,0.196,0.266,0.294c0.013,0.015,0.014,0.021,0.005,0.038C8.999,3.927,8.995,3.929,8.991,3.93
			c-0.005,0-0.011,0-0.016-0.001C8.842,3.914,8.708,3.897,8.574,3.882c-0.007-0.001-0.012,0-0.017,0.007
			C8.482,4.007,8.406,4.125,8.331,4.243z"/>
	</g>
	<g>
		<path fill-rule="evenodd" clip-rule="evenodd" fill="#FFFFFF" d="M5.358,6.709C5.356,6.713,5.354,6.716,5.352,6.72
			C5.334,6.728,5.329,6.728,5.315,6.711c-0.023-0.022-0.045-0.047-0.067-0.07C5.177,6.568,5.107,6.495,5.037,6.421
			c-0.005-0.006-0.01-0.007-0.017-0.003C5.01,6.421,5,6.426,4.989,6.429C4.867,6.477,4.745,6.524,4.623,6.573
			c-0.01,0.003-0.02,0.004-0.027-0.005C4.587,6.56,4.588,6.55,4.594,6.54c0.005-0.007,0.009-0.017,0.013-0.024
			c0.058-0.113,0.115-0.227,0.172-0.339c0.005-0.009,0.005-0.015-0.002-0.024C4.69,6.047,4.602,5.942,4.517,5.836
			C4.51,5.828,4.508,5.818,4.503,5.81C4.505,5.805,4.508,5.8,4.51,5.796c0.01-0.001,0.019-0.003,0.028-0.002
			c0.066,0.01,0.132,0.021,0.199,0.031c0.07,0.01,0.14,0.021,0.21,0.032c0.009,0.001,0.015,0,0.019-0.009
			C4.97,5.84,4.976,5.832,4.98,5.825c0.068-0.106,0.136-0.213,0.204-0.319C5.19,5.496,5.197,5.488,5.209,5.49
			c0.013,0.002,0.018,0.013,0.02,0.025c0.022,0.137,0.045,0.274,0.067,0.412c0.002,0.013,0.006,0.017,0.019,0.02
			c0.129,0.029,0.258,0.059,0.387,0.089C5.72,6.04,5.724,6.045,5.726,6.064C5.724,6.067,5.722,6.07,5.72,6.074
			C5.715,6.077,5.711,6.079,5.707,6.082C5.588,6.146,5.47,6.209,5.351,6.273C5.344,6.277,5.34,6.28,5.341,6.289
			C5.347,6.429,5.353,6.569,5.358,6.709z"/>
	</g>
	<g>
		<path fill-rule="evenodd" clip-rule="evenodd" fill="#FFFFFF" d="M16.816,18.821c0.004-0.003,0.01-0.006,0.016-0.008
			c0.028,0.001,0.035,0.007,0.045,0.035c0.013,0.048,0.025,0.097,0.039,0.145c0.041,0.15,0.081,0.301,0.124,0.451
			c0.003,0.012,0.007,0.019,0.018,0.019c0.019,0,0.035,0.002,0.053,0.005c0.199,0.022,0.398,0.049,0.597,0.072
			c0.018,0.003,0.03,0.009,0.034,0.026c0.006,0.017-0.004,0.028-0.017,0.04c-0.012,0.006-0.024,0.015-0.036,0.023
			c-0.158,0.109-0.318,0.222-0.479,0.332c-0.013,0.009-0.017,0.017-0.014,0.035c0.041,0.204,0.08,0.41,0.121,0.618
			c0.003,0.011-0.001,0.028-0.001,0.043c-0.009,0.003-0.014,0.008-0.02,0.011c-0.014-0.005-0.029-0.008-0.04-0.017
			c-0.083-0.061-0.164-0.121-0.246-0.185c-0.087-0.066-0.174-0.13-0.261-0.197c-0.011-0.009-0.02-0.009-0.033-0.003
			c-0.01,0.01-0.022,0.015-0.034,0.023c-0.169,0.093-0.338,0.188-0.507,0.283c-0.016,0.008-0.03,0.015-0.046,0.003
			c-0.018-0.015-0.015-0.032-0.009-0.049c0.068-0.203,0.139-0.401,0.209-0.604c0.006-0.017,0.005-0.029-0.01-0.04
			c-0.153-0.133-0.305-0.27-0.456-0.401c-0.023-0.02-0.026-0.029-0.015-0.059c0.006-0.003,0.01-0.005,0.016-0.008
			c0.009,0,0.017,0,0.024,0c0.206,0,0.412,0,0.619,0c0.011,0,0.018-0.003,0.023-0.015C16.627,19.208,16.723,19.015,16.816,18.821z"
			/>
	</g>
	<g>
		<path fill-rule="evenodd" clip-rule="evenodd" fill="#FFFFFF" d="M14.994,20.028c0.004,0,0.007-0.003,0.013-0.003
			c0.018,0.006,0.021,0.009,0.021,0.029c0.002,0.032,0.003,0.066,0.003,0.098c0.005,0.102,0.01,0.202,0.014,0.303
			c0,0.01,0.002,0.013,0.009,0.016c0.011,0.002,0.021,0.008,0.033,0.011c0.121,0.047,0.244,0.09,0.367,0.137
			c0.011,0.003,0.018,0.008,0.018,0.022c0,0.012-0.007,0.018-0.017,0.021c-0.008,0.003-0.018,0.005-0.026,0.011
			c-0.118,0.047-0.234,0.093-0.354,0.14c-0.009,0.003-0.014,0.008-0.014,0.02c-0.004,0.136-0.01,0.271-0.015,0.411
			c0,0.008-0.005,0.017-0.008,0.028c-0.005,0-0.009,0.003-0.015,0.003c-0.007-0.007-0.016-0.009-0.021-0.018
			c-0.043-0.049-0.086-0.101-0.129-0.153c-0.046-0.055-0.091-0.109-0.136-0.164c-0.007-0.006-0.011-0.009-0.021-0.006
			c-0.007,0.006-0.016,0.006-0.024,0.009c-0.121,0.034-0.242,0.068-0.363,0.104c-0.013,0.003-0.022,0.007-0.031-0.006
			c-0.009-0.008-0.004-0.02,0.002-0.029c0.074-0.118,0.149-0.236,0.223-0.354c0.007-0.009,0.007-0.018,0-0.026
			c-0.076-0.106-0.153-0.217-0.229-0.323c-0.014-0.015-0.014-0.021-0.002-0.038c0.005,0,0.009-0.003,0.012-0.003
			c0.006,0,0.01,0.003,0.016,0.003c0.132,0.032,0.262,0.061,0.393,0.093c0.007,0,0.012,0,0.018-0.006
			C14.816,20.245,14.906,20.138,14.994,20.028z"/>
	</g>
	<g>
		<path fill-rule="evenodd" clip-rule="evenodd" fill="#FFFFFF" d="M18.319,17.89c0.003-0.003,0.005-0.006,0.009-0.009
			c0.019-0.002,0.023-0.001,0.033,0.018c0.017,0.027,0.031,0.056,0.048,0.084c0.05,0.09,0.1,0.178,0.15,0.266
			c0.003,0.008,0.007,0.01,0.014,0.009c0.012-0.003,0.023-0.003,0.035-0.004c0.13-0.017,0.258-0.032,0.389-0.05
			c0.012,0,0.02,0.001,0.025,0.011c0.007,0.011,0.004,0.02-0.006,0.028c-0.005,0.008-0.011,0.015-0.017,0.021
			c-0.084,0.096-0.168,0.19-0.251,0.284c-0.007,0.009-0.008,0.016-0.003,0.025c0.057,0.122,0.116,0.247,0.174,0.371
			c0.003,0.009,0.003,0.02,0.006,0.029c-0.004,0.002-0.007,0.007-0.01,0.01c-0.01-0.002-0.021,0-0.027-0.005
			c-0.063-0.025-0.124-0.052-0.186-0.077c-0.066-0.027-0.131-0.056-0.195-0.084c-0.009-0.003-0.016-0.003-0.021,0.004
			c-0.005,0.007-0.012,0.013-0.02,0.02c-0.091,0.086-0.184,0.173-0.275,0.26c-0.01,0.007-0.017,0.014-0.029,0.008
			c-0.012-0.005-0.014-0.016-0.014-0.028c0.014-0.139,0.025-0.277,0.038-0.416c0.002-0.011-0.002-0.02-0.013-0.024
			c-0.119-0.06-0.235-0.12-0.353-0.181c-0.02-0.011-0.021-0.015-0.018-0.033c0.001-0.005,0.004-0.008,0.008-0.01
			c0.006,0,0.011-0.002,0.016-0.003c0.13-0.033,0.261-0.065,0.392-0.099c0.007-0.001,0.011-0.004,0.013-0.014
			C18.261,18.164,18.291,18.026,18.319,17.89z"/>
	</g>
</g>
</svg>
