<?xml version="1.0" encoding="utf-8"?>
<!-- Generator: Adobe Illustrator 16.0.0, SVG Export Plug-In . SVG Version: 6.00 Build 0)  -->
<!DOCTYPE svg PUBLIC "-//W3C//DTD SVG 1.1//EN" "http://www.w3.org/Graphics/SVG/1.1/DTD/svg11.dtd">
<svg version="1.1" id="Layer_3" xmlns="http://www.w3.org/2000/svg" xmlns:xlink="http://www.w3.org/1999/xlink" x="0px" y="0px"
	 width="669.491px" height="459.09px" viewBox="0 0 669.491 459.09" enable-background="new 0 0 669.491 459.09"
	 xml:space="preserve">
<g>
	<polygon fill="#5A0BCF" points="351.47,89.103 323.084,126.836 277.448,108.958 305.833,71.225 	"/>
	<polygon fill="#5A0BCF" points="280.699,183.176 275.716,189.8 230.08,171.922 235.063,165.297 	"/>
	<path fill="#3ACFC0" d="M350.232,183.765c-27.508,0-49.807,22.301-49.807,49.807c0,27.508,22.299,49.807,49.807,49.807
		c27.507,0,49.807-22.299,49.807-49.807C400.039,206.065,377.739,183.765,350.232,183.765z M372.15,261.835l-0.593-0.459
		l-18.507-14.369l-14.621,2.216c-1.19,0.177-2.308-0.572-2.597-1.733l-9.988-40.182c-0.255-1.021,0.21-2.084,1.131-2.589
		c0.921-0.509,2.07-0.331,2.794,0.43l18.688,16.512l15.334-1.883c1.122-0.108,2.136,0.398,2.561,2.204
		c0,0,8.591,30.476,9.805,37.188C376.585,261.541,374.604,263.326,372.15,261.835z"/>
	<path fill="#5A0BCF" d="M448.589,57.847l-35.5-26.56L332.953,0L213.357,158.975c-15.484,20.583-18.125,46.828-9.29,69.143
		l4.087,8.565c0.632,1.125,1.289,2.236,1.984,3.331l5.487,7.491c3.437,4.107,7.375,7.898,11.838,11.257
		c6.373,4.793,13.293,8.337,20.469,10.709l-0.007,0.009l12.781,5.006l17.529,6.862l35.11,13.748
		c10.843,4.373,27.561,9.184,36.405,9.184c22.891,0,44.613-11.549,57.636-28.338c4.41-5.862,7.761-12.188,10.12-18.746l2.683-9.476
		c3.145-15.067,0.926-30.625-5.153-44.708c-9.123-21.134-18.123-30.217-18.123-53.217c0-19,16.833-40.583,23.62-50.765
		C435.209,77.008,448.589,57.847,448.589,57.847z M215.62,225.639c-8.27-19.069-6.367-41.936,6.997-59.698l114.312-151.95
		l68.929,26.911l-112.363,149.36c-19.146,25.451-18.656,59.559-1.109,84.184l-39.762-15.568c-0.343-0.151-0.695-0.287-1.055-0.407
		c-6.177-2.041-11.943-5.058-17.14-8.967c-3.212-2.417-6.106-5.101-8.684-7.993c0,0-3.825-3.917-5.997-7.756
		C217.575,229.916,215.62,225.639,215.62,225.639z M409.659,233.571c0,32.821-26.607,59.427-59.427,59.427
		c-32.822,0-59.427-26.605-59.427-59.427c0-32.82,26.605-59.427,59.427-59.427C383.052,174.144,409.659,200.751,409.659,233.571z"/>
	<g>
		<rect x="199.042" y="84.547" fill="#5A0BCF" width="50.249" height="11.587"/>
	</g>
	<g>
		<rect x="274.906" fill="#5A0BCF" width="11.587" height="50.248"/>
	</g>
	<g>
		
			<rect x="233.527" y="20.124" transform="matrix(0.6708 -0.7416 0.7416 0.6708 45.218 192.3725)" fill="#5A0BCF" width="11.588" height="50.248"/>
	</g>
	<g>
		<path fill="#5A0BCF" d="M53.292,431.204c0.113,7.44-1.822,13.81-5.798,19.101c-2.621,3.58-6.312,6.115-11.085,7.59
			c-2.562,0.793-5.544,1.195-8.955,1.195c-6.314,0-11.537-1.57-15.69-4.698c-3.467-2.558-6.21-6.033-8.227-10.438
			c-2.019-4.408-3.198-9.455-3.537-15.136l15.344-1.108c0.686,6.228,2.331,10.735,4.952,13.538c1.926,2.113,4.144,3.118,6.647,2.996
			c3.528-0.104,6.341-1.843,8.441-5.205c1.082-1.644,1.621-4.002,1.621-7.075c0-4.444-2.019-8.853-6.049-13.229
			c-3.187-3.015-7.964-7.546-14.33-13.565c-5.346-5.178-9.121-9.817-11.338-13.918c-2.388-4.612-3.58-9.609-3.58-15.022
			c0-9.723,3.27-17.101,9.804-22.106c4.035-3.015,9.039-4.521,15.004-4.521c5.742,0,10.659,1.281,14.755,3.843
			c3.18,1.996,5.755,4.775,7.715,8.355c1.962,3.58,3.137,7.703,3.538,12.365l-15.432,2.815c-0.458-4.377-1.707-7.789-3.755-10.238
			c-1.476-1.756-3.607-2.639-6.393-2.639c-2.956,0-5.205,1.313-6.737,3.915c-1.249,2.114-1.874,4.717-1.874,7.844
			c0,4.897,2.105,9.867,6.31,14.924c1.591,1.933,3.979,4.209,7.158,6.83c3.755,3.127,6.226,5.318,7.423,6.567
			c3.974,3.974,7.042,7.889,9.208,11.764c1.018,1.811,1.847,3.494,2.471,5.023C52.436,424.785,53.23,428.198,53.292,431.204z"/>
		<path fill="#5A0BCF" d="M92.082,349.601c7.844,0,14.097,2.467,18.759,7.409c4.32,4.717,6.481,10.75,6.481,18.078v15.521
			c0,7.047-2.46,13.071-7.373,18.077c-4.92,5.002-10.876,7.5-17.867,7.5h-9.297v42.866H66.676V349.601H92.082z M101.718,375.341
			c0-2.788-0.837-5.037-2.519-6.734c-1.672-1.711-3.908-2.558-6.689-2.558h-9.725v34.191h9.725c2.56,0,4.73-0.91,6.524-2.734
			c1.79-1.814,2.684-4.001,2.684-6.567V375.341z"/>
		<path fill="#5A0BCF" d="M153.9,349.601c7.106,0,13.144,2.503,18.119,7.509c4.974,4.997,7.461,11.03,7.461,18.069v58.324
			c0,7.106-2.5,13.145-7.504,18.118c-5.001,4.971-11.03,7.469-18.076,7.469c-7.104,0-13.135-2.512-18.078-7.509
			c-4.942-4.997-7.414-11.03-7.414-18.078v-58.324c0-7.103,2.494-13.136,7.502-18.114C140.91,352.09,146.91,349.601,153.9,349.601z
			 M162.679,374.839c0-2.544-0.892-4.726-2.687-6.518c-1.786-1.797-3.96-2.688-6.52-2.688c-2.557,0-4.75,0.892-6.563,2.688
			c-1.817,1.792-2.729,3.974-2.729,6.518v58.497c0,2.557,0.912,4.734,2.729,6.521c1.813,1.784,4.006,2.685,6.563,2.685
			c2.56,0,4.734-0.9,6.52-2.685c1.795-1.787,2.687-3.965,2.687-6.521V374.839z"/>
		<path fill="#5A0BCF" d="M219.124,349.601c8.978,0,15.572,2.467,19.777,7.409c3.698,4.313,5.544,10.348,5.544,18.078v15.521
			c0,7.554-2.872,13.954-8.611,19.178l12.587,49.266h-17.417l-10.429-42.866c-0.461,0-0.941,0-1.453,0h-9.297v42.866h-16.113
			V349.601H219.124z M228.753,375.341c0-6.2-3.066-9.292-9.207-9.292h-9.72v34.191h9.72c2.56,0,4.734-0.91,6.525-2.734
			c1.79-1.814,2.682-4.001,2.682-6.567V375.341z"/>
		<path fill="#5A0BCF" d="M273.44,365.795h-17.139v-16.194h50.304v16.194h-17.052v93.257H273.44V365.795z"/>
		<path fill="#5A0BCF" d="M370.982,431.204c0.113,7.44-1.822,13.81-5.8,19.101c-2.616,3.58-6.31,6.115-11.083,7.59
			c-2.56,0.793-5.544,1.195-8.953,1.195c-6.314,0-11.54-1.57-15.692-4.698c-3.467-2.558-6.21-6.033-8.224-10.438
			c-2.021-4.408-3.2-9.455-3.54-15.136l15.344-1.108c0.686,6.228,2.331,10.735,4.947,13.538c1.93,2.113,4.148,3.118,6.651,2.996
			c3.523-0.104,6.336-1.843,8.443-5.205c1.075-1.644,1.621-4.002,1.621-7.075c0-4.444-2.021-8.853-6.056-13.229
			c-3.187-3.015-7.964-7.546-14.328-13.565c-5.341-5.178-9.118-9.817-11.336-13.918c-2.392-4.612-3.581-9.609-3.581-15.022
			c0-9.723,3.266-17.101,9.804-22.106c4.035-3.015,9.039-4.521,15.004-4.521c5.741,0,10.659,1.281,14.758,3.843
			c3.18,1.996,5.755,4.775,7.708,8.355c1.962,3.58,3.144,7.703,3.542,12.365l-15.437,2.815c-0.45-4.377-1.7-7.789-3.75-10.238
			c-1.473-1.756-3.612-2.639-6.393-2.639c-2.956,0-5.205,1.313-6.735,3.915c-1.256,2.114-1.88,4.717-1.88,7.844
			c0,4.897,2.109,9.867,6.316,14.924c1.591,1.933,3.972,4.209,7.156,6.83c3.754,3.127,6.226,5.318,7.423,6.567
			c3.974,3.974,7.043,7.889,9.209,11.764c1.021,1.811,1.847,3.494,2.469,5.023C370.129,424.785,370.921,428.198,370.982,431.204z"/>
		<path fill="#3ACFC0" d="M409.772,458.995c-7.102,0-13.13-2.472-18.071-7.414c-4.947-4.942-7.418-10.944-7.418-17.992v-83.988
			h15.776v83.821c0,2.553,0.905,4.726,2.723,6.526c1.819,1.788,4.012,2.68,6.569,2.68c2.56,0,4.73-0.892,6.518-2.68
			c1.792-1.801,2.688-3.974,2.688-6.526v-83.821h16.801v83.988c0,7.17-2.505,13.181-7.502,18.078
			C422.853,456.551,416.824,458.995,409.772,458.995z"/>
		<path fill="#3ACFC0" d="M467.767,349.553l21.389,71.854v-71.854h16.115v109.442h-16.489l-22.993-70.987v70.987H449.68V349.553
			H467.767z"/>
		<path fill="#3ACFC0" d="M535.792,458.995h-16.109V349.601h16.109V458.995z"/>
		<path fill="#3ACFC0" d="M565.895,365.795h-17.139v-16.194h50.305v16.194h-17.053v93.2h-16.113V365.795z"/>
		<path fill="#3ACFC0" d="M631.72,411.712l-21.572-62.159h17.733l11.938,38.369l11.852-38.369h17.819l-21.662,62.159v47.283H631.72
			V411.712z"/>
	</g>
</g>
</svg>
